<svg width="228" height="33" viewBox="0 0 228 33" fill="none" xmlns="http://www.w3.org/2000/svg">
<path d="M29.7149 0.5H3.7548C2.08693 0.5 0.734863 1.85207 0.734863 3.51994V29.4801C0.734863 31.1479 2.08693 32.5 3.7548 32.5H29.7149C31.3828 32.5 32.7349 31.1479 32.7349 29.4801V3.51994C32.7349 1.85207 31.3828 0.5 29.7149 0.5Z" fill="#5E46C9"/>
<path d="M50.0958 28.4607C47.0985 28.4607 44.7505 27.6353 43.0518 25.9844C41.3531 24.3335 40.5038 22.0685 40.5038 19.1895C40.4645 17.4959 40.8417 15.8185 41.6023 14.3048C42.2955 12.9532 43.3568 11.8251 44.6637 11.0508C46.0553 10.2483 47.6405 9.84354 49.2465 9.88057C50.7614 9.82631 52.2601 10.2075 53.565 10.9791C54.7324 11.7204 55.6523 12.7928 56.2074 14.0594C56.8386 15.5216 57.1464 17.1029 57.1096 18.695V19.8615H44.0862V17.5361H53.9613L53.3687 18.0231C53.3687 16.3697 53.0201 15.1114 52.323 14.2482C51.6284 13.3761 50.6168 12.9383 49.3031 12.9383C48.6557 12.9044 48.0098 13.0287 47.4212 13.3003C46.8325 13.5719 46.3189 13.9827 45.9245 14.4973C45.1343 15.5367 44.7392 16.9875 44.7392 18.8498V19.3103C44.7392 21.2469 45.2186 22.7077 46.1737 23.6477C47.1287 24.5877 48.4802 25.0784 50.2242 25.0784C51.1889 25.0851 52.1493 24.949 53.0742 24.6745C53.9902 24.3869 54.8469 23.9368 55.6034 23.3457L56.9133 26.3166C56.007 27.0321 54.9752 27.5724 53.8707 27.9096C52.6489 28.2893 51.3752 28.4753 50.0958 28.4607Z" fill="#5E46C9"/>
<path d="M60.7145 28.106V14.6937C60.7145 13.9651 60.6881 13.2214 60.6428 12.4665C60.5975 11.7115 60.522 10.9565 60.4314 10.2355H64.7122L65.0708 13.7613H64.6442C65.1658 12.5643 66.0437 11.5572 67.1583 10.8772C68.3258 10.1896 69.6616 9.84059 71.0163 9.86932C73.1151 9.86932 74.6956 10.4595 75.7576 11.6398C76.8196 12.82 77.3493 14.6597 77.3468 17.1587V28.106H72.9226V17.3852C72.9226 15.9469 72.647 14.9126 72.0921 14.2897C71.5372 13.6669 70.7067 13.3498 69.5969 13.3498C68.9945 13.3196 68.3925 13.4177 67.8309 13.6377C67.2693 13.8577 66.7608 14.1944 66.3391 14.6257C65.5072 15.5561 65.0747 16.7765 65.1349 18.0231V28.106H60.7145Z" fill="#5E46C9"/>
<path d="M89.5588 28.4607C87.4348 28.4607 85.8292 27.9071 84.742 26.7998C83.6548 25.6925 83.1125 24.029 83.115 21.8093V13.5611H79.6836V10.2354H83.115V6.02261L87.5392 4.89014V10.2354H92.3183V13.5611H87.5392V21.5262C87.5392 22.7543 87.7758 23.615 88.2489 24.1083C88.5019 24.3633 88.8058 24.5623 89.1407 24.6924C89.4756 24.8225 89.8341 24.8807 90.193 24.8632C90.5795 24.8699 90.9655 24.8345 91.3443 24.7575C91.6627 24.6856 91.9756 24.591 92.2805 24.4744V27.9775C91.8549 28.1541 91.4103 28.2808 90.9555 28.355C90.4938 28.4297 90.0265 28.4651 89.5588 28.4607Z" fill="#5E46C9"/>
<path d="M103.643 28.4607C100.646 28.4607 98.2977 27.6353 96.5989 25.9844C94.9002 24.3335 94.0509 22.0685 94.0509 19.1895C94.0116 17.4959 94.3888 15.8185 95.1494 14.3048C95.8427 12.9532 96.904 11.8251 98.2108 11.0508C99.6026 10.2487 101.188 9.84393 102.794 9.88057C104.309 9.82631 105.807 10.2075 107.112 10.9791C108.279 11.7204 109.199 12.7928 109.755 14.0594C110.387 15.5213 110.696 17.1026 110.661 18.695V19.8615H97.6257V17.5361H107.501L106.901 18.0344C106.901 16.381 106.552 15.1227 105.855 14.2595C105.16 13.3875 104.149 12.9496 102.835 12.9496C102.185 12.9129 101.535 13.0358 100.943 13.3075C100.351 13.5793 99.8341 13.9916 99.4377 14.5086C98.65 15.548 98.2549 16.9988 98.2524 18.8611V19.3216C98.2524 21.2582 98.7318 22.7191 99.6868 23.659C100.642 24.599 101.993 25.0897 103.737 25.0897C104.702 25.0964 105.662 24.9603 106.587 24.6858C107.503 24.3982 108.36 23.9481 109.117 23.357L110.426 26.3279C109.52 27.0435 108.488 27.5837 107.384 27.9209C106.172 28.2933 104.91 28.4754 103.643 28.4607Z" fill="#5E46C9"/>
<path d="M114.224 28.1059V14.7994C114.224 14.0444 114.224 13.2894 114.171 12.5004C114.118 11.7115 114.073 10.9678 113.979 10.2355H118.26L118.754 15.1202H118.048C118.23 14.0681 118.634 13.0669 119.233 12.1833C119.748 11.4361 120.449 10.8372 121.268 10.4469C122.088 10.0653 122.983 9.87181 123.888 9.88063C124.231 9.87683 124.574 9.89448 124.915 9.93348C125.18 9.97258 125.44 10.0383 125.692 10.1298L125.658 14.0217C125.29 13.8582 124.904 13.739 124.507 13.6669C124.114 13.617 123.718 13.5943 123.322 13.5989C122.424 13.5687 121.535 13.7883 120.755 14.2331C120.067 14.6499 119.524 15.2679 119.199 16.0036C118.844 16.8185 118.669 17.7005 118.686 18.5894V28.1059H114.224Z" fill="#5E46C9"/>
<path d="M134.752 28.4607C133.308 28.5079 131.882 28.1224 130.659 27.3535C129.435 26.5847 128.469 25.4677 127.885 24.1459C127.189 22.5765 126.851 20.8718 126.896 19.1555C126.85 17.4439 127.188 15.7437 127.885 14.1801C128.482 12.8749 129.441 11.7688 130.649 10.9941C131.879 10.2308 133.304 9.83773 134.752 9.86162C136.162 9.8394 137.547 10.2333 138.734 10.9941C139.835 11.6809 140.647 12.7452 141.018 13.9876H140.641L141.018 10.2353H145.265C145.192 10.9677 145.127 11.7113 145.069 12.4663C145.008 13.2213 144.982 13.9763 144.982 14.6935V28.1058H140.592L140.558 24.4253H140.981C140.599 25.6495 139.781 26.6908 138.682 27.3508C137.507 28.0937 136.142 28.4793 134.752 28.4607ZM135.99 25.0632C136.625 25.0869 137.257 24.9672 137.839 24.713C138.422 24.4588 138.939 24.0766 139.354 23.5948C140.204 22.6183 140.629 21.1386 140.629 19.1555C140.629 17.1724 140.204 15.6977 139.354 14.7313C138.922 14.2722 138.401 13.9064 137.823 13.6564C137.245 13.4063 136.622 13.2773 135.992 13.2773C135.362 13.2773 134.739 13.4063 134.161 13.6564C133.583 13.9064 133.062 14.2722 132.63 14.7313C131.782 15.6977 131.357 17.1724 131.355 19.1555C131.352 21.1386 131.771 22.6183 132.612 23.5948C133.027 24.0795 133.547 24.4635 134.132 24.7179C134.717 24.9723 135.353 25.0903 135.99 25.0632Z" fill="#5E46C9"/>
<path d="M26.9667 16.4982C26.9667 16.9881 26.7724 17.458 26.4263 17.8048C26.0802 18.1516 25.6107 18.3469 25.1208 18.3479H16.7518C16.2612 18.3479 15.7908 18.153 15.4439 17.8062C15.097 17.4593 14.9021 16.9888 14.9021 16.4982C14.9021 16.0076 15.097 15.5372 15.4439 15.1903C15.7908 14.8434 16.2612 14.6485 16.7518 14.6485H23.0182C22.5728 13.1413 21.5995 11.845 20.2764 10.9969C18.9533 10.1488 17.369 9.80564 15.8135 10.0303C14.2581 10.2549 12.8356 11.0323 11.8065 12.2201C10.7774 13.4079 10.2106 14.9266 10.2099 16.4982C10.1938 17.3511 10.348 18.1986 10.6633 18.9911C10.9786 19.7837 11.4487 20.5055 12.0462 21.1143C12.6437 21.723 13.3566 22.2066 14.1432 22.5366C14.9298 22.8666 15.7742 23.0365 16.6272 23.0364C17.1178 23.0364 17.5883 23.2313 17.9352 23.5781C18.2821 23.925 18.477 24.3955 18.477 24.8861C18.477 25.3767 18.2821 25.8471 17.9352 26.194C17.5883 26.5409 17.1178 26.7358 16.6272 26.7358C15.2907 26.7319 13.9681 26.4634 12.7358 25.9457C11.5035 25.4281 10.3859 24.6716 9.44749 23.7198C8.50907 22.768 7.76839 21.6399 7.26818 20.4004C6.76798 19.161 6.51815 17.8347 6.5331 16.4982C6.5331 15.1543 6.79781 13.8235 7.31211 12.5819C7.82641 11.3403 8.58022 10.2121 9.53052 9.26182C10.4808 8.31152 11.609 7.5577 12.8506 7.04341C14.0922 6.52911 15.423 6.2644 16.7669 6.2644C18.1108 6.2644 19.4416 6.52911 20.6832 7.04341C21.9248 7.5577 23.053 8.31152 24.0033 9.26182C24.9536 10.2121 25.7074 11.3403 26.2217 12.5819C26.736 13.8235 27.0007 15.1543 27.0007 16.4982H26.9667Z" fill="#F1EEFD"/>
<path d="M168.065 28.788C165.761 28.788 163.798 28.3187 162.177 27.38C160.556 26.4413 159.308 25.108 158.433 23.38C157.58 21.6307 157.153 19.572 157.153 17.204C157.153 14.836 157.58 12.788 158.433 11.06C159.308 9.332 160.556 7.99867 162.177 7.06C163.798 6.12133 165.761 5.652 168.065 5.652C169.665 5.652 171.094 5.88667 172.353 6.356C173.612 6.82533 174.71 7.508 175.649 8.404L174.497 11.06C173.473 10.1853 172.47 9.556 171.489 9.172C170.529 8.788 169.409 8.596 168.129 8.596C165.697 8.596 163.841 9.34267 162.561 10.836C161.281 12.3293 160.641 14.452 160.641 17.204C160.641 19.956 161.281 22.0893 162.561 23.604C163.841 25.0973 165.697 25.844 168.129 25.844C169.409 25.844 170.529 25.652 171.489 25.268C172.47 24.884 173.473 24.244 174.497 23.348L175.649 26.004C174.71 26.9 173.612 27.5933 172.353 28.084C171.094 28.5533 169.665 28.788 168.065 28.788ZM179.827 28.5V5.94H189.363C191.774 5.94 193.641 6.516 194.963 7.668C196.286 8.79867 196.947 10.388 196.947 12.436C196.947 13.78 196.649 14.932 196.051 15.892C195.454 16.852 194.611 17.588 193.523 18.1C192.435 18.5907 191.155 18.836 189.683 18.836L190.195 18.324H191.059C191.934 18.324 192.713 18.548 193.395 18.996C194.099 19.444 194.675 20.1587 195.123 21.14L198.355 28.5H194.707L191.507 21.108C191.187 20.2333 190.686 19.668 190.003 19.412C189.342 19.156 188.521 19.028 187.539 19.028H183.155V28.5H179.827ZM183.155 16.5H188.819C190.419 16.5 191.625 16.1587 192.435 15.476C193.267 14.7933 193.683 13.812 193.683 12.532C193.683 11.2307 193.267 10.2493 192.435 9.588C191.625 8.92667 190.419 8.596 188.819 8.596H183.155V16.5ZM202.172 28.5V5.94H205.084L213.788 25.556H212.828L221.532 5.94H224.412V28.5H221.404V10.452H222.46L214.332 28.5H212.252L204.124 10.452H205.212V28.5H202.172Z" fill="#454545"/>
</svg>
