<svg width="226" height="149" viewBox="0 0 226 149" fill="none" xmlns="http://www.w3.org/2000/svg">
<path d="M8.98306 90.7404L8.77853 90.7298C8.73559 91.5852 8.71426 92.4261 8.71426 93.2527C8.71417 98.9033 9.7072 103.88 11.5526 108.209C14.3204 114.703 19.0065 119.734 25.1074 123.402C31.2086 127.072 38.7234 129.381 47.1668 130.45C53.8189 131.292 60.5145 131.631 67.2285 131.631C86.9144 131.63 106.761 128.72 126.143 127.03C135.554 126.21 144.99 125.585 154.437 125.585C154.821 125.585 155.205 125.586 155.588 125.589C159.208 125.609 162.953 126.012 166.72 126.411C170.486 126.81 174.275 127.206 177.985 127.206C180.033 127.206 182.057 127.086 184.04 126.778C194.138 125.211 202.083 119.732 207.495 112.337C212.907 104.941 215.794 95.6287 215.794 86.3724C215.794 83.8946 215.587 81.4217 215.167 78.989C214.096 72.8028 211.599 66.7452 207.625 62.2236C205.64 59.9628 203.283 58.0869 200.553 56.7766C197.824 55.4661 194.721 54.7221 191.249 54.7221C190.795 54.7221 190.335 54.7356 189.868 54.7615C184.704 55.0476 179.841 56.31 175.047 57.8009C170.252 59.2908 165.524 61.0092 160.632 62.213C155.061 63.5849 149.338 64.2684 143.616 64.2684C136.099 64.2684 128.583 63.0895 121.408 60.7461C115.095 58.6802 109.062 55.7455 102.894 53.1689C90.6091 48.0444 77.6085 44.3436 64.3581 44.1401C63.9863 44.1343 63.6145 44.1314 63.2427 44.1314C50.3531 44.1314 37.258 47.6422 26.8325 55.5689C15.5154 64.1743 9.45714 77.1919 8.77853 90.7298L8.98306 90.7404L9.18768 90.75C9.86197 77.3196 15.868 64.4201 27.0806 55.8953C37.419 48.0329 50.4261 44.5404 63.2427 44.5404C63.6126 44.5404 63.9824 44.5433 64.3513 44.549C77.5287 44.7516 90.4804 48.4351 102.737 53.5462C108.891 56.1161 114.932 59.0575 121.281 61.1359C128.498 63.4927 136.057 64.6773 143.616 64.6773C149.371 64.6773 155.126 63.991 160.73 62.6105C165.651 61.3989 170.385 59.6777 175.168 58.1916C179.951 56.7046 184.779 55.4527 189.89 55.1695C190.349 55.1445 190.802 55.1321 191.249 55.1321C194.662 55.1321 197.701 55.8617 200.375 57.1452C204.388 59.071 207.586 62.2486 209.982 66.0972C212.377 69.9458 213.968 74.4645 214.763 79.0591C215.179 81.4668 215.385 83.9177 215.385 86.3724C215.385 95.5442 212.522 104.776 207.164 112.095C201.807 119.415 193.962 124.823 183.977 126.374C182.02 126.677 180.017 126.797 177.985 126.797C174.304 126.797 170.529 126.403 166.763 126.004C162.996 125.605 159.239 125.2 155.591 125.179C155.206 125.177 154.821 125.177 154.437 125.177C144.973 125.177 135.524 125.801 126.108 126.622C106.709 128.314 86.8741 131.222 67.2285 131.221C60.5284 131.221 53.8499 130.883 47.2184 130.044C36.0166 128.627 26.4891 125.014 19.7707 118.972C16.411 115.951 13.7513 112.322 11.9295 108.048C10.1079 103.775 9.12399 98.8562 9.12389 93.2527C9.12389 92.4338 9.14503 91.5996 9.18768 90.75L8.98306 90.7404Z" fill="#F0F0F0"/>
<path d="M210.745 98.0266C211.95 121.891 195.894 134.144 172.735 137.054C146.757 140.319 120.083 135.916 94.2145 133.676C84.4695 132.832 74.6928 132.198 64.9047 132.252C55.6806 132.301 45.6952 134.824 36.6339 133.429C13.9831 129.937 2.31038 106.71 5.83985 86.4519C7.48883 76.9882 11.13 66.5184 19.3151 60.7709C27.5476 54.9908 37.1234 56.4692 46.1487 58.9796C62.5847 63.5501 80.4933 72.1268 97.9082 68.7706C107.889 66.8468 116.587 61.1991 126.066 57.8189C135.517 54.4493 145.615 52.3498 155.663 52.1933C168.803 51.9879 182.24 55.4189 192.866 63.4426C204.071 71.904 210.072 84.7056 210.745 98.0266Z" fill="#F0F0F0"/>
<path d="M194.116 118.04C194.116 118.04 185.063 124.419 174.665 118.891L184.39 113.468L194.116 118.04Z" fill="#6F3428"/>
<path d="M127.468 75.4033C127.468 75.4033 118.66 91.9096 121.418 96.7854L131.446 91.2222L127.468 75.4033Z" fill="#6F3428"/>
<path d="M123.676 92.1602C122.574 91.3374 121.513 90.413 120.492 89.4059C118.486 87.4158 116.638 85.107 114.954 82.6427V82.6389C113.824 80.9848 112.767 79.2568 111.788 77.5086C108.957 72.4658 106.744 67.2462 105.172 63.0664C103.529 58.7061 102.574 55.4718 102.321 54.7317C102.292 54.6453 102.272 54.5925 102.259 54.5762L107.023 40.9067C109.326 37.2223 110.616 49.18 110.616 49.18C111.251 48.8075 112.021 47.715 112.476 47.1246C112.988 46.4574 113.382 47.5144 113.451 47.8907C113.848 50.0891 112.079 54.269 112.079 54.269L123.438 70.9058C124.134 71.9253 124.913 72.8872 125.757 73.7752C126.298 74.3483 126.871 74.8936 127.47 75.4053C128.477 79.683 128.375 87.9314 123.676 92.1602Z" fill="#D9D9D9"/>
<path d="M123.676 92.1602C122.574 91.3374 121.513 90.413 120.492 89.4059C124.045 85.3394 126.765 78.5963 127.461 75.4408C127.454 75.4341 127.447 75.4274 127.44 75.4206C127.357 75.3419 127.28 75.2632 127.291 75.2632C127.299 75.2632 127.349 75.3016 127.47 75.4053C127.011 78.8075 125.825 86.3925 123.68 92.1573C123.679 92.1582 123.677 92.1592 123.676 92.1602Z" fill="#D9D9D9"/>
<path d="M194.117 118.042C187.911 116.834 183.019 116.912 178.89 117.73C177.391 118.029 175.994 118.422 174.666 118.893L173.416 123.367L170.95 132.214L169.349 137.962L167.891 143.181L167.071 146.125H123.049L130.014 100.749L121.419 96.7863C121.972 95.9722 122.48 95.0141 122.951 93.9533C125.56 88.0791 126.962 79.1751 127.47 75.4052C129.927 77.5172 132.824 79.0973 135.982 79.9978C139.731 81.0663 144.249 81.9917 148.477 81.8928C148.624 81.889 148.768 81.8851 148.911 81.8813C158.689 81.5002 163.053 84.4685 163.053 84.4685C165.264 84.9063 171.033 87.121 176.067 89.3357C178.288 90.3063 180.365 91.2807 181.937 92.0986C186.165 94.3056 189.234 98.2272 190.372 102.857L194.117 118.042Z" fill="#5E46C9" fill-opacity="0.37"/>
<path d="M174.666 118.893L177.317 109.391L178.89 117.73C178.709 117.766 178.528 117.804 178.35 117.843C177.053 118.125 175.833 118.479 174.667 118.892C174.666 118.892 174.666 118.893 174.666 118.893Z" fill="#8E98A8"/>
<path d="M110.824 75.7432C110.82 75.7356 110.817 75.7288 110.813 75.7221C110.813 75.7221 110.813 75.7221 110.813 75.7212C110.817 75.7288 110.82 75.7356 110.824 75.7432Z" fill="#EFC9C2"/>
<path d="M114.954 82.6389C114.947 82.6274 114.939 82.6159 114.93 82.6044C114.928 82.6005 114.925 82.5967 114.923 82.5928C114.92 82.588 114.917 82.5832 114.913 82.5784C113.804 80.9512 112.915 79.4508 110.824 75.7432C110.82 75.7356 110.817 75.7288 110.813 75.7212C111.149 75.6069 111.471 75.5532 111.778 75.5532C114.515 75.5532 116.019 79.8079 114.954 82.6389Z" fill="#B1B5BA" fill-opacity="0.22"/>
<path d="M170.95 132.214L173.416 123.367L173.895 121.655L170.95 132.214Z" fill="#C89186"/>
<path d="M137.965 135.78L138.724 132.512C158.224 131.045 167.613 127.259 173.895 121.655L173.416 123.367L170.95 132.214L155.785 134.543C154.957 134.67 154.138 134.854 153.331 135.092C151.798 135.544 150.364 135.704 149.038 135.704C146.337 135.704 144.082 135.04 142.344 134.818C142.065 134.781 141.786 134.764 141.508 134.764C140.262 134.764 139.033 135.119 137.965 135.78Z" fill="#8E98A8"/>
<path d="M105.172 63.0664C103.529 58.7061 102.574 55.4718 102.321 54.7317L109.712 50.1563C109.994 54.3198 106.699 60.2536 105.172 63.0664Z" fill="#ECECEC"/>
<path d="M151.919 92.1257C152.35 93.6579 153.278 94.9961 154.494 95.9628C155.715 96.9267 157.186 97.5612 158.721 97.8358C160.255 98.1142 161.852 98.0412 163.365 97.6361C164.124 97.4374 164.861 97.1484 165.556 96.775C166.261 96.4169 166.916 95.9638 167.544 95.4636L167.762 95.6969C167.198 96.2998 166.543 96.8201 165.841 97.2713C165.131 97.7081 164.366 98.0624 163.568 98.3225C161.967 98.839 160.234 98.9427 158.574 98.6374C156.919 98.3292 155.316 97.6188 154.048 96.4918C153.417 95.9302 152.864 95.2784 152.442 94.5478C152.029 93.8144 151.73 93.0166 151.605 92.1939L151.919 92.1257Z" fill="#E9EBF8"/>
<path d="M169.873 76.4852L168.649 86.0526C168.193 89.6266 165.097 92.2791 161.492 92.1812C157.629 92.0785 154.651 88.9057 154.651 85.1761C154.651 84.8123 154.679 84.4398 154.736 84.0673L154.957 82.6676L155.822 77.21L160.688 76.9604L169.873 76.4852Z" fill="#D9D9D9"/>
<path d="M152.828 60.723C152.965 59.3128 153.625 57.6318 154.377 56.1074C155.816 53.1938 158.6 51.171 161.817 50.7074C166.65 50.0104 172.9 50.6901 176.303 55.3288C180.14 60.5589 176.952 71.0162 172.838 71.908C168.724 72.7998 152.828 60.723 152.828 60.723Z" fill="#102048"/>
<path d="M165.428 78.942C163.786 80.4972 160.001 84.1365 154.736 84.0674L155.822 77.2101L160.689 76.9605L165.428 78.942Z" fill="#F5F5F5"/>
<path d="M172.434 63.1894L171.701 67.0006L171.52 67.9338L170.798 71.6835L170.385 73.833L169.873 76.4854L167.37 77.9878C167.37 77.9878 166.686 78.4467 165.428 78.9421L165.425 78.9459C163.527 79.6995 160.328 80.5347 156.223 79.9942C155.936 79.9578 155.666 79.8915 155.413 79.8013C153.479 79.1427 152.487 77.1075 152.053 74.5741C151.733 72.7117 151.709 70.5786 151.827 68.5194C152.012 65.289 152.549 62.24 152.827 60.7251C157.133 56.8803 163.011 56.1805 167.37 55.329L172.434 63.1894Z" fill="#D9D9D9"/>
<path d="M152.828 60.7232C159.687 55.3289 168.925 60.7942 168.925 60.7942C168.925 60.7942 167.513 69.2902 170.244 68.5884C172.975 67.8876 175.746 62.2073 175.746 62.2073L169.495 53.2016L155.821 55.5555L152.828 60.7232Z" fill="#102048"/>
<path d="M169.891 68.8677C171.234 66.5099 173.85 65.7534 175.256 67.5419C176.661 69.3304 176.716 74.9579 169.801 73.7426L169.891 68.8677Z" fill="#D9D9D9"/>
<path d="M158.393 67.0052C157.948 68.2072 157.259 69.2776 156.81 70.4046C156.758 70.5409 156.691 70.6974 156.659 70.8174C156.622 70.9364 156.603 71.0526 156.623 71.1409C156.627 71.236 156.681 71.3022 156.747 71.38C156.83 71.4491 156.932 71.5172 157.062 71.5662C157.578 71.764 158.217 71.8129 158.838 71.8744L158.845 72.1144C158.215 72.1979 157.567 72.2728 156.88 72.074C156.709 72.0289 156.535 71.9387 156.37 71.8129C156.217 71.6756 156.064 71.4769 156.034 71.2532C155.988 71.0334 156.024 70.828 156.074 70.6475C156.124 70.4651 156.179 70.3297 156.243 70.1742C156.748 68.9646 157.497 67.946 158.178 66.8977L158.393 67.0052Z" fill="#F5F5F5"/>
<path d="M155.781 73.8856L160.24 73.9787C160.24 73.9787 157.768 77.3291 155.952 74.211L155.781 73.8856Z" fill="white"/>
<path d="M170.959 70.6658C170.961 70.2818 171.029 69.8959 171.167 69.5225C171.303 69.151 171.52 68.789 171.842 68.503C172.159 68.2169 172.607 68.0354 173.045 68.0575C173.485 68.071 173.873 68.2678 174.165 68.526L174.045 68.7343C173.697 68.6287 173.363 68.5586 173.056 68.5961C172.752 68.6326 172.48 68.7602 172.244 68.9628C172.006 69.1644 171.812 69.4409 171.644 69.7404C171.477 70.0428 171.34 70.3711 171.194 70.7119L170.959 70.6658Z" fill="#F5F5F5"/>
<path d="M165.402 75.1394C163.667 75.1394 162.262 73.734 162.262 72.0012C162.262 70.2674 163.667 68.8629 165.402 68.8629C167.136 68.8629 168.543 70.2674 168.543 72.0012C168.543 73.734 167.136 75.1394 165.402 75.1394Z" fill="#B1B5BA" fill-opacity="0.22"/>
<path d="M152.053 74.574C151.846 73.3663 151.763 72.0444 151.762 70.7033C151.762 69.9765 151.786 69.2431 151.827 68.5193C153.22 68.8428 154.257 70.0869 154.257 71.5769C154.257 72.9813 153.327 74.1727 152.053 74.574Z" fill="#B1B5BA" fill-opacity="0.22"/>
<path d="M91.0712 58.5199C91.0712 58.5199 100.013 62.8927 98.3549 70.1494L92.4421 71.8035L91.0712 58.5199Z" fill="#102048"/>
<path d="M91.0712 58.5198C92.0319 57.5752 96.9514 52.1416 96.7804 45.3515C96.6498 40.2021 98.9342 42.5282 99.2282 46.0811C99.2282 46.0811 100.485 38.8139 103.949 39.5502L102.932 40.9432C102.932 40.9432 104.245 38.4818 105.304 39.1403C106.365 39.7989 105.404 41.9051 105.404 41.9051C105.404 41.9051 105.899 40.0792 106.808 39.94C107.717 39.8008 108.55 42.6606 106.518 50.1256C106.518 50.1256 108.72 47.9435 109.59 47.5758C110.46 47.2072 110.402 52.9182 104.228 58.996C98.0562 65.0738 93.689 69.7739 93.689 69.7739L91.0712 58.5198Z" fill="#D9D9D9"/>
<path d="M55.0444 88.2923C55.2614 88.6274 91.0712 58.5199 91.0712 58.5199L98.3549 70.1493L61.8038 113.161L55.0444 88.2923Z" fill="#ABABAB"/>
<path d="M104.012 39.5993C103.586 40.2569 103.191 40.9404 102.828 41.6355C102.47 42.3334 102.131 43.0409 101.849 43.7705C101.549 44.4934 101.309 45.2383 101.109 45.9939L100.962 46.5612L100.849 47.1372C100.752 47.5183 100.732 47.91 100.658 48.2988L100.498 48.2902C100.508 47.4934 100.581 46.6908 100.76 45.9103C100.937 45.1299 101.17 44.3599 101.472 43.6198C101.781 42.8825 102.119 42.1567 102.525 41.4684C102.929 40.7791 103.37 40.1148 103.885 39.5014L104.012 39.5993Z" fill="#F5F5F5"/>
<path d="M105.482 41.9254C105.363 42.5743 105.223 43.2185 105.079 43.8607C104.94 44.5049 104.774 45.1423 104.627 45.7836L104.139 47.6969C103.968 48.3324 103.797 48.9679 103.606 49.5996L103.449 49.566C103.535 48.9094 103.661 48.2614 103.791 47.6143C103.928 46.9692 104.078 46.327 104.233 45.6866C104.402 45.0492 104.558 44.4089 104.743 43.7762C104.925 43.1417 105.112 42.51 105.327 41.8841L105.482 41.9254Z" fill="#F5F5F5"/>
<path d="M107.654 40.2348C107.888 42.4735 107.786 44.7324 107.454 46.9596C107.364 47.5145 107.268 48.0703 107.133 48.6185C107.07 48.894 107.002 49.1676 106.923 49.4383L106.866 49.6428L106.84 49.7378C106.844 49.7282 106.842 49.7052 106.833 49.6908C106.82 49.6601 106.766 49.6514 106.74 49.6716L106.883 49.5449C107.303 49.1733 107.726 48.8057 108.156 48.4437L108.807 47.9071C108.922 47.8159 109.017 47.7381 109.154 47.6383C109.346 47.5068 109.623 47.5298 109.793 47.694C109.878 47.765 109.935 47.9061 109.944 47.982L109.986 48.1999C110.001 48.3449 110.026 48.4908 110.028 48.6367C110.037 48.7817 110.041 48.9276 110.033 49.0716C110.03 49.2175 110.024 49.3615 110.005 49.5045C109.954 50.0796 109.819 50.6393 109.646 51.1817C109.293 52.2665 108.783 53.286 108.188 54.246C107.59 55.2031 106.909 56.1017 106.194 56.9685C105.833 57.3996 105.447 57.8076 105.075 58.2281L103.9 59.4329L103.786 59.3205L104.91 58.0793C105.263 57.6482 105.631 57.2287 105.973 56.789C106.663 55.9154 107.318 55.014 107.886 54.0617C108.444 53.1055 108.947 52.1138 109.275 51.0655C109.437 50.5433 109.563 50.0076 109.607 49.4671C109.624 49.3327 109.628 49.1973 109.63 49.0629C109.637 48.9276 109.631 48.7941 109.624 48.6607C109.621 48.5263 109.597 48.3957 109.582 48.2633L109.545 48.0693C109.533 48.0069 109.53 48.0127 109.512 47.9897C109.479 47.9561 109.416 47.9484 109.376 47.9772L109.058 48.221L108.41 48.7471C107.982 49.1033 107.558 49.4671 107.137 49.8348L106.965 49.9826C106.825 50.0949 106.59 50.0441 106.506 49.8914C106.459 49.8175 106.449 49.7186 106.471 49.6428L106.5 49.5353L106.557 49.3356C106.636 49.0697 106.706 48.8018 106.769 48.5321C106.901 47.9935 107.01 47.4492 107.11 46.9029C107.299 45.8076 107.42 44.6997 107.487 43.5881C107.554 42.4783 107.579 41.3599 107.495 40.2511L107.654 40.2348Z" fill="#F5F5F5"/>
<path d="M40.5841 114.435C40.5841 114.435 28.2118 109.558 23.1593 118.889C16.8062 130.621 26.3521 144.407 26.3521 144.407H43.1448L40.5841 114.435Z" fill="#7336C3" fill-opacity="0.28"/>
<path d="M28.4723 118.282C28.1569 118.608 27.888 118.977 27.6464 119.361C27.4028 119.744 27.2015 120.154 27.0186 120.57C26.656 121.405 26.3796 122.278 26.1881 123.169C25.802 124.953 25.6786 126.789 25.7643 128.612C25.8439 130.438 26.1508 132.251 26.6068 134.022C27.0723 135.793 27.7191 137.515 28.4882 139.186L28.345 139.257C28.1354 138.846 27.9139 138.439 27.7263 138.016C27.6307 137.805 27.5269 137.598 27.4378 137.385L27.1663 136.745C26.8261 135.883 26.5197 135.008 26.2616 134.117C25.7594 132.331 25.4364 130.489 25.3571 128.632C25.2765 126.776 25.4102 124.902 25.8512 123.091C26.0695 122.187 26.3689 121.299 26.7663 120.455C26.9703 120.036 27.1929 119.624 27.4588 119.239C27.7209 118.852 28.0166 118.486 28.3609 118.167L28.4723 118.282Z" fill="#102048"/>
<path d="M72.4977 73.5181C76.5556 75.993 79.3597 74.5213 80.1792 71.8506C80.9986 69.1808 83.994 59.12 71.4737 60.7424C71.4737 60.7424 56.1303 54.56 49.6376 63.681C43.9099 71.7267 49.1652 77.289 40.4133 83.96C34.3107 88.6122 27.3924 96.7856 41.1161 110.764L56.0003 106.666L72.4977 73.5181Z" fill="#102048"/>
<path d="M67.875 85.1839C68.1786 86.599 71.4621 90.2642 72.7754 91.6399C76.7477 95.7958 77.6238 103.594 66.2996 105.977L59.9285 91.1465L67.875 85.1839Z" fill="#102048"/>
<path d="M68.4399 87.0385L67.1007 93.1989L65.02 102.786L53.4057 100.335L56.1382 81.532L67.9817 86.8331L68.4399 87.0385Z" fill="#D9D9D9"/>
<path d="M75.5863 74.8571C75.5863 74.8571 78.938 78.6126 78.8199 79.5678C78.7017 80.5239 75.5863 82.2366 75.5863 82.2366V74.8571Z" fill="#D9D9D9"/>
<path d="M68.4399 87.0387L67.1007 93.199C63.528 91.3001 60.923 86.5999 60.923 86.5999L67.9817 86.8332L68.4399 87.0387Z" fill="#F5F5F5"/>
<path d="M76.3711 83.403C75.9004 86.9723 74.7121 89.715 72.1721 89.9608C65.1506 90.6404 55.0444 82.7809 55.0444 82.7809L55.5893 68.3867L63.2254 63.6788L75.5844 65.9713C75.7323 67.5966 76.4903 72.5665 76.6132 77.5652C76.6622 79.5793 76.6084 81.5972 76.3711 83.403Z" fill="#D9D9D9"/>
<path d="M77.5268 68.3868L76.0032 69.5599C68.0595 63.366 69.7061 72.2882 68.9683 75.1461C68.2315 78.0031 64.4666 77.2504 61.5293 75.4034L61.005 79.4037L52.1768 79.6821L51.6647 68.502L60.4682 61.6245L76.765 64.8012L77.5268 68.3868Z" fill="#102048"/>
<path d="M66.1218 109.9C70.4583 107.575 69.2286 101.508 67.5407 99.4313C65.8528 97.3549 58.6801 93.871 57.8102 87.3334C57.3263 83.6969 61.0049 79.4038 61.0049 79.4038L53.5423 75.4025L45.8954 87.4169L51.6647 108.05L66.1218 109.9Z" fill="#102048"/>
<path d="M71.5246 143.201L35.1268 143.226C33.5374 119.936 39.3463 108.027 44.3688 102.177C47.5313 98.4963 52.3079 96.6752 57.1255 97.2646C61.3163 97.7801 64.9537 99.7702 68.6407 108.441L51.4107 116.448L62.4713 135.909C63.5819 137.867 65.1919 139.496 67.1334 140.634L71.5246 143.201Z" fill="#ABABAB"/>
<path d="M51.4107 116.448C51.4107 116.448 56.8265 138.111 58.8337 140.961C60.9235 143.929 65.41 143.183 73.2288 143.201L63.3513 121.209L51.4107 116.448Z" fill="#D0D1D4"/>
<path d="M95.5988 137.312L94.0329 143.068L73.2288 143.201H71.5246L67.1334 140.634C65.1919 139.496 63.5818 137.867 62.4713 135.909L51.4107 116.448L68.6407 108.441C70.4928 112.784 72.3527 118.81 74.298 127.161C74.5603 128.287 75.3432 129.229 76.4038 129.692L95.5988 137.312Z" fill="#ABABAB"/>
<path d="M63.3513 76.9865C62.7259 73.518 58.6076 73.0591 57.8907 75.4025C57.1738 77.7458 57.3487 81.7721 62.5203 81.533L63.3513 76.9865Z" fill="#D9D9D9"/>
<path d="M61.6986 77.259L61.054 76.5237C60.8399 76.2942 60.6181 76.0734 60.3872 75.9419C60.1519 75.8104 59.9654 75.773 59.749 75.8882C59.5272 76.0014 59.3148 76.2414 59.0948 76.4872L58.8799 76.3797C58.9715 76.0427 59.1212 75.6952 59.4574 75.435C59.6183 75.2997 59.8572 75.2267 60.0861 75.2248C60.3161 75.2363 60.5291 75.3083 60.6973 75.4158C61.0406 75.6261 61.2763 75.9083 61.4689 76.203C61.6604 76.4987 61.8092 76.8117 61.9089 77.1429L61.6986 77.259Z" fill="#F5F5F5"/>
<path d="M76.1905 84.5417C76.2597 84.1731 76.3202 83.7929 76.3711 83.4032C76.4451 82.8425 76.5008 82.2627 76.5412 81.6675C76.544 81.6665 76.5469 81.6646 76.5488 81.6627C76.4835 82.7081 76.3711 83.72 76.1905 84.5417Z" fill="#8986BC"/>
<path d="M76.5412 81.6675C76.5844 81.0396 76.6103 80.3964 76.6219 79.7456C76.6123 80.3744 76.5892 81.0252 76.5489 81.6627C76.5469 81.6646 76.5441 81.6665 76.5412 81.6675Z" fill="#E48569"/>
<path d="M76.1761 84.5464C75.8918 84.5464 72.711 83.5777 72.711 80.5269C72.711 78.8689 74.1635 77.4549 75.8226 77.4549C76.0964 77.4549 76.3634 77.4913 76.6132 77.5653C76.6132 77.572 76.6132 77.5777 76.6132 77.5845C76.6286 78.2257 76.6353 78.9688 76.6219 79.7454C76.6103 80.3963 76.5844 81.0395 76.5412 81.6673C76.5008 82.2625 76.4451 82.8424 76.3711 83.403C76.3202 83.7928 76.2597 84.1729 76.1905 84.5416C76.1896 84.5425 76.1896 84.5435 76.1896 84.5454C76.1857 84.5464 76.1819 84.5464 76.1761 84.5464Z" fill="#CFCFCF" fill-opacity="0.97"/>
<path d="M136.19 143.423H92.8907L101.07 108.218H144.369L136.19 143.423Z" fill="#D0D1D4"/>
<path d="M136.19 143.423H92.8907C113.603 140.01 131.993 136.838 144.369 108.218L137.965 135.78C137.939 135.796 137.913 135.812 137.887 135.829C135.49 137.36 132.045 139.251 129.845 140.971C128.85 141.744 129.538 143.308 130.21 143.308L136.22 143.288L136.19 143.423Z" fill="#3A3A3C"/>
<path d="M121.025 126.824C120.366 128.395 118.758 129.219 117.437 128.665C116.113 128.11 115.576 126.388 116.235 124.816C116.894 123.246 118.501 122.421 119.824 122.976C121.147 123.53 121.685 125.253 121.025 126.824Z" fill="white"/>
<path d="M189.856 117.386L189.725 120.964L189.136 137V137.02C189.087 138.232 188.767 139.403 188.222 140.459C187.676 141.507 186.898 142.44 185.932 143.181H167.891L130.211 143.308C129.538 143.308 128.85 141.744 129.845 140.971C132.045 139.251 135.49 137.36 137.887 135.829C139.21 134.986 140.787 134.617 142.344 134.818C144.937 135.149 148.677 136.463 153.331 135.092C154.138 134.854 154.957 134.67 155.785 134.543L170.95 132.214L176.919 131.298L177.087 121.194L177.141 118.136C177.71 117.984 178.292 117.849 178.89 117.73C182.024 117.108 185.599 116.916 189.856 117.386Z" fill="#D9D9D9"/>
<path d="M189.725 120.964C187.673 120.244 180.157 118.099 177.62 118.099C177.431 118.099 177.27 118.11 177.141 118.136C177.71 117.984 178.292 117.849 178.89 117.73C180.832 117.345 182.943 117.124 185.28 117.124C186.717 117.124 188.237 117.208 189.856 117.386L189.725 120.964Z" fill="#D9D9D9"/>
<path d="M185.932 143.181H180.45C181.268 138.69 184.291 136.837 187.478 136.837C188.029 136.837 188.584 136.892 189.136 137V137.02C189.087 138.231 188.767 139.403 188.222 140.459C187.676 141.507 186.898 142.44 185.932 143.181Z" fill="#B1B5BA" fill-opacity="0.22"/>
<path d="M174.628 131.529C175.268 131.271 175.941 131.052 176.639 130.971C177.333 130.863 178.043 130.867 178.741 130.942C179.441 131.016 180.129 131.179 180.786 131.426C181.445 131.668 182.066 131.993 182.627 132.425L182.495 132.624C181.892 132.344 181.253 132.122 180.617 131.939C179.979 131.756 179.328 131.622 178.671 131.55C178.016 131.472 177.353 131.447 176.691 131.492C176.026 131.519 175.369 131.637 174.702 131.757L174.628 131.529Z" fill="#F5F5F5"/>
<path d="M219.5 148.058H0.840973V143.217H219.5V148.058Z" fill="#BAB1E2" fill-opacity="0.87"/>
<path d="M0.840973 143.514H219.5V142.938H0.840973V143.514Z" fill="#102048"/>
<path d="M33.5633 57.8795C31.8852 48.8305 23.1844 42.8545 14.1296 44.5316C5.07469 46.2088 -0.905332 54.9035 0.77285 63.9515C2.45093 73.0004 11.1517 78.9764 20.2065 77.2993C22.4726 76.8798 24.5461 76.0206 26.3551 74.8264L32.1235 77.3396L29.3478 72.2948C32.8339 68.5624 34.5658 63.2843 33.5633 57.8795Z" fill="#5E46C9" fill-opacity="0.32"/>
<path d="M10.9277 66.7317V61.6619L10.6318 61.8088C10.3278 61.9595 9.99887 62.0363 9.65418 62.0363C8.43097 62.0363 7.43582 61.0418 7.43582 59.8187C7.43582 58.5947 8.43097 57.5992 9.65418 57.5992C9.99743 57.5992 10.3267 57.6751 10.6331 57.8248L10.9277 57.9678V52.9038H15.3213C15.2523 53.139 15.2174 53.3829 15.2174 53.6334C15.2174 55.083 16.3976 56.2619 17.8482 56.2619C19.2988 56.2619 20.4788 55.083 20.4788 53.6334C20.4788 53.3829 20.444 53.139 20.3749 52.9038H24.7686V57.3342C24.4947 57.2382 24.2053 57.1902 23.9048 57.1902C22.4542 57.1902 21.2741 58.3691 21.2741 59.8187C21.2741 61.2674 22.4542 62.4453 23.9048 62.4453C24.1989 62.4453 24.4925 62.3944 24.7686 62.2984V66.7317H10.9277Z" fill="white"/>
<path d="M24.9735 52.6985H20.0843C20.2072 52.9875 20.274 53.3024 20.274 53.6336C20.274 54.9708 19.1866 56.0576 17.8481 56.0576C16.5096 56.0576 15.4223 54.9708 15.4223 53.6336C15.4223 53.3024 15.489 52.9875 15.6119 52.6985H10.7228V57.6406C10.3995 57.4832 10.0389 57.3949 9.65416 57.3949C8.31567 57.3949 7.23099 58.4787 7.23099 59.8189C7.23099 61.1571 8.31567 62.2409 9.65416 62.2409C10.0389 62.2409 10.3995 62.1526 10.7228 61.9923V66.9373H24.9735V61.9894C24.6528 62.1497 24.2895 62.2409 23.9048 62.2409C22.5636 62.2409 21.479 61.1571 21.479 59.8189C21.479 58.4787 22.5636 57.3949 23.9048 57.3949C24.2895 57.3949 24.6528 57.4832 24.9735 57.6435V52.6985ZM24.5637 53.1085V57.0617C24.351 57.0109 24.1308 56.9859 23.9048 56.9859C22.3412 56.9859 21.0692 58.2569 21.0692 59.8189C21.0692 61.3798 22.3412 62.6499 23.9048 62.6499C24.1267 62.6499 24.3486 62.624 24.5637 62.5712V66.5273H11.1324V61.9923V61.3328L10.5409 61.6256C10.2654 61.7619 9.96705 61.831 9.65416 61.831C8.54393 61.831 7.64062 60.9286 7.64062 59.8189C7.64062 58.7081 8.54393 57.8048 9.65416 57.8048C9.966 57.8048 10.2651 57.8729 10.5433 58.0083L11.1324 58.2953V57.6406V53.1085H15.0615C15.029 53.2803 15.0126 53.455 15.0126 53.6336C15.0126 55.1955 16.2846 56.4665 17.8481 56.4665C19.4116 56.4665 20.6836 55.1955 20.6836 53.6336C20.6836 53.455 20.6672 53.2803 20.6346 53.1085H24.5637Z" fill="#8CBFBE"/>
<path d="M192.19 58.0802C192.745 48.8949 200.647 41.8975 209.84 42.4523C219.031 43.0072 226.034 50.9042 225.478 60.0904C224.923 69.2757 217.021 76.2731 207.828 75.7183C205.528 75.5791 203.365 74.98 201.423 74.0162L196.006 77.2178L198.142 71.8706C194.224 68.5941 191.858 63.5675 192.19 58.0802Z" fill="#CCC4EE" fill-opacity="0.57"/>
<path d="M211.672 66.1116C211.238 65.2044 210.324 64.6245 209.309 64.6245C208.293 64.6245 207.381 65.2044 206.95 66.1116H202.377V61.0457L202.1 61.1849C201.793 61.3375 201.463 61.4153 201.117 61.4153C199.885 61.4153 198.883 60.4149 198.883 59.1861C198.883 57.9554 199.885 56.9541 201.117 56.9541C201.466 56.9541 201.797 57.03 202.1 57.1817L202.377 57.3209V52.2578H207.292L207.203 52.0015C207.119 51.7653 207.077 51.5167 207.077 51.2642C207.077 50.0335 208.078 49.0322 209.309 49.0322C210.54 49.0322 211.542 50.0335 211.542 51.2642C211.542 51.5167 211.5 51.7653 211.416 52.0015L211.327 52.2578H216.242V66.1116H211.672Z" fill="white"/>
<path d="M209.309 48.8401C207.969 48.8401 206.885 49.9268 206.885 51.2641C206.885 51.5444 206.933 51.8142 207.021 52.0657H202.185V57.0097C201.865 56.8494 201.501 56.762 201.117 56.762C199.776 56.762 198.691 57.8459 198.691 59.186C198.691 60.5233 199.776 61.6071 201.117 61.6071C201.501 61.6071 201.865 61.5169 202.185 61.3566V66.3035H207.075C207.438 65.4308 208.301 64.8164 209.309 64.8164C210.318 64.8164 211.181 65.4308 211.547 66.3035H216.434V52.0657H211.598C211.686 51.8142 211.734 51.5444 211.734 51.2641C211.734 49.9268 210.65 48.8401 209.309 48.8401ZM209.309 49.2241C210.434 49.2241 211.35 50.1399 211.35 51.2641C211.35 51.4955 211.312 51.722 211.236 51.938L211.056 52.4497H211.598H216.05V65.9195H211.79C211.305 65.0084 210.357 64.4324 209.309 64.4324C208.26 64.4324 207.314 65.0084 206.831 65.9195H202.57V61.3566V60.7355L202.013 61.0129C201.735 61.1521 201.432 61.2231 201.117 61.2231C199.991 61.2231 199.076 60.3092 199.076 59.186C199.076 58.0609 199.991 57.146 201.117 57.146C201.436 57.146 201.738 57.2151 202.013 57.3534L202.57 57.6308V57.0097V52.4497H207.021H207.563L207.383 51.938C207.308 51.722 207.269 51.4955 207.269 51.2641C207.269 50.1399 208.184 49.2241 209.309 49.2241Z" fill="#ABABAB"/>
<path d="M107.147 29.0613V28.6014C107.147 27.125 107.803 25.7378 108.877 24.652C109.859 23.6603 110.458 22.3384 110.458 20.884C110.458 17.8043 107.775 15.3074 104.467 15.3074C104.367 15.3074 104.267 15.3093 104.165 15.3141C101.109 15.4533 98.6076 17.7986 98.4798 20.644C98.4078 22.2318 99.0514 23.6786 100.134 24.7307C101.282 25.8472 101.987 27.2939 101.987 28.8395V29.0613C98.0158 27.9746 95.0954 24.0107 95.0954 19.6965C95.0954 14.525 99.2906 10.3326 104.467 10.3326C109.642 10.3326 113.837 14.525 113.837 19.6965C113.837 23.8984 110.962 27.8757 107.147 29.0613Z" fill="#F5F5F5"/>
<path d="M104.056 7.93359H104.876V0.941457H104.056V7.93359Z" fill="#BAB1E2" fill-opacity="0.53"/>
<path d="M98.1474 9.59067L92.0145 5.0153L91.5246 5.67194L97.6575 10.2463" fill="#BAB1E2" fill-opacity="0.53"/>
<path d="M111.275 10.2463L117.408 5.67194L116.918 5.0153L110.785 9.59067" fill="#BAB1E2" fill-opacity="0.53"/>
<path d="M101.51 8.47511L100.23 5.19479L99.4664 5.49239L100.746 8.77271" fill="#BAB1E2" fill-opacity="0.53"/>
<path d="M108.186 8.77271L109.466 5.49239L108.702 5.19479L107.424 8.47511" fill="#BAB1E2" fill-opacity="0.53"/>
<path d="M110.458 20.884C110.458 17.7112 107.612 15.1566 104.165 15.3141C101.109 15.4533 98.6076 17.7986 98.4798 20.644C98.4078 22.2318 99.0514 23.6786 100.134 24.7307C101.282 25.8472 101.987 27.2939 101.987 28.8395V29.0613H107.147V28.6014C107.147 27.125 107.803 25.7378 108.877 24.652C109.859 23.6603 110.458 22.3384 110.458 20.884Z" fill="#BAB1E2" fill-opacity="0.53"/>
<path d="M104.467 33.6406C103.041 33.6406 101.886 32.4857 101.886 31.0621V30.9353H107.046V31.0621C107.046 32.4857 105.891 33.6406 104.467 33.6406Z" fill="#BAB1E2" fill-opacity="0.53"/>
<path d="M102.544 21.4783C101.761 21.4783 101.127 20.8447 101.127 20.0623C101.127 19.2808 101.761 18.6472 102.544 18.6472C103.326 18.6472 103.961 19.2808 103.961 20.0623C103.961 20.8447 103.326 21.4783 102.544 21.4783Z" fill="#F5F5F5"/>
<path d="M156.214 35.1018V31.9309H154.7C154.504 31.0391 154.146 30.2077 153.658 29.4685L154.744 28.3837L152.501 26.1421L151.388 27.2528C150.652 26.7939 149.83 26.4589 148.951 26.2813V24.6733H145.778V26.337C144.933 26.5386 144.143 26.8842 143.437 27.3488L142.229 26.1421L139.985 28.3837L141.22 29.6173C140.782 30.3191 140.458 31.0986 140.275 31.9309H138.515V35.1018H140.275C140.458 35.9341 140.782 36.7136 141.22 37.4144L139.985 38.649L142.229 40.8906L143.437 39.6839C144.143 40.1485 144.933 40.4941 145.778 40.6957V42.3594H148.951V40.7514C149.83 40.5738 150.652 40.2387 151.388 39.7789L152.501 40.8906L154.744 38.649L153.658 37.5642C154.146 36.825 154.504 35.9936 154.7 35.1018H156.214Z" fill="#F0F0F0"/>
<path d="M152.316 33.5168C152.316 36.2489 150.1 38.4646 147.365 38.4646C144.63 38.4646 142.413 36.2489 142.413 33.5168C142.413 30.7836 144.63 28.568 147.365 28.568C150.1 28.568 152.316 30.7836 152.316 33.5168Z" fill="white"/>
<path d="M172.335 30.0981L173.047 27.9151L172.005 27.5752C172.07 26.9176 172.011 26.2648 171.842 25.6456L172.832 25.1436L171.792 23.0959L170.777 23.6114C170.373 23.1295 169.882 22.7138 169.317 22.3951L169.679 21.2872L167.495 20.5749L167.12 21.7202C166.493 21.6683 165.871 21.7298 165.28 21.8911L164.72 20.789L162.671 21.8287L163.244 22.9548C162.785 23.3397 162.386 23.8034 162.073 24.3352L160.861 23.9407L160.149 26.1237L161.36 26.5183C161.299 27.1327 161.347 27.7423 161.491 28.3231L160.363 28.8952L161.403 30.9429L162.506 30.3832C162.888 30.8613 163.354 31.277 163.891 31.6063L163.517 32.7516L165.701 33.4639L166.063 32.357C166.708 32.4319 167.35 32.3867 167.96 32.2351L168.476 33.2498L170.524 32.2101L170.021 31.2204C170.523 30.82 170.956 30.3285 171.291 29.7583L172.335 30.0981Z" fill="#F0F0F0"/>
<path d="M170.007 28.1321C169.393 30.0137 167.368 31.0409 165.485 30.4265C163.602 29.8121 162.573 27.7894 163.188 25.9068C163.803 24.0252 165.828 22.998 167.711 23.6124C169.594 24.2268 170.622 26.2495 170.007 28.1321Z" fill="white"/>
<path d="M71.1307 36.486L72.7302 34.3029L71.6879 33.5397C72.003 32.8264 72.1759 32.0738 72.2134 31.3192L73.5074 31.1196L73.0943 28.445L71.7686 28.6504C71.4929 27.9621 71.0961 27.3179 70.5803 26.7525L71.392 25.6447L69.2075 24.0463L68.3679 25.1925C67.6839 24.9045 66.9653 24.7451 66.2448 24.7087L66.0219 23.2696L63.3455 23.6824L63.5732 25.1541C62.9171 25.4162 62.3013 25.7896 61.7552 26.2706L60.5436 25.3836L58.9438 27.5666L60.1554 28.4536C59.8616 29.1189 59.6909 29.8188 59.6388 30.5224L58.1663 30.75L58.5797 33.4245L60.0203 33.2018C60.2719 33.8776 60.6411 34.5141 61.1221 35.0786L60.2823 36.2248L62.4665 37.8232L63.2783 36.7154C63.9728 37.037 64.7087 37.2203 65.4474 37.2751L65.6521 38.6008L68.3285 38.1871L68.1287 36.894C68.8367 36.63 69.5024 36.2383 70.0874 35.7228L71.1307 36.486Z" fill="#F0F0F0"/>
<path d="M69.2469 33.4303C67.8674 35.3119 65.2226 35.7208 63.3397 34.3423C61.4568 32.9647 61.0481 30.3208 62.4271 28.4392C63.8066 26.5576 66.4513 26.1496 68.3342 27.5272C70.2171 28.9058 70.6264 31.5487 69.2469 33.4303Z" fill="white"/>
<path d="M51.5635 31.7215L53.1559 30.5782L52.6097 29.8188C52.9869 29.3983 53.2756 28.9193 53.4712 28.4076L54.4072 28.5612L54.7239 26.6268L53.7648 26.4703C53.7301 25.9346 53.6015 25.4018 53.3735 24.8969L54.1816 24.317L53.037 22.7254L52.2011 23.3254C51.795 22.974 51.3361 22.7023 50.8481 22.5161L51.0187 21.4745L49.0833 21.1586L48.909 22.2223C48.3985 22.2559 47.8901 22.375 47.4061 22.5833L46.7713 21.7001L45.1789 22.8444L45.8136 23.7266C45.4617 24.1183 45.1868 24.5628 44.9926 25.0351L43.9276 24.8614L43.6108 26.7948L44.6527 26.9657C44.674 27.487 44.785 28.0082 44.9892 28.5055L44.1533 29.1055L45.2977 30.6972L46.1057 30.1164C46.5119 30.4937 46.9766 30.7855 47.4732 30.989L47.3162 31.9471L49.2514 32.2639L49.4047 31.3289C49.952 31.3058 50.4987 31.1858 51.0173 30.9622L51.5635 31.7215Z" fill="#F0F0F0"/>
<path d="M50.9537 29.1949C49.5811 30.1808 47.6684 29.8678 46.6818 28.496C45.6952 27.1242 46.0082 25.2128 47.381 24.2269C48.7538 23.241 50.6664 23.5539 51.653 24.9258C52.6396 26.2976 52.3265 28.209 50.9537 29.1949Z" fill="white"/>
</svg>
