<svg width="60" height="60" viewBox="0 0 60 60" fill="none" xmlns="http://www.w3.org/2000/svg">
<rect x="0.5" y="0.5" width="59" height="59" rx="29.5" fill="#F0F0F0"/>
<path d="M41.7266 22.7266C42.3203 23.3203 42.6914 24.1367 42.6914 24.9531V42.6914C42.6914 44.3984 41.207 45.8086 39.5 45.8086H20.5C18.7188 45.8086 17.3086 44.3984 17.3086 42.6914L17.3828 17.3086C17.3828 15.6016 18.793 14.1914 20.5 14.1914H31.8555C32.6719 14.1914 33.4883 14.4883 34.082 15.082L41.7266 22.7266ZM34.4531 34.75C35.1211 34.75 35.4922 33.8594 34.9727 33.4141L30.5938 28.9609C30.2969 28.6641 29.7773 28.6641 29.4805 28.9609L25.0273 33.4141C24.5078 33.8594 24.8789 34.75 25.5469 34.75H28.4414V39.5C28.4414 40.3906 29.1094 41.0586 30 41.0586C30.8906 41.0586 31.5586 40.3906 31.5586 39.5V34.75H34.4531ZM33.1914 25.25H40.3164L31.5586 16.5664V23.6914C31.5586 24.5078 32.3008 25.25 33.1914 25.25Z" fill="#BFBFBF"/>
<rect x="0.5" y="0.5" width="59" height="59" rx="29.5" stroke="#A492F4" stroke-dasharray="4 4"/>
</svg>
