<svg width="60" height="60" viewBox="0 0 60 60" fill="none" xmlns="http://www.w3.org/2000/svg">
<rect x="0.5" y="0.5" width="59" height="59" rx="29.5" fill="white"/>
<g clip-path="url(#clip0_900_544)">
<path d="M28.7656 10.0196C28.6969 10.026 28.4875 10.0484 28.3 10.0645C26.6062 10.2343 24.9031 10.8754 23.4375 11.8946C20.0344 14.26 18.2531 18.3978 18.8437 22.5709C19.2094 25.1414 20.4281 27.4362 22.3719 29.2215C23.7906 30.5228 25.675 31.4555 27.5781 31.792C28.2656 31.917 28.5687 31.9395 29.4375 31.9395C30.3062 31.9395 30.6094 31.917 31.2969 31.792C35.1031 31.1157 38.3281 28.2792 39.5687 24.5196C40.6719 21.1766 40.1594 17.5324 38.1875 14.6638C36.4125 12.0869 33.6969 10.4395 30.6094 10.0645C30.3219 10.0292 28.9906 9.99714 28.7656 10.0196Z" fill="#D9D9D9"/>
<path d="M36.8281 31.1345C35.3343 32.298 33.4374 33.1409 31.5562 33.4743C30.7843 33.6121 30.4687 33.6377 29.4374 33.6377C28.4406 33.6377 28.2999 33.6281 27.5249 33.5063C25.6937 33.2243 23.8656 32.4614 22.3124 31.3396L21.9562 31.08L21.6249 31.1345C21.4437 31.1666 21.0593 31.2563 20.7656 31.33C18.2437 31.9839 15.9906 33.3044 14.1406 35.2082C11.8718 37.5416 10.4843 40.5127 10.0874 43.8749C9.99682 44.6377 9.98744 46.2499 10.0718 46.8557C10.2374 48.0672 10.5156 48.7435 11.0718 49.2852C11.6062 49.8076 12.3874 50.0352 13.4843 49.9903C14.3249 49.955 15.1499 49.814 17.3281 49.3236C19.8812 48.7499 21.0624 48.5416 22.6093 48.3909C23.2499 48.33 36.7499 48.33 37.3906 48.3909C38.9374 48.5416 40.1187 48.7499 42.6718 49.3236C44.8499 49.814 45.6749 49.955 46.5156 49.9903C47.3093 50.0223 47.8843 49.923 48.4062 49.6602C48.9437 49.3909 49.3906 48.8461 49.6249 48.1762C49.8562 47.5255 49.9624 46.83 49.9906 45.8172C50.0968 41.8749 48.5812 37.9999 45.8281 35.1762C43.6187 32.9102 40.8031 31.4711 37.7124 31.0287C37.0687 30.9358 37.0843 30.9326 36.8281 31.1345Z" fill="#D9D9D9"/>
</g>
<rect x="0.5" y="0.5" width="59" height="59" rx="29.5" stroke="#A492F4"/>
<defs>
<clipPath id="clip0_900_544">
<rect width="40" height="40" fill="white" transform="translate(10 10)"/>
</clipPath>
</defs>
</svg>
