<svg width="24" height="24" viewBox="0 0 24 24" fill="none" xmlns="http://www.w3.org/2000/svg">
<g clip-path="url(#clip0_1659_9545)">
<path d="M11.2595 0.011651C11.2182 0.0154972 11.0926 0.0289593 10.9801 0.0385742C9.96384 0.140497 8.94196 0.525113 8.06259 1.13665C6.02071 2.55588 4.95196 5.03857 5.30634 7.54242C5.52571 9.08473 6.25696 10.4617 7.42321 11.5328C8.27446 12.3136 9.40509 12.8732 10.547 13.0751C10.9595 13.1501 11.1413 13.1636 11.6626 13.1636C12.1838 13.1636 12.3657 13.1501 12.7782 13.0751C15.062 12.6693 16.997 10.9674 17.7413 8.71165C18.4032 6.70588 18.0957 4.51934 16.9126 2.79819C15.8476 1.25204 14.2182 0.263575 12.3657 0.0385742C12.1932 0.0174208 11.3945 -0.00181007 11.2595 0.011651Z" fill="#D9D9D9"/>
<path d="M16.0969 12.6809C15.2007 13.3789 14.0626 13.8847 12.9338 14.0847C12.4707 14.1674 12.2813 14.1828 11.6626 14.1828C11.0644 14.1828 10.9801 14.177 10.5151 14.1039C9.41631 13.9347 8.31944 13.477 7.38756 12.8039L7.17381 12.6482L6.97506 12.6809C6.86631 12.7001 6.63569 12.7539 6.45944 12.7982C4.94631 13.1905 3.59444 13.9828 2.48444 15.1251C1.12319 16.5251 0.290689 18.3078 0.0525638 20.3251C-0.00181116 20.7828 -0.00743616 21.7501 0.0431888 22.1135C0.142564 22.8405 0.309439 23.2462 0.643189 23.5712C0.963814 23.8847 1.43256 24.0212 2.09069 23.9943C2.59506 23.9732 3.09006 23.8885 4.39694 23.5943C5.92881 23.2501 6.63756 23.1251 7.56569 23.0347C7.95006 22.9982 16.0501 22.9982 16.4344 23.0347C17.3626 23.1251 18.0713 23.2501 19.6032 23.5943C20.9101 23.8885 21.4051 23.9732 21.9094 23.9943C22.3857 24.0135 22.7307 23.9539 23.0438 23.7962C23.3663 23.6347 23.6344 23.3078 23.7751 22.9059C23.9138 22.5155 23.9776 22.0982 23.9944 21.4905C24.0582 19.1251 23.1488 16.8001 21.4969 15.1059C20.1713 13.7462 18.4819 12.8828 16.6276 12.6174C16.2413 12.5616 16.2507 12.5597 16.0969 12.6809Z" fill="#D9D9D9"/>
</g>
<defs>
<clipPath id="clip0_1659_9545">
<rect width="24" height="24" fill="white"/>
</clipPath>
</defs>
</svg>
