<svg width="40" height="40" viewBox="0 0 40 40" fill="none" xmlns="http://www.w3.org/2000/svg">
<path d="M36.2251 0H3.77492C1.69009 0 0 1.69009 0 3.77492V36.2251C0 38.3099 1.69009 40 3.77492 40H36.2251C38.3099 40 40 38.3099 40 36.2251V3.77492C40 1.69009 38.3099 0 36.2251 0Z" fill="#5E46C9"/>
<path d="M32.7899 19.9976C32.7899 20.61 32.547 21.1974 32.1144 21.6309C31.6818 22.0644 31.0949 22.3085 30.4825 22.3098H20.0212C19.408 22.3098 18.8199 22.0662 18.3863 21.6326C17.9527 21.199 17.7091 20.6109 17.7091 19.9976C17.7091 19.3844 17.9527 18.7963 18.3863 18.3627C18.8199 17.9291 19.408 17.6855 20.0212 17.6855H27.8542C27.2975 15.8016 26.0808 14.1812 24.427 13.121C22.7731 12.0609 20.7927 11.6319 18.8484 11.9127C16.9041 12.1935 15.126 13.1652 13.8396 14.65C12.5533 16.1347 11.8448 18.0332 11.8438 19.9976C11.8238 21.0637 12.0164 22.1231 12.4106 23.1138C12.8047 24.1045 13.3924 25.0068 14.1393 25.7677C14.8862 26.5287 15.7773 27.1331 16.7605 27.5456C17.7437 27.9582 18.7993 28.1705 19.8655 28.1704C20.4787 28.1704 21.0669 28.4139 21.5005 28.8476C21.9341 29.2812 22.1777 29.8693 22.1777 30.4825C22.1777 31.0957 21.9341 31.6838 21.5005 32.1174C21.0669 32.551 20.4787 32.7946 19.8655 32.7946C18.1948 32.7897 16.5416 32.4541 15.0012 31.807C13.4609 31.16 12.0639 30.2143 10.8908 29.0246C9.71782 27.8349 8.79197 26.4247 8.16671 24.8754C7.54146 23.3261 7.22917 21.6683 7.24786 19.9976C7.24786 18.3177 7.57875 16.6543 8.22162 15.1023C8.86449 13.5502 9.80676 12.14 10.9946 10.9522C12.1825 9.76428 13.5927 8.82201 15.1447 8.17914C16.6968 7.53627 18.3602 7.20538 20.0401 7.20538C21.72 7.20538 23.3835 7.53627 24.9355 8.17914C26.4875 8.82201 27.8977 9.76428 29.0856 10.9522C30.2735 12.14 31.2158 13.5502 31.8586 15.1023C32.5015 16.6543 32.8324 18.3177 32.8324 19.9976H32.7899Z" fill="#F1EEFD"/>
</svg>
