<svg width="110" height="108" viewBox="0 0 110 108" fill="none" xmlns="http://www.w3.org/2000/svg">
<g clip-path="url(#clip0_1979_18857)">
<path d="M69.8326 24.2895H40.1924C39.517 24.2903 38.8694 24.5606 38.3918 25.041C37.9142 25.5214 37.6455 26.1727 37.6447 26.8521V93.112L37.305 93.2162L30.0338 95.4559C29.6892 95.5616 29.3169 95.5255 28.9988 95.3554C28.6807 95.1853 28.4427 94.8952 28.337 94.5488L6.70846 23.4882C6.6032 23.1416 6.63908 22.7672 6.8082 22.4471C6.97732 22.1271 7.26584 21.8877 7.61037 21.7816L18.8153 18.3306L51.2988 8.3297L62.5037 4.87874C62.6742 4.82596 62.8534 4.80751 63.031 4.82446C63.2086 4.84141 63.3812 4.89343 63.5388 4.97753C63.6964 5.06163 63.8359 5.17616 63.9495 5.31458C64.063 5.453 64.1483 5.61258 64.2005 5.78419L69.729 23.9478L69.8326 24.2895Z" fill="#F2F2F2"/>
<path d="M76.3003 23.9477L69.6372 2.05641C69.5263 1.69166 69.3451 1.35246 69.1039 1.05818C68.8626 0.763908 68.5661 0.520331 68.2312 0.34137C67.8964 0.162409 67.5297 0.0515694 67.1522 0.0151894C66.7748 -0.0211906 66.3939 0.017602 66.0313 0.129346L50.2779 4.97947L17.7961 14.9821L2.04266 19.8339C1.31084 20.06 0.698076 20.5688 0.33887 21.2488C-0.0203354 21.9288 -0.0966357 22.7243 0.12672 23.4608L22.9 98.2764C23.0815 98.8709 23.4476 99.3913 23.9446 99.7612C24.4417 100.131 25.0435 100.331 25.6618 100.332C25.948 100.332 26.2325 100.289 26.5059 100.203L37.3049 96.879L37.6446 96.773V96.416L37.3049 96.5202L26.4057 99.8772C25.7597 100.075 25.062 100.008 24.4657 99.6888C23.8693 99.3702 23.4229 98.8266 23.2244 98.1773L0.452899 23.3601C0.354572 23.0383 0.320303 22.7003 0.352052 22.3652C0.383801 22.0302 0.480942 21.7047 0.637919 21.4075C0.794896 21.1103 1.00863 20.8471 1.26686 20.6331C1.5251 20.4191 1.82277 20.2584 2.14284 20.1602L17.8963 15.3084L50.3781 5.30748L66.1316 0.455652C66.3743 0.381132 66.6267 0.343136 66.8806 0.342898C67.4253 0.344128 67.9553 0.520768 68.393 0.846946C68.8307 1.17312 69.153 1.6317 69.3128 2.1555L75.9454 23.9477L76.0507 24.2894H76.404L76.3003 23.9477Z" fill="#3F3D56"/>
<path d="M20.8372 21.8376C20.5098 21.8373 20.1912 21.7316 19.9279 21.5358C19.6647 21.3401 19.4708 21.0646 19.3746 20.7499L17.1869 13.5624C17.1281 13.3693 17.1077 13.1665 17.1268 12.9655C17.146 12.7645 17.2043 12.5692 17.2985 12.3909C17.3927 12.2126 17.5209 12.0547 17.6757 11.9262C17.8306 11.7977 18.0091 11.7012 18.2011 11.6421L48.084 2.44006C48.4717 2.32107 48.8905 2.36166 49.2484 2.55289C49.6063 2.74413 49.8742 3.0704 49.9933 3.46009L52.181 10.6477C52.2992 11.0376 52.2588 11.4588 52.0687 11.8188C51.8786 12.1788 51.5543 12.4482 51.1669 12.568L21.2838 21.7701C21.1391 21.8147 20.9886 21.8375 20.8372 21.8376Z" fill="#5E46C9"/>
<path d="M32.2974 7.67927C34.1735 7.67927 35.6943 6.14952 35.6943 4.26248C35.6943 2.37545 34.1735 0.845703 32.2974 0.845703C30.4213 0.845703 28.9004 2.37545 28.9004 4.26248C28.9004 6.14952 30.4213 7.67927 32.2974 7.67927Z" fill="#5E46C9"/>
<path d="M32.2973 6.42683C33.4853 6.42683 34.4484 5.45815 34.4484 4.26322C34.4484 3.06829 33.4853 2.09961 32.2973 2.09961C31.1093 2.09961 30.1462 3.06829 30.1462 4.26322C30.1462 5.45815 31.1093 6.42683 32.2973 6.42683Z" fill="white"/>
<path d="M102.357 99.4574H44.9481C44.5653 99.4569 44.1984 99.3038 43.9277 99.0316C43.6571 98.7593 43.5048 98.3902 43.5044 98.0052V28.8154C43.5048 28.4304 43.6571 28.0613 43.9277 27.7891C44.1984 27.5168 44.5653 27.3637 44.9481 27.3633H102.357C102.74 27.3637 103.107 27.5169 103.377 27.7891C103.648 28.0613 103.8 28.4304 103.801 28.8154V98.0052C103.8 98.3902 103.648 98.7593 103.377 99.0315C103.107 99.3038 102.74 99.4569 102.357 99.4574Z" fill="#E6E6E6"/>
<path d="M75.9454 23.9473H40.1924C39.4269 23.9484 38.6931 24.2547 38.1518 24.7991C37.6106 25.3435 37.306 26.0816 37.3049 26.8515V96.5197L37.6446 96.4155V26.8515C37.6455 26.1721 37.9141 25.5208 38.3917 25.0404C38.8694 24.56 39.5169 24.2898 40.1924 24.2889H76.0508L75.9454 23.9473ZM107.113 23.9473H40.1924C39.4269 23.9484 38.6931 24.2547 38.1518 24.7991C37.6106 25.3435 37.306 26.0816 37.3049 26.8515V105.096C37.306 105.866 37.6106 106.604 38.1518 107.148C38.6931 107.693 39.4269 107.999 40.1924 108H107.113C107.878 107.999 108.612 107.693 109.153 107.148C109.694 106.604 109.999 105.866 110 105.096V26.8515C109.999 26.0816 109.694 25.3435 109.153 24.7991C108.612 24.2547 107.878 23.9484 107.113 23.9473ZM109.66 105.096C109.66 105.775 109.391 106.427 108.913 106.907C108.436 107.387 107.788 107.658 107.113 107.658H40.1924C39.5169 107.658 38.8694 107.387 38.3917 106.907C37.9141 106.427 37.6455 105.775 37.6446 105.096V26.8515C37.6455 26.1721 37.9141 25.5208 38.3917 25.0404C38.8694 24.56 39.5169 24.2898 40.1924 24.2889H107.113C107.788 24.2898 108.436 24.56 108.913 25.0404C109.391 25.5208 109.66 26.1721 109.66 26.8515V105.096Z" fill="#3F3D56"/>
<path d="M89.2785 31.4631H58.0264C57.6212 31.4627 57.2326 31.3005 56.946 31.0123C56.6595 30.724 56.4983 30.3332 56.4978 29.9256V22.4086C56.4983 22.001 56.6595 21.6102 56.946 21.3219C57.2326 21.0337 57.6212 20.8716 58.0264 20.8711H89.2785C89.6838 20.8716 90.0724 21.0337 90.3589 21.3219C90.6455 21.6102 90.8067 22.001 90.8072 22.4086V29.9256C90.8067 30.3332 90.6455 30.724 90.359 31.0123C90.0724 31.3005 89.6838 31.4627 89.2785 31.4631Z" fill="#5E46C9"/>
<path d="M73.6523 21.3843C75.5284 21.3843 77.0493 19.8546 77.0493 17.9676C77.0493 16.0805 75.5284 14.5508 73.6523 14.5508C71.7762 14.5508 70.2554 16.0805 70.2554 17.9676C70.2554 19.8546 71.7762 21.3843 73.6523 21.3843Z" fill="#5E46C9"/>
<path d="M73.6523 20.049C74.795 20.049 75.7214 19.1172 75.7214 17.9679C75.7214 16.8185 74.795 15.8867 73.6523 15.8867C72.5096 15.8867 71.5833 16.8185 71.5833 17.9679C71.5833 19.1172 72.5096 20.049 73.6523 20.049Z" fill="white"/>
</g>
<defs>
<clipPath id="clip0_1979_18857">
<rect width="110" height="108" fill="white"/>
</clipPath>
</defs>
</svg>
