<svg width="288" height="161" viewBox="0 0 288 161" fill="none" xmlns="http://www.w3.org/2000/svg">
<g clip-path="url(#clip0_91_11189)">
<mask id="mask0_91_11189" style="mask-type:luminance" maskUnits="userSpaceOnUse" x="0" y="0" width="288" height="174">
<path d="M0 0.499969H288V173.084H0V0.499969Z" fill="white"/>
</mask>
<g mask="url(#mask0_91_11189)">
<path d="M73.6272 143.714H193.737C201.546 139.668 208.639 134.569 214.839 128.28C234.324 108.513 241.485 75.0914 231.484 50.3052L230.562 48.5189C223.156 34.1758 207.631 24.2574 189.9 23.0941C187.408 22.9309 184.902 22.9364 182.409 23.1214C165.783 24.3533 150.204 33.5058 142.468 46.5856C137.918 54.2784 135.678 63.4688 128.272 69.1524C118.633 76.5497 104.181 75.2087 91.555 73.4535C78.9287 71.6984 64.463 70.3888 54.8607 77.8237C48.8469 82.48 46.1385 89.7514 45.5986 96.8225C44.1893 115.27 56.3345 133.278 73.6272 143.714Z" fill="#E1E1E1"/>
</g>
<mask id="mask1_91_11189" style="mask-type:luminance" maskUnits="userSpaceOnUse" x="0" y="0" width="288" height="174">
<path d="M0 0.499969H288V173.084H0V0.499969Z" fill="white"/>
</mask>
<g mask="url(#mask1_91_11189)">
<path d="M234.056 113.631C232.489 112.747 230.694 112.192 228.853 112.022C228.003 111.943 227.075 111.965 226.393 112.428C226.248 112.527 226.107 112.672 226.14 112.832C226.163 112.95 226.274 113.036 226.38 113.108C228.497 114.56 231.698 114.743 234.056 113.631Z" fill="#5E46C9" fill-opacity="0.23"/>
<path d="M233.922 113.499C232.745 112.672 231.56 111.841 230.562 110.842C229.565 109.842 228.754 108.656 228.456 107.34C228.365 106.941 228.337 106.485 228.622 106.168C231.3 108.048 233.404 110.48 233.922 113.499Z" fill="#5E46C9" fill-opacity="0.23"/>
<path d="M234.028 113.613C233.826 112.296 233.754 110.942 234.09 109.648C234.427 108.353 235.21 107.114 236.44 106.375C236.903 107.348 236.704 108.468 236.378 109.484C235.874 111.055 235.084 112.551 234.048 113.894" fill="#5E46C9" fill-opacity="0.23"/>
<path d="M236.653 117.842C235.06 118.016 233.672 118.771 232.482 119.74C231.292 120.709 230.446 122.014 230.095 123.422C231.658 123.335 232.985 122.344 233.947 121.233C234.908 120.122 235.575 118.903 236.631 117.863" fill="#5E46C9" fill-opacity="0.23"/>
<path d="M237.224 118.518C235.94 115.676 236.405 112.25 238.412 109.769C239.32 112.672 238.987 115.952 237.224 118.518Z" fill="#5E46C9" fill-opacity="0.23"/>
<path d="M240.693 122.231C239.246 122.151 237.776 122.46 236.52 123.11C235.264 123.76 234.227 124.747 233.579 125.912C233.49 126.071 233.413 126.272 233.531 126.414C233.633 126.537 233.832 126.548 234.002 126.538C235.404 126.457 236.647 125.699 237.673 124.835C238.698 123.972 239.591 122.974 240.724 122.227" fill="#5E46C9" fill-opacity="0.23"/>
<path d="M240.582 122.029C239.836 119.883 239.79 117.544 240.45 115.376C240.71 114.519 241.149 113.618 242.029 113.216C242.105 113.182 242.192 113.151 242.271 113.178C242.346 113.204 242.389 113.273 242.424 113.337C242.737 113.926 242.829 114.594 242.796 115.246C242.764 115.898 242.614 116.54 242.463 117.178C242.186 118.359 242.038 119.628 241.318 120.647C241.147 120.888 240.996 121.15 240.86 121.409C240.723 121.667 240.722 121.759 240.597 121.964" fill="#5E46C9" fill-opacity="0.23"/>
<path d="M249.765 123.259C249.085 120.933 249.807 118.112 251.437 116.205C251.557 116.065 251.717 115.915 251.913 115.931C252.213 115.956 252.291 116.316 252.278 116.586C252.159 118.964 251.277 121.306 249.765 123.259Z" fill="#5E46C9" fill-opacity="0.23"/>
<path d="M250.593 123.767C253.737 124.503 257.344 123.788 259.959 122.055C258.409 121.349 256.582 121.148 254.889 121.496C253.195 121.844 251.647 122.526 250.593 123.767Z" fill="#5E46C9" fill-opacity="0.23"/>
<path d="M251.291 122.219C253.052 119.638 256.428 117.954 259.791 117.8C259.404 119.03 258.279 119.986 257.011 120.563C255.743 121.141 254.327 121.392 252.931 121.636C252.388 121.731 251.643 121.835 251.291 122.219Z" fill="#5E46C9" fill-opacity="0.23"/>
<path d="M249.94 114.703C250.417 113.234 250.896 111.753 251.027 110.228C251.158 108.703 250.916 107.111 250.036 105.802C248.391 108.662 248.224 112.005 249.89 114.856" fill="#5E46C9" fill-opacity="0.23"/>
<path d="M255.478 112.187C257.401 109.045 261.326 106.535 265.296 106.182C263.765 109.611 259.587 112.261 255.478 112.187Z" fill="#5E46C9" fill-opacity="0.23"/>
<path d="M254.267 112.803C257.136 113.196 259.58 114.842 262.261 115.841C262.835 116.054 263.453 116.224 264.068 116.152C264.683 116.079 265.291 115.708 265.428 115.165C265.543 114.713 265.314 114.234 264.954 113.903C264.593 113.572 264.117 113.365 263.641 113.187C260.721 112.094 257.59 112.067 254.514 112.729" fill="#5E46C9" fill-opacity="0.23"/>
<path d="M252.607 114.611C253.257 114.779 253.479 115.081 253.993 115.474C255.738 116.81 257.831 117.777 260.055 118.273C260.286 118.325 260.59 118.345 260.705 118.157C260.805 117.993 260.678 117.795 260.548 117.648C259.616 116.6 258.287 115.883 256.888 115.415C255.489 114.947 254.277 114.382 252.607 114.503" fill="#5E46C9" fill-opacity="0.23"/>
<path d="M250.734 103.688C253.067 105.645 256.353 106.65 259.529 106.378C259.673 106.366 259.831 106.345 259.929 106.249C260.151 106.032 259.885 105.698 259.627 105.517C257.041 103.705 253.91 102.954 250.734 103.688Z" fill="#5E46C9" fill-opacity="0.23"/>
<path d="M252.955 102.957C256.038 100.88 260.267 100.252 263.93 101.33C262.547 102.554 260.63 103.213 258.7 103.394C256.77 103.574 254.837 103.382 252.955 102.957Z" fill="#5E46C9" fill-opacity="0.23"/>
<path d="M252.073 97.9385C251.818 95.6183 251.984 93.7871 251.804 91.4566C251.79 91.2702 251.745 91.0462 251.552 90.9792C251.282 90.8856 251.057 91.1839 250.968 91.431C250.2 93.5797 250.62 96.0442 252.068 97.8874" fill="#5E46C9" fill-opacity="0.23"/>
<path d="M251.887 98.1946C253.636 97.2222 254.949 95.9524 256.162 94.4599C257.006 93.4209 257.718 92.1766 257.526 90.9022C256.341 90.8808 255.214 91.469 254.443 92.2787C253.671 93.0885 253.213 94.1012 252.87 95.1219C252.528 96.1426 252.288 97.1915 251.887 98.1946Z" fill="#5E46C9" fill-opacity="0.23"/>
<path d="M256.087 97.1455C259.926 95.8694 263.508 93.971 266.608 91.569C265.352 91.1137 263.913 91.386 262.656 91.8423C259.786 92.8837 257.44 94.642 256.032 97.1203" fill="#5E46C9" fill-opacity="0.23"/>
<path d="M253.068 99.4637C255.01 99.6546 256.983 99.7789 258.91 99.4893C260.804 99.2048 262.594 98.53 264.364 97.8604C264.511 97.8048 264.67 97.7386 264.735 97.6074C264.804 97.4655 264.73 97.2923 264.602 97.188C264.473 97.0838 264.303 97.0341 264.137 96.9923C262.212 96.508 260.136 96.7348 258.243 97.3088C256.35 97.8825 254.797 98.5645 253.068 99.4637Z" fill="#5E46C9" fill-opacity="0.23"/>
<path d="M241.978 103.767C240.652 101.363 240.738 98.5575 241.883 96.0795C242.689 97.183 242.787 98.5885 242.64 99.9019C242.493 101.215 242.048 102.567 242.019 103.887" fill="#5E46C9" fill-opacity="0.23"/>
<path d="M236.684 101.367C233.376 101.311 230.066 102.578 227.819 104.762C229.471 104.995 231.171 104.612 232.674 103.953C234.175 103.294 235.51 102.369 236.833 101.45" fill="#5E46C9" fill-opacity="0.23"/>
<path d="M233.125 100.298C231.506 100.18 229.949 99.9998 228.393 100.428C226.837 100.857 225.421 101.83 224.786 103.177C226.3 103.331 227.835 102.99 229.222 102.424C230.61 101.859 231.872 101.076 233.125 100.298Z" fill="#5E46C9" fill-opacity="0.23"/>
<path d="M238.394 100.347C236.938 99.489 235.443 98.6157 233.748 98.2606C232.052 97.9054 230.088 98.168 228.906 99.3164C230.278 100.04 231.943 100.126 233.535 100.124C235.125 100.124 237.076 100.108 238.576 100.584" fill="#5E46C9" fill-opacity="0.23"/>
<path d="M238.403 100.416C235.914 98.219 234.971 94.272 235.972 91.268C237.928 93.9403 238.804 97.2374 238.403 100.416Z" fill="#5E46C9" fill-opacity="0.23"/>
<path d="M245.248 94.1908C245.717 93.2095 246.047 92.1802 246.469 91.1812C246.89 90.183 247.413 89.2003 248.209 88.4071C249.005 87.6143 250.105 87.024 251.292 86.9712C250.549 89.9946 248.315 92.6955 245.309 94.2063" fill="#5E46C9" fill-opacity="0.23"/>
<path d="M244.009 95.4878C243.233 94.5265 242.335 93.2221 241.281 92.5042C240.227 91.7869 238.856 91.353 237.57 91.6281C238.878 93.7295 241.348 95.2103 244.009 95.4878Z" fill="#5E46C9" fill-opacity="0.23"/>
<path d="M244.257 94.2706C243.748 93.1074 243.235 91.9321 243.029 90.6961C242.823 89.4597 242.948 88.1394 243.651 87.0615C245.018 89.3831 245.458 91.8755 244.327 94.2969" fill="#5E46C9" fill-opacity="0.23"/>
<path d="M245.26 87.0615C246.034 84.7599 248.379 83.0652 250.91 82.2875C251.229 82.1895 251.567 82.108 251.901 82.1543C252.234 82.2005 252.561 82.4055 252.63 82.702C252.723 83.0935 252.363 83.4445 252.025 83.7044C250.053 85.2194 247.736 86.3691 245.26 87.0615Z" fill="#5E46C9" fill-opacity="0.23"/>
<path d="M245.288 85.1793C245.387 83.6954 245.489 82.1897 246.027 80.7839C246.563 79.3777 247.599 78.0588 249.104 77.4433C249.36 78.9421 248.624 80.4332 247.737 81.7231C246.85 83.0126 245.78 84.23 245.248 85.6687" fill="#5E46C9" fill-opacity="0.23"/>
<path d="M245.248 86.2004C244.608 84.5233 244.542 82.3925 243.424 80.9314C242.643 79.9097 241.393 79.2139 240.719 78.1321C240.272 79.1428 240.409 80.307 240.877 81.3101C241.345 82.3128 242.117 83.1761 242.944 83.97C243.771 84.7635 244.479 85.3606 245.248 86.2004Z" fill="#5E46C9" fill-opacity="0.23"/>
<path d="M245.26 135.597C245.21 135.597 245.167 124.408 245.164 110.608C245.161 96.8031 245.198 85.6162 245.248 85.6162C245.298 85.6162 245.341 96.8031 245.344 110.608C245.348 124.408 245.31 135.597 245.26 135.597Z" fill="#1A2E35"/>
<path d="M256.138 102.079C256.142 102.09 255.975 102.145 255.67 102.237C255.334 102.339 254.902 102.47 254.383 102.627C253.296 102.96 251.805 103.442 250.185 104.038C248.582 104.656 247.07 105.159 246.209 105.829C245.778 106.16 245.532 106.518 245.41 106.779C245.286 107.042 245.264 107.203 245.248 107.2C245.242 107.199 245.244 107.159 245.253 107.083C245.267 107.007 245.289 106.894 245.345 106.756C245.449 106.481 245.689 106.098 246.124 105.743C246.557 105.389 247.159 105.07 247.85 104.78C248.54 104.49 249.305 104.188 250.117 103.889C251.741 103.291 253.245 102.824 254.343 102.519C254.892 102.365 255.34 102.252 255.65 102.177C255.961 102.104 256.135 102.068 256.138 102.079Z" fill="#1A2E35"/>
<path d="M259.704 94.2064C259.708 94.2109 259.663 94.254 259.573 94.3324C259.467 94.4218 259.335 94.5333 259.174 94.6696C258.803 94.9727 258.298 95.3848 257.682 95.887C256.395 96.9177 254.648 98.3153 252.719 99.8596C250.782 101.41 249.107 102.891 247.947 104.006C247.366 104.563 246.909 105.025 246.596 105.347C246.45 105.496 246.331 105.619 246.235 105.717C246.152 105.801 246.106 105.843 246.101 105.84C246.096 105.836 246.133 105.787 246.207 105.696C246.283 105.606 246.392 105.473 246.543 105.306C246.839 104.971 247.283 104.497 247.854 103.929C248.993 102.791 250.658 101.292 252.599 99.7388C254.544 98.1924 256.313 96.8031 257.598 95.8014C258.229 95.3151 258.747 94.9157 259.127 94.6223C259.298 94.4953 259.437 94.3914 259.549 94.3079C259.647 94.2375 259.7 94.2023 259.704 94.2064Z" fill="#1A2E35"/>
<path d="M250.627 101.436C250.577 101.415 250.981 100.576 251.385 99.5134C251.792 98.4513 251.983 97.5546 252.035 97.5618C252.082 97.5663 251.967 98.489 251.555 99.5649C251.352 100.102 251.129 100.574 250.953 100.91C250.776 101.245 250.65 101.445 250.627 101.436Z" fill="#1A2E35"/>
<path d="M245.272 108.208C245.262 108.215 245.156 108.104 244.973 107.897C244.77 107.663 244.514 107.368 244.208 107.015C243.566 106.269 242.677 105.239 241.682 104.111C240.686 102.983 239.771 101.972 239.108 101.24C238.795 100.892 238.534 100.6 238.327 100.37C238.144 100.163 238.047 100.046 238.057 100.038C238.066 100.031 238.181 100.135 238.38 100.329C238.579 100.523 238.861 100.809 239.206 101.166C239.894 101.88 240.826 102.881 241.823 104.01C242.819 105.139 243.693 106.182 244.31 106.947C244.618 107.329 244.864 107.641 245.029 107.86C245.195 108.078 245.282 108.202 245.272 108.208Z" fill="#1A2E35"/>
<path d="M242.886 105.456C242.857 105.484 242.221 104.806 241.887 103.775C241.641 103.048 241.63 102.383 241.66 102.079L241.74 102.085C241.704 102.214 241.678 102.283 241.664 102.281C241.65 102.279 241.649 102.207 241.661 102.073L241.741 102.079C241.77 102.381 241.821 103.022 242.06 103.728C242.382 104.728 242.935 105.429 242.886 105.456Z" fill="#1A2E35"/>
<path d="M239.807 101.974C239.784 101.996 239.579 101.765 239.109 101.61C238.644 101.448 237.942 101.412 237.172 101.471C236.402 101.522 235.714 101.646 235.222 101.754C234.729 101.864 234.428 101.95 234.419 101.927C234.411 101.909 234.697 101.784 235.188 101.644C235.677 101.506 236.375 101.362 237.159 101.31C237.937 101.25 238.675 101.304 239.157 101.504C239.645 101.698 239.823 101.97 239.807 101.974Z" fill="#1A2E35"/>
<path d="M239.077 101.13C239.064 101.156 238.671 100.984 238.008 100.78C237.347 100.576 236.405 100.361 235.341 100.287C234.277 100.216 233.31 100.3 232.622 100.411C231.933 100.522 231.516 100.638 231.506 100.612C231.502 100.601 231.603 100.563 231.789 100.503C231.975 100.441 232.251 100.37 232.597 100.3C233.287 100.157 234.272 100.053 235.355 100.126C236.438 100.202 237.394 100.438 238.052 100.673C238.381 100.79 238.642 100.898 238.815 100.984C238.989 101.069 239.083 101.121 239.077 101.13Z" fill="#1A2E35"/>
<path d="M245.248 97.5619C245.2 97.573 244.851 96.4833 244.468 95.1281C244.086 93.7727 243.815 92.6654 243.863 92.6543C243.911 92.6433 244.26 93.733 244.643 95.0885C245.025 96.4436 245.296 97.5512 245.248 97.5619Z" fill="#1A2E35"/>
<path d="M245.297 97.562C245.244 97.5779 245.019 96.8496 244.433 96.1047C243.863 95.3446 243.135 94.9632 243.162 94.9253C243.171 94.9087 243.372 94.9746 243.652 95.1531C243.933 95.3284 244.281 95.627 244.581 96.0122C245.189 96.7871 245.341 97.5592 245.297 97.562Z" fill="#1A2E35"/>
<path d="M245.26 129.632C245.241 129.635 245.204 129.363 245.064 128.888C244.925 128.413 244.664 127.739 244.232 126.95C243.372 125.371 241.807 123.368 239.818 121.361C238.833 120.349 237.877 119.395 237.066 118.48C236.253 117.568 235.585 116.698 235.097 115.929C234.608 115.16 234.289 114.5 234.104 114.035C234.012 113.802 233.945 113.619 233.909 113.493C233.869 113.368 233.851 113.302 233.857 113.3C233.874 113.296 233.964 113.556 234.169 114.012C234.374 114.468 234.708 115.115 235.207 115.871C235.705 116.627 236.379 117.484 237.195 118.387C238.009 119.292 238.967 120.241 239.954 121.255C241.948 123.267 243.509 125.295 244.346 126.901C244.768 127.702 245.013 128.389 245.132 128.873C245.189 129.115 245.228 129.304 245.242 129.434C245.26 129.563 245.267 129.631 245.26 129.632Z" fill="#1A2E35"/>
<path d="M255.09 119.652C255.096 119.663 254.908 119.749 254.575 119.912C254.245 120.078 253.776 120.336 253.239 120.706C252.701 121.076 252.101 121.561 251.484 122.145C250.868 122.73 250.233 123.409 249.586 124.137C248.291 125.597 247.08 126.889 246.355 127.92C245.987 128.432 245.719 128.863 245.544 129.166C245.367 129.468 245.274 129.637 245.26 129.632C245.254 129.63 245.271 129.585 245.308 129.501C245.346 129.418 245.398 129.293 245.481 129.138C245.638 128.825 245.89 128.383 246.247 127.859C246.952 126.803 248.153 125.493 249.445 124.035C250.094 123.306 250.736 122.625 251.364 122.041C251.993 121.458 252.61 120.976 253.162 120.614C253.716 120.252 254.2 120.007 254.543 119.856C254.714 119.779 254.853 119.731 254.945 119.696C255.038 119.662 255.088 119.647 255.09 119.652Z" fill="#1A2E35"/>
<path d="M255.283 122.889C255.285 122.913 254.867 122.958 254.194 123.032C253.523 123.11 252.589 123.21 251.611 123.489C250.637 123.774 249.826 124.209 249.299 124.58C248.766 124.95 248.515 125.256 248.49 125.239C248.481 125.233 248.533 125.149 248.651 125.013C248.767 124.876 248.958 124.693 249.219 124.491C249.738 124.089 250.555 123.628 251.556 123.335C252.558 123.05 253.504 122.967 254.181 122.918C254.86 122.873 255.281 122.868 255.283 122.889Z" fill="#1A2E35"/>
<path d="M248.808 124.882C248.751 124.854 249.241 124.18 249.622 123.274C249.979 122.359 250.063 121.557 250.127 121.566C250.15 121.569 250.149 121.769 250.109 122.091C250.066 122.413 249.981 122.859 249.792 123.329C249.601 123.798 249.352 124.19 249.16 124.463C248.966 124.736 248.828 124.894 248.808 124.882Z" fill="#1A2E35"/>
<path d="M258.274 110.959C258.276 110.965 258.216 110.993 258.1 111.043C257.964 111.098 257.795 111.167 257.588 111.252C257.364 111.338 257.092 111.448 256.785 111.593C256.477 111.736 256.119 111.883 255.745 112.085C255.555 112.182 255.356 112.283 255.151 112.388C254.945 112.494 254.741 112.621 254.524 112.743C254.086 112.982 253.647 113.276 253.179 113.576C252.263 114.201 251.299 114.941 250.372 115.796C249.453 116.658 248.663 117.549 247.999 118.394C247.682 118.825 247.37 119.229 247.119 119.631C246.991 119.829 246.857 120.017 246.746 120.206C246.636 120.395 246.53 120.576 246.428 120.75C246.217 121.092 246.066 121.42 245.918 121.701C245.767 121.982 245.654 122.229 245.566 122.434C245.479 122.623 245.408 122.778 245.351 122.901C245.3 123.007 245.27 123.062 245.264 123.06C245.258 123.059 245.276 123 245.317 122.89C245.365 122.763 245.426 122.605 245.5 122.411C245.579 122.203 245.683 121.95 245.825 121.665C245.965 121.379 246.109 121.047 246.315 120.699C246.413 120.522 246.517 120.338 246.624 120.146C246.732 119.955 246.864 119.765 246.99 119.563C247.237 119.156 247.546 118.746 247.863 118.309C248.524 117.454 249.316 116.552 250.242 115.683C251.177 114.822 252.152 114.079 253.08 113.456C253.555 113.157 254 112.865 254.444 112.63C254.664 112.509 254.871 112.385 255.08 112.28C255.29 112.177 255.491 112.079 255.684 111.984C256.064 111.787 256.428 111.647 256.742 111.512C257.054 111.373 257.331 111.272 257.561 111.194C257.773 111.121 257.947 111.06 258.086 111.012C258.207 110.972 258.272 110.954 258.274 110.959Z" fill="#1A2E35"/>
<path d="M250.494 115.645C250.478 115.642 250.565 115.371 250.922 115.072C251.27 114.774 251.905 114.498 252.645 114.478C253.383 114.46 254.022 114.646 254.459 114.796C254.899 114.951 255.154 115.077 255.145 115.096C255.135 115.118 254.861 115.03 254.418 114.904C253.975 114.783 253.35 114.622 252.651 114.64C251.955 114.659 251.353 114.9 251.005 115.159C250.648 115.417 250.523 115.661 250.494 115.645Z" fill="#1A2E35"/>
<path d="M249.331 116.723C249.282 116.699 249.721 116.12 249.821 115.292C249.935 114.465 249.657 113.812 249.711 113.798C249.731 113.791 249.829 113.942 249.913 114.215C249.998 114.486 250.054 114.88 249.999 115.311C249.943 115.741 249.787 116.113 249.635 116.359C249.483 116.607 249.349 116.735 249.331 116.723Z" fill="#1A2E35"/>
<path d="M236.663 131.235C236.931 135.512 238.365 139.86 240.57 144.258H250.158C252.261 139.904 253.596 135.562 253.833 131.235H236.663Z" fill="#375A64"/>
<path d="M252.279 138.155C252.279 138.2 249.122 138.236 245.228 138.236C241.333 138.236 238.176 138.2 238.176 138.155C238.176 138.11 241.333 138.074 245.228 138.074C249.122 138.074 252.279 138.11 252.279 138.155Z" fill="#FAFAFA"/>
<path d="M252.064 139.704C252.064 139.749 249.105 139.785 245.455 139.785C241.803 139.785 238.844 139.749 238.844 139.704C238.844 139.659 241.803 139.623 245.455 139.623C249.105 139.623 252.064 139.659 252.064 139.704Z" fill="#FAFAFA"/>
</g>
<mask id="mask2_91_11189" style="mask-type:luminance" maskUnits="userSpaceOnUse" x="0" y="0" width="288" height="193">
<path d="M0 0.500015H288V193H0V0.500015Z" fill="white"/>
</mask>
<g mask="url(#mask2_91_11189)">
<path d="M209.603 158.573H73.1364C70.0467 158.573 67.5422 156.062 67.5422 152.965V66.2847C67.5422 63.1873 70.0467 60.6764 73.1364 60.6764H209.603C212.692 60.6764 215.197 63.1873 215.197 66.2847V152.965C215.197 156.062 212.692 158.573 209.603 158.573Z" fill="#375A64"/>
<path d="M214.91 160.817H68.6061C64.8318 160.817 61.7721 157.749 61.7721 153.964V152.251H221.744V153.964C221.744 157.749 218.684 160.817 214.91 160.817Z" fill="#375A64"/>
<path d="M210.821 147.238H71.5057V64.5658H210.821V147.238Z" fill="#1A2E35"/>
<path d="M126.814 151.332L128.799 154.498H156.732L158.576 151.332H126.814Z" fill="#1A2E35"/>
<path d="M206.981 146.974H75.6323C74.9381 146.974 74.3751 146.409 74.3751 145.714V68.625C74.3751 67.9289 74.9381 67.3649 75.632 67.3649H206.981C207.675 67.3649 208.238 67.9285 208.238 68.6246V145.714C208.238 146.41 207.675 146.974 206.981 146.974Z" fill="#ECECEC"/>
<path d="M208.094 147.09H74.2321L74.3753 73.3138H208.094V147.09Z" fill="#FAFAFA"/>
<path d="M85.3542 70.4391C85.3542 71.0313 84.8753 71.511 84.2851 71.511C83.6945 71.511 83.2161 71.0313 83.2161 70.4391C83.2161 69.847 83.6945 69.3673 84.2851 69.3673C84.8753 69.3673 85.3542 69.847 85.3542 70.4391Z" fill="#1A2E35"/>
<path d="M78.8747 70.4391C78.8747 71.0313 78.3962 71.511 77.8056 71.511C77.2154 71.511 76.7366 71.0313 76.7366 70.4391C76.7366 69.847 77.2154 69.3673 77.8056 69.3673C78.3962 69.3673 78.8747 69.847 78.8747 70.4391Z" fill="#1A2E35"/>
<path d="M81.985 70.4391C81.985 71.0313 81.5066 71.511 80.916 71.511C80.3254 71.511 79.8469 71.0313 79.8469 70.4391C79.8469 69.847 80.3254 69.3673 80.916 69.3673C81.5066 69.3673 81.985 69.847 81.985 70.4391Z" fill="#1A2E35"/>
<path d="M213.928 151.332C213.928 151.385 181.156 151.428 140.739 151.428C100.308 151.428 67.5426 151.385 67.5426 151.332C67.5426 151.279 100.308 151.236 140.739 151.236C181.156 151.236 213.928 151.279 213.928 151.332Z" fill="#1A2E35"/>
<path d="M117.241 102.134L171.701 101.624L173.296 138.744L116.902 138.337L117.241 102.134Z" fill="#5E46C9" fill-opacity="0.23"/>
<path d="M117.241 102.134L142.972 81.1691C144.062 80.2817 145.624 80.2833 146.711 81.1734L171.701 101.623" fill="#5E46C9" fill-opacity="0.23"/>
<mask id="mask3_91_11189" style="mask-type:luminance" maskUnits="userSpaceOnUse" x="117" y="80" width="55" height="23">
<path d="M117.241 80.5049H171.701V102.134H117.241V80.5049Z" fill="white"/>
</mask>
<g mask="url(#mask3_91_11189)">
<g opacity="0.300003">
<path d="M117.241 102.134L142.972 81.1691C144.062 80.2817 145.624 80.2833 146.711 81.1734L171.701 101.623" fill="black"/>
</g>
</g>
<path d="M116.902 138.337C116.834 138.274 121.184 133.492 126.617 127.658C132.052 121.823 136.512 117.145 136.58 117.208C136.648 117.272 132.298 122.053 126.864 127.889C121.431 133.723 116.97 138.401 116.902 138.337Z" fill="#1A2E35"/>
<path d="M173.296 138.744C173.226 138.806 168.971 134.138 163.792 128.32C158.611 122.499 154.469 117.732 154.538 117.67C154.608 117.608 158.863 122.275 164.043 128.095C169.222 133.913 173.366 138.682 173.296 138.744Z" fill="#1A2E35"/>
<mask id="mask4_91_11189" style="mask-type:luminance" maskUnits="userSpaceOnUse" x="117" y="101" width="55" height="23">
<path d="M117.241 101.624H171.701V123.584H117.241V101.624Z" fill="white"/>
</mask>
<g mask="url(#mask4_91_11189)">
<g opacity="0.5">
<path d="M171.701 101.623L144.399 123.584L117.241 102.133" fill="black"/>
</g>
</g>
<path d="M119.988 104.156L119.867 87.1029L167.554 86.438L168.128 104.38L144.396 123.298L119.988 104.156Z" fill="#FAFAFA"/>
<path d="M119.987 104.157C119.987 104.157 120.145 104.271 120.44 104.497C120.737 104.727 121.172 105.063 121.74 105.502C122.879 106.389 124.546 107.687 126.676 109.345C130.933 112.672 137.037 117.443 144.446 123.233L144.345 123.233C151.181 117.778 159.291 111.306 168.067 104.303L168.03 104.384C167.92 100.96 167.804 97.3699 167.687 93.7155C167.608 91.2557 167.531 88.8248 167.454 86.4413L167.555 86.5379C148.34 86.7916 131.388 87.0153 119.868 87.1674L119.931 87.1027C119.956 92.4642 119.975 96.7223 119.988 99.6453C119.991 101.104 119.994 102.229 119.996 102.995C119.995 103.373 119.994 103.661 119.994 103.86C119.992 104.055 119.987 104.157 119.987 104.157C119.987 104.157 119.981 104.06 119.977 103.868C119.974 103.67 119.969 103.384 119.963 103.01C119.954 102.246 119.94 101.124 119.923 99.6687C119.895 96.7404 119.854 92.4746 119.803 87.1035L119.802 87.0396L119.866 87.0388C131.386 86.8694 148.338 86.6207 167.552 86.3385L167.65 86.337L167.653 86.4351C167.73 88.8183 167.808 91.2492 167.887 93.7089C168.004 97.3634 168.118 100.954 168.227 104.377L168.229 104.427L168.19 104.458C159.406 111.452 151.289 117.915 144.447 123.362L144.396 123.403L144.345 123.363C136.946 117.54 130.849 112.742 126.597 109.397C124.482 107.726 122.827 106.419 121.696 105.526C121.138 105.081 120.71 104.741 120.418 104.508C120.13 104.278 119.987 104.157 119.987 104.157Z" fill="#1A2E35"/>
<path d="M160.035 95.0402C160.036 95.0956 152.743 95.2 143.748 95.2735C134.751 95.347 127.459 95.3617 127.459 95.3062C127.458 95.2508 134.749 95.1464 143.747 95.0729C152.741 94.9998 160.035 94.9847 160.035 95.0402Z" fill="#1A2E35"/>
<path d="M160.045 99.857C160.046 99.9129 152.753 100.017 143.758 100.09C134.761 100.164 127.469 100.179 127.469 100.123C127.468 100.068 134.759 99.9633 143.757 99.8902C152.751 99.8166 160.045 99.8016 160.045 99.857Z" fill="#1A2E35"/>
<path d="M160.057 105.409C160.057 105.465 152.764 105.569 143.77 105.643C134.773 105.717 127.481 105.731 127.48 105.675C127.48 105.62 134.771 105.516 143.768 105.442C152.763 105.369 160.056 105.354 160.057 105.409Z" fill="#1A2E35"/>
<path d="M160.068 110.962C160.069 111.017 153.111 111.119 144.53 111.189C135.946 111.259 128.989 111.271 128.989 111.216C128.988 111.161 135.945 111.059 144.528 110.988C153.109 110.918 160.068 110.906 160.068 110.962Z" fill="#1A2E35"/>
<path d="M153.979 115.848C153.979 115.855 153.913 115.862 153.788 115.87C153.64 115.876 153.459 115.884 153.24 115.893C152.734 115.905 152.053 115.922 151.226 115.943C149.496 115.975 147.161 116.017 144.579 116.064C141.983 116.113 139.632 116.128 137.93 116.127C137.103 116.121 136.422 116.116 135.915 116.113C135.696 116.108 135.515 116.103 135.367 116.099C135.242 116.094 135.176 116.088 135.176 116.081C135.176 116.074 135.242 116.066 135.367 116.059C135.515 116.052 135.696 116.045 135.914 116.035C136.421 116.023 137.101 116.006 137.929 115.985C139.658 115.953 141.994 115.911 144.576 115.864C147.171 115.815 149.523 115.8 151.224 115.802C152.052 115.807 152.733 115.812 153.239 115.815C153.459 115.821 153.639 115.825 153.788 115.829C153.913 115.835 153.979 115.84 153.979 115.848Z" fill="#1A2E35"/>
<path d="M147.85 120.544C147.85 120.6 146.294 120.648 144.377 120.652C142.458 120.656 140.904 120.614 140.904 120.559C140.903 120.504 142.458 120.456 144.377 120.452C146.294 120.448 147.849 120.489 147.85 120.544Z" fill="#1A2E35"/>
</g>
<mask id="mask5_91_11189" style="mask-type:luminance" maskUnits="userSpaceOnUse" x="0" y="27" width="288" height="160">
<path d="M0 27.5H288V187H0V27.5Z" fill="white"/>
</mask>
<g mask="url(#mask5_91_11189)">
<path d="M272.248 160.062C272.248 160.108 214.825 160.145 144.006 160.145C73.1628 160.145 15.7517 160.108 15.7517 160.062C15.7517 160.016 73.1628 159.979 144.006 159.979C214.825 159.979 272.248 160.016 272.248 160.062Z" fill="#1A2E35"/>
</g>
<mask id="mask6_91_11189" style="mask-type:luminance" maskUnits="userSpaceOnUse" x="0" y="0" width="288" height="144">
<path d="M0 0.500076H288V143.871H0V0.500076Z" fill="white"/>
</mask>
<g mask="url(#mask6_91_11189)">
<path d="M154.275 64.3931C154.33 64.3974 154.353 64.5606 154.327 64.7576C154.301 64.9543 154.235 65.1108 154.18 65.1071C154.125 65.1034 154.102 64.9402 154.128 64.7427C154.155 64.5454 154.22 64.3888 154.275 64.3931Z" fill="#1A2E35"/>
<path d="M154.787 61.6003C154.841 61.6071 154.822 61.9243 154.743 62.3082C154.665 62.6925 154.557 62.9993 154.502 62.9938C154.447 62.9884 154.467 62.6715 154.546 62.2859C154.624 61.9002 154.732 61.5934 154.787 61.6003Z" fill="#1A2E35"/>
<path d="M155.541 58.8384C155.595 58.8481 155.547 59.1635 155.434 59.5426C155.321 59.922 155.186 60.2227 155.132 60.2144C155.078 60.2064 155.125 59.8913 155.239 59.5102C155.352 59.1294 155.487 58.8286 155.541 58.8384Z" fill="#1A2E35"/>
<path d="M156.563 56.1249C156.616 56.1378 156.537 56.4495 156.386 56.8211C156.236 57.193 156.07 57.4852 156.017 57.4743C155.964 57.4631 156.043 57.1514 156.194 56.7778C156.346 56.4045 156.511 56.112 156.563 56.1249Z" fill="#1A2E35"/>
<path d="M157.882 53.4838C157.932 53.5002 157.818 53.8058 157.626 54.1663C157.433 54.5273 157.236 54.808 157.184 54.7939C157.132 54.7796 157.247 54.4739 157.44 54.1112C157.633 53.7485 157.831 53.4675 157.882 53.4838Z" fill="#1A2E35"/>
<path d="M159.517 50.9464C159.566 50.9662 159.413 51.2621 159.177 51.6074C158.94 51.9526 158.708 52.2178 158.658 52.2004C158.608 52.1826 158.761 51.8867 158.998 51.5391C159.237 51.1919 159.469 50.9266 159.517 50.9464Z" fill="#1A2E35"/>
<path d="M161.491 48.5438C161.537 48.5676 161.338 48.8477 161.049 49.1703C160.771 49.4986 160.507 49.7473 160.46 49.726C160.413 49.7045 160.602 49.4195 160.881 49.0889C161.172 48.764 161.446 48.5203 161.491 48.5438Z" fill="#1A2E35"/>
<path d="M163.817 46.3245C163.858 46.352 163.622 46.6161 163.291 46.9143C162.959 47.2128 162.654 47.4342 162.61 47.4086C162.567 47.3834 162.802 47.1193 163.137 46.8188C163.471 46.5183 163.776 46.2969 163.817 46.3245Z" fill="#1A2E35"/>
<path d="M166.477 44.326C166.514 44.357 166.238 44.5984 165.861 44.8648C165.484 45.1315 165.146 45.3242 165.107 45.2952C165.067 45.2665 165.343 45.0251 165.723 44.7564C166.103 44.4878 166.441 44.2951 166.477 44.326Z" fill="#1A2E35"/>
<path d="M169.448 42.5889C169.479 42.623 169.165 42.8366 168.746 43.0657C168.327 43.2948 167.96 43.4542 167.926 43.4218C167.891 43.3894 168.206 43.1761 168.628 42.945C169.05 42.7142 169.418 42.5547 169.448 42.5889Z" fill="#1A2E35"/>
<path d="M172.703 41.1616C172.726 41.1986 172.376 41.3784 171.92 41.563C171.463 41.7477 171.07 41.8687 171.042 41.8332C171.014 41.7979 171.364 41.6181 171.825 41.4317C172.285 41.2453 172.678 41.1246 172.703 41.1616Z" fill="#1A2E35"/>
<path d="M176.197 40.1006C176.214 40.1399 175.832 40.2792 175.344 40.4114C174.857 40.5436 174.445 40.6199 174.423 40.5817C174.402 40.5436 174.784 40.4045 175.276 40.2709C175.768 40.1373 176.181 40.0613 176.197 40.1006Z" fill="#1A2E35"/>
<path d="M179.871 39.462C179.879 39.5032 179.47 39.5864 178.959 39.6524C178.452 39.7324 178.03 39.7648 178.017 39.7249C178.004 39.6848 178.409 39.5867 178.922 39.5055C179.438 39.4387 179.864 39.4215 179.871 39.462Z" fill="#1A2E35"/>
<path d="M183.637 39.3066C183.635 39.3479 183.213 39.3849 182.695 39.3892C182.176 39.3938 181.753 39.3637 181.75 39.3227C181.746 39.2817 182.168 39.2444 182.692 39.2401C183.216 39.2355 183.639 39.2653 183.637 39.3066Z" fill="#1A2E35"/>
<path d="M187.383 39.6363C187.372 39.6768 186.947 39.6596 186.435 39.5976C185.923 39.536 185.513 39.4525 185.519 39.4115C185.525 39.3708 185.95 39.388 186.467 39.4502C186.985 39.5128 187.395 39.5959 187.383 39.6363Z" fill="#1A2E35"/>
<path d="M190.998 40.4419C190.977 40.48 190.563 40.4084 190.073 40.2813C189.583 40.1546 189.198 40.0195 189.214 39.98C189.23 39.9401 189.644 40.0121 190.139 40.1405C190.634 40.2687 191.019 40.4038 190.998 40.4419Z" fill="#1A2E35"/>
<path d="M194.357 41.7211C194.328 41.7558 193.938 41.6285 193.488 41.4367C193.038 41.2448 192.693 41.0596 192.718 41.0226C192.742 40.9859 193.132 41.1129 193.587 41.3071C194.043 41.5012 194.387 41.6864 194.357 41.7211Z" fill="#1A2E35"/>
<path d="M197.315 43.4652C197.276 43.4944 196.929 43.3115 196.539 43.0566C196.15 42.8017 195.862 42.5685 195.896 42.5356C195.93 42.5032 196.277 42.6861 196.671 42.9445C197.066 43.2028 197.354 43.4359 197.315 43.4652Z" fill="#1A2E35"/>
<path d="M199.181 45.0708C199.136 45.0949 198.969 44.9885 198.807 44.8334C198.647 44.678 198.55 44.5306 198.593 44.5042C198.635 44.4781 198.802 44.5842 198.966 44.7419C199.129 44.8993 199.225 45.0467 199.181 45.0708Z" fill="#1A2E35"/>
<path d="M216.938 62.3472C216.917 62.3851 216.508 62.2804 216.026 62.113C215.543 61.9458 215.172 61.7801 215.197 61.7434C215.222 61.7064 215.63 61.8113 216.11 61.9773C216.589 62.1437 216.96 62.3094 216.938 62.3472Z" fill="#1A2E35"/>
<path d="M220.564 63.2889C220.55 63.3288 220.126 63.2671 219.617 63.151C219.107 63.0346 218.709 62.909 218.728 62.87C218.746 62.8313 219.17 62.8929 219.675 63.0082C220.179 63.1232 220.577 63.2488 220.564 63.2889Z" fill="#1A2E35"/>
<path d="M224.35 63.7401C224.347 63.7813 223.915 63.7793 223.385 63.7358C222.855 63.6922 222.433 63.6239 222.442 63.5832C222.452 63.5428 222.884 63.5445 223.407 63.5875C223.931 63.6305 224.353 63.6988 224.35 63.7401Z" fill="#1A2E35"/>
<path d="M228.184 63.6509C228.191 63.6919 227.765 63.7493 227.234 63.7794C226.703 63.8092 226.271 63.8 226.27 63.7587C226.269 63.7174 226.693 63.6601 227.219 63.6303C227.745 63.6007 228.177 63.6099 228.184 63.6509Z" fill="#1A2E35"/>
<path d="M231.955 63.1233C231.97 63.1629 231.563 63.2719 231.044 63.3665C230.523 63.4499 230.091 63.4757 230.082 63.4362C230.072 63.3946 230.485 63.3031 231.002 63.2205C231.513 63.1271 231.94 63.0838 231.955 63.1233Z" fill="#1A2E35"/>
<path d="M235.52 62.0675C235.545 62.1039 235.174 62.2685 234.689 62.4348C234.204 62.6014 233.795 62.7052 233.775 62.6665C233.755 62.628 234.127 62.4634 234.605 62.2991C235.084 62.1348 235.494 62.0313 235.52 62.0675Z" fill="#1A2E35"/>
<path d="M238.7 60.4699C238.736 60.5006 238.437 60.7375 238.011 60.9772C237.585 61.2175 237.199 61.3674 237.169 61.3333C237.138 61.2986 237.47 61.095 237.891 60.8579C238.311 60.6213 238.664 60.4384 238.7 60.4699Z" fill="#1A2E35"/>
<path d="M241.312 58.3764C241.357 58.3999 241.143 58.6835 240.802 58.9912C240.462 59.2991 240.131 59.5105 240.091 59.4821C240.051 59.4534 240.313 59.1996 240.648 58.896C240.983 58.5932 241.266 58.3523 241.312 58.3764Z" fill="#1A2E35"/>
<path d="M243.111 55.8532C243.163 55.8664 243.062 56.1838 242.844 56.5485C242.626 56.9135 242.377 57.1814 242.33 57.1616C242.281 57.1415 242.447 56.8462 242.661 56.4874C242.876 56.1293 243.058 55.8394 243.111 55.8532Z" fill="#1A2E35"/>
<path d="M243.82 53.0479C243.874 53.0479 243.919 53.3728 243.863 53.7711C243.81 54.1696 243.677 54.4813 243.624 54.4727C243.569 54.4641 243.612 54.1461 243.665 53.7559C243.718 53.3659 243.764 53.0479 243.82 53.0479Z" fill="#1A2E35"/>
<path d="M243.267 50.2218C243.318 50.2092 243.494 50.5077 243.613 50.8974C243.733 51.2874 243.746 51.6137 243.693 51.6188C243.637 51.6243 243.536 51.3134 243.418 50.9306C243.302 50.5481 243.213 50.2347 243.267 50.2218Z" fill="#1A2E35"/>
<path d="M241.597 47.6507C241.641 47.6269 241.929 47.8723 242.198 48.2181C242.469 48.564 242.612 48.8719 242.563 48.8888C242.512 48.9066 242.291 48.6325 242.025 48.2936C241.762 47.9541 241.552 47.6748 241.597 47.6507Z" fill="#1A2E35"/>
<path d="M238.933 45.6054C238.963 45.5719 239.346 45.7302 239.751 45.9931C240.157 46.2549 240.422 46.5147 240.382 46.5422C240.341 46.5712 240.017 46.3622 239.62 46.1058C239.225 45.8489 238.901 45.6399 238.933 45.6054Z" fill="#1A2E35"/>
<path d="M235.451 44.4412C235.461 44.4016 235.898 44.4315 236.409 44.5576C236.92 44.6829 237.296 44.8524 237.273 44.8888C237.249 44.9269 236.845 44.8214 236.347 44.6996C235.849 44.5763 235.44 44.4825 235.451 44.4412Z" fill="#1A2E35"/>
<path d="M231.643 44.4881C231.628 44.4494 232.039 44.3318 232.573 44.2802C233.107 44.2274 233.544 44.2613 233.544 44.3017C233.544 44.3439 233.118 44.3768 232.599 44.4284C232.08 44.4781 231.658 44.5288 231.643 44.4881Z" fill="#1A2E35"/>
<path d="M228.334 45.8719C228.294 45.8455 228.557 45.5791 228.99 45.3357C229.421 45.0914 229.833 44.9707 229.857 45.0062C229.883 45.0441 229.526 45.2193 229.111 45.455C228.694 45.689 228.375 45.9006 228.334 45.8719Z" fill="#1A2E35"/>
<path d="M226.814 48.4446C226.761 48.4431 226.74 48.1128 226.87 47.7197C226.997 47.3263 227.225 47.041 227.273 47.0587C227.324 47.0765 227.186 47.3773 227.064 47.7552C226.939 48.1326 226.871 48.4474 226.814 48.4446Z" fill="#1A2E35"/>
<path d="M227.564 51.2249C227.517 51.2438 227.273 50.9694 227.096 50.5881C226.919 50.2073 226.884 49.8787 226.936 49.8721C226.992 49.864 227.113 50.1703 227.285 50.5393C227.456 50.9083 227.614 51.2054 227.564 51.2249Z" fill="#1A2E35"/>
<path d="M230.074 53.3576C230.044 53.3909 229.657 53.236 229.254 52.9693C228.85 52.7035 228.598 52.434 228.64 52.4079C228.682 52.3804 228.993 52.5992 229.387 52.8575C229.778 53.1167 230.106 53.3226 230.074 53.3576Z" fill="#1A2E35"/>
<path d="M233.559 54.5237C233.546 54.563 233.113 54.5208 232.606 54.3912C232.098 54.2625 231.722 54.0968 231.744 54.0601C231.768 54.0219 232.174 54.124 232.671 54.2499C233.167 54.3769 233.572 54.4827 233.559 54.5237Z" fill="#1A2E35"/>
<path d="M237.369 54.7945C237.373 54.8353 236.942 54.888 236.407 54.8791C235.872 54.8714 235.445 54.8046 235.451 54.7642C235.457 54.7226 235.886 54.7223 236.411 54.7297C236.937 54.7386 237.366 54.7527 237.369 54.7945Z" fill="#1A2E35"/>
<path d="M241.132 54.2738C241.15 54.3122 240.753 54.447 240.235 54.545C239.717 54.644 239.283 54.6672 239.274 54.6271C239.264 54.5858 239.676 54.4977 240.186 54.4002C240.695 54.3036 241.114 54.2342 241.132 54.2738Z" fill="#1A2E35"/>
<path d="M244.615 53.0828C244.644 53.1181 244.285 53.2976 243.813 53.4837C243.342 53.6701 242.941 53.7902 242.918 53.7526C242.895 53.7151 243.254 53.5356 243.72 53.3515C244.185 53.168 244.586 53.0476 244.615 53.0828Z" fill="#1A2E35"/>
<path d="M247.693 51.3745C247.731 51.4049 247.427 51.6346 247.014 51.8872C246.602 52.1398 246.242 52.3176 246.209 52.284C246.177 52.251 246.48 52.0214 246.888 51.7716C247.295 51.5219 247.656 51.3441 247.693 51.3745Z" fill="#1A2E35"/>
<path d="M250.309 49.2785C250.352 49.3037 250.107 49.5695 249.761 49.8718C249.415 50.1746 249.101 50.3968 249.061 50.3684C249.021 50.34 249.266 50.0742 249.609 49.7749C249.951 49.4755 250.265 49.2533 250.309 49.2785Z" fill="#1A2E35"/>
<path d="M252.419 46.8861C252.468 46.9056 252.285 47.1978 252.01 47.539C251.736 47.8799 251.476 48.1377 251.43 48.1151C251.384 48.0921 251.567 47.7997 251.839 47.4619C252.11 47.1244 252.371 46.8666 252.419 46.8861Z" fill="#1A2E35"/>
<path d="M253.977 44.2664C254.029 44.2801 253.914 44.5913 253.719 44.9614C253.529 45.3328 253.322 45.6164 253.268 45.5986C253.221 45.5828 253.344 45.2746 253.533 44.9061C253.726 44.5391 253.925 44.2526 253.977 44.2664Z" fill="#1A2E35"/>
<path d="M255.05 41.5152C255.104 41.5244 255.04 41.8435 254.906 42.2278C254.772 42.6123 254.621 42.9145 254.568 42.9027C254.515 42.8913 254.58 42.5721 254.712 42.1902C254.845 41.8083 254.996 41.5063 255.05 41.5152Z" fill="#1A2E35"/>
<path d="M255.722 38.6929C255.777 38.6981 255.756 39.0204 255.676 39.4126C255.595 39.8052 255.486 40.1172 255.431 40.11C255.377 40.1028 255.398 39.7802 255.478 39.39C255.558 38.9997 255.667 38.6877 255.722 38.6929Z" fill="#1A2E35"/>
<path d="M256.076 35.8383C256.131 35.8406 256.144 36.1632 256.104 36.5586C256.065 36.9543 255.988 37.272 255.933 37.268C255.878 37.264 255.866 36.9417 255.905 36.5474C255.944 36.1535 256.02 35.836 256.076 35.8383Z" fill="#1A2E35"/>
<path d="M256.198 32.9733C256.253 32.9736 256.289 33.2953 256.279 33.6913C256.269 34.0879 256.216 34.4082 256.16 34.4067C256.105 34.4053 256.069 34.0839 256.079 33.6884C256.09 33.2933 256.142 32.973 256.198 32.9733Z" fill="#1A2E35"/>
<path d="M256.17 30.1061C256.225 30.1052 256.276 30.4258 256.284 30.8218C256.291 31.2181 256.253 31.5395 256.197 31.5398C256.142 31.5398 256.091 31.2195 256.084 30.8238C256.076 30.4284 256.114 30.1069 256.17 30.1061Z" fill="#1A2E35"/>
<path d="M256.113 28.3424C256.168 28.3413 256.216 28.4141 256.218 28.505C256.222 28.5959 256.18 28.6708 256.125 28.6716C256.069 28.6728 256.022 28.5999 256.019 28.509C256.016 28.4181 256.057 28.3436 256.113 28.3424Z" fill="#1A2E35"/>
<path d="M266.438 32.9743L240.335 35.0911L238.425 21.9534L264.527 19.8367L266.438 32.9743Z" fill="#5E46C9" fill-opacity="0.23"/>
<path d="M238.435 21.9598L240.344 35.0834L266.427 32.9681L264.519 19.8445L238.435 21.9598ZM240.327 35.0989L240.326 35.092L238.414 21.9472L238.424 21.9463L264.536 19.8287L264.537 19.8359L266.448 32.9807L266.439 32.9816L240.327 35.0989Z" fill="#1A2E35"/>
<path d="M264.634 19.9877C264.639 19.9921 264.564 20.0589 264.416 20.1824C264.25 20.3169 264.031 20.4947 263.758 20.7166C263.162 21.1898 262.328 21.8504 261.306 22.6613C259.201 24.3046 256.321 26.5541 253.13 29.0456L253.063 29.0984L252.981 29.0591C252.918 29.0293 252.85 28.9972 252.781 28.9648C248.845 27.0866 245.282 25.3874 242.678 24.1446C241.408 23.5287 240.372 23.0263 239.631 22.6668C239.289 22.4967 239.016 22.3605 238.809 22.2576C238.623 22.1621 238.527 22.1096 238.531 22.1045C238.535 22.0993 238.64 22.1418 238.834 22.2272C239.048 22.3233 239.329 22.45 239.681 22.6083C240.432 22.9564 241.481 23.4421 242.769 24.0383C245.382 25.2695 248.958 26.9536 252.909 28.8145C252.978 28.8469 253.046 28.879 253.108 28.9089L252.959 28.9223C256.169 26.4452 259.067 24.2086 261.185 22.5744C262.23 21.7799 263.082 21.1327 263.692 20.669C263.978 20.4566 264.208 20.2865 264.382 20.1575C264.541 20.0419 264.627 19.9834 264.634 19.9877Z" fill="#1A2E35"/>
<path d="M240.442 35.2424C240.387 35.2149 242.088 33.2547 244.24 30.865C246.394 28.4741 248.183 26.559 248.238 26.5865C248.292 26.614 246.592 28.5736 244.438 30.9642C242.286 33.3542 240.496 35.2696 240.442 35.2424Z" fill="#1A2E35"/>
<path d="M256.89 25.7186C256.937 25.6842 259.137 27.3149 261.802 29.3599C264.468 31.4055 266.592 33.0913 266.544 33.1257C266.497 33.1598 264.298 31.5297 261.631 29.4841C258.966 27.439 256.843 25.753 256.89 25.7186Z" fill="#1A2E35"/>
</g>
<mask id="mask7_91_11189" style="mask-type:luminance" maskUnits="userSpaceOnUse" x="0" y="0" width="288" height="144">
<path d="M0 0.500076H288V143.871H0V0.500076Z" fill="white"/>
</mask>
<g mask="url(#mask7_91_11189)">
<path d="M145.333 59.6686C145.387 59.6617 145.468 59.8145 145.512 60.0098C145.556 60.2053 145.548 60.3694 145.493 60.3762C145.439 60.3831 145.359 60.2303 145.315 60.0347C145.27 59.8395 145.278 59.6754 145.333 59.6686Z" fill="#1A2E35"/>
<path d="M144.718 56.8711C144.773 56.8648 144.885 57.1727 144.968 57.559C145.051 57.9452 145.075 58.2638 145.02 58.2704C144.966 58.2773 144.854 57.9693 144.771 57.5825C144.687 57.196 144.663 56.8774 144.718 56.8711Z" fill="#1A2E35"/>
<path d="M144.17 54.0658C144.225 54.0603 144.328 54.37 144.4 54.7574C144.473 55.1448 144.488 55.4636 144.433 55.4696C144.378 55.4757 144.275 55.166 144.202 54.7777C144.13 54.3901 144.116 54.0712 144.17 54.0658Z" fill="#1A2E35"/>
<path d="M143.738 51.2493C143.793 51.2455 143.882 51.5575 143.937 51.9463C143.992 52.3351 143.991 52.654 143.936 52.6589C143.882 52.6638 143.793 52.3518 143.738 51.9618C143.683 51.5721 143.683 51.253 143.738 51.2493Z" fill="#1A2E35"/>
<path d="M143.474 48.4213C143.53 48.4196 143.598 48.7347 143.628 49.1247C143.658 49.5149 143.637 49.8335 143.582 49.8367C143.527 49.8395 143.458 49.5247 143.428 49.133C143.399 48.7416 143.419 48.423 143.474 48.4213Z" fill="#1A2E35"/>
<path d="M143.434 45.5858C143.489 45.587 143.531 45.9047 143.528 46.2958C143.525 46.6866 143.478 47.0041 143.423 47.0046C143.368 47.0052 143.325 46.6875 143.328 46.2947C143.331 45.9021 143.378 45.5847 143.434 45.5858Z" fill="#1A2E35"/>
<path d="M143.673 42.7581C143.727 42.7627 143.737 43.0816 143.693 43.4707C143.65 43.8598 143.57 44.1732 143.515 44.1706C143.46 44.1683 143.45 43.8495 143.494 43.4581C143.538 43.0673 143.618 42.7536 143.673 42.7581Z" fill="#1A2E35"/>
<path d="M144.244 39.9561C144.298 39.9644 144.268 40.2829 144.177 40.6672C144.086 41.0517 143.968 41.3582 143.913 41.3522C143.859 41.3462 143.889 41.0279 143.98 40.6411C144.072 40.2546 144.189 39.9477 144.244 39.9561Z" fill="#1A2E35"/>
<path d="M145.212 37.2166C145.264 37.2298 145.186 37.5435 145.037 37.9171C144.888 38.291 144.724 38.5855 144.67 38.5752C144.617 38.5649 144.695 38.2512 144.845 37.8744C144.996 37.4979 145.159 37.2034 145.212 37.2166Z" fill="#1A2E35"/>
<path d="M146.631 34.5886C146.681 34.6064 146.551 34.9106 146.34 35.2674C146.13 35.6243 145.918 35.9013 145.866 35.8859C145.815 35.8707 145.945 35.567 146.157 35.2071C146.369 34.8476 146.581 34.5706 146.631 34.5886Z" fill="#1A2E35"/>
<path d="M148.483 32.1156C148.529 32.1383 148.348 32.4273 148.079 32.7611C147.809 33.0954 147.552 33.3498 147.504 33.33C147.455 33.3102 147.636 33.0209 147.908 32.6842C148.179 32.3476 148.437 32.093 148.483 32.1156Z" fill="#1A2E35"/>
<path d="M150.76 29.8488C150.801 29.8761 150.569 30.1442 150.242 30.4476C149.914 30.7509 149.613 30.9772 149.568 30.9525C149.524 30.9281 149.756 30.66 150.086 30.3538C150.416 30.0476 150.718 29.8216 150.76 29.8488Z" fill="#1A2E35"/>
<path d="M153.457 27.8566C153.492 27.8884 153.209 28.1273 152.824 28.39C152.439 28.6529 152.095 28.8424 152.057 28.8132C152.017 28.7842 152.3 28.5454 152.689 28.2798C153.078 28.0143 153.422 27.8251 153.457 27.8566Z" fill="#1A2E35"/>
<path d="M156.56 26.2277C156.587 26.2636 156.253 26.4626 155.814 26.6722C155.374 26.8815 154.992 27.024 154.96 26.9905C154.928 26.9569 155.261 26.7579 155.706 26.546C156.15 26.3344 156.533 26.1919 156.56 26.2277Z" fill="#1A2E35"/>
<path d="M160.017 25.0656C160.034 25.1049 159.655 25.2517 159.17 25.3933C158.685 25.535 158.273 25.6193 158.249 25.582C158.226 25.5444 158.606 25.3979 159.097 25.2543C159.588 25.1109 160 25.0263 160.017 25.0656Z" fill="#1A2E35"/>
<path d="M162.79 24.5557C162.798 24.5964 162.596 24.6592 162.338 24.6959C162.08 24.7326 161.861 24.7297 161.849 24.6896C161.837 24.6495 162.039 24.5864 162.301 24.5494C162.562 24.5121 162.782 24.515 162.79 24.5557Z" fill="#1A2E35"/>
<path d="M162.051 34.8792L135.424 27.1907L142.364 13.789L168.99 21.4774L162.051 34.8792Z" fill="#5E46C9" fill-opacity="0.23"/>
<path d="M135.437 27.1866L162.045 34.8698L168.978 21.4816L142.369 13.7983L135.437 27.1866ZM162.056 34.8882L162.048 34.8859L135.412 27.1946L135.415 27.188L142.359 13.7797L142.368 13.7823L169.003 21.4733L168.999 21.4799L162.056 34.8882Z" fill="#1A2E35"/>
<path d="M168.992 21.6635C168.996 21.6695 168.878 21.7062 168.652 21.7704C168.402 21.8387 168.072 21.9287 167.66 22.0411C166.767 22.2757 165.521 22.6028 163.991 23.0048C160.859 23.8074 156.573 24.9062 151.825 26.1232L151.725 26.1487L151.672 26.0802C151.631 26.028 151.587 25.9712 151.542 25.9147C148.996 22.6329 146.692 19.6632 145.007 17.492C144.192 16.4233 143.528 15.5521 143.052 14.9282C142.836 14.6366 142.663 14.4032 142.532 14.2263C142.416 14.0648 142.358 13.9785 142.366 13.9751C142.374 13.9716 142.446 14.0516 142.577 14.2068C142.719 14.3791 142.905 14.6062 143.139 14.8903C143.632 15.5066 144.32 16.3671 145.165 17.4228C146.867 19.5869 149.194 22.5466 151.766 25.8169C151.81 25.8737 151.855 25.9305 151.896 25.9827L151.742 25.9399C156.499 24.7442 160.794 23.6646 163.932 22.8761C165.473 22.4985 166.728 22.1908 167.627 21.9703C168.046 21.8722 168.381 21.7934 168.635 21.7337C168.867 21.6815 168.989 21.6572 168.992 21.6635Z" fill="#1A2E35"/>
<path d="M135.426 27.3766C135.391 27.3296 138.345 26.0708 142.022 24.5651C145.7 23.0588 148.709 21.876 148.743 21.9231C148.778 21.9701 145.825 23.2286 142.147 24.7348C138.47 26.2405 135.46 27.4233 135.426 27.3766Z" fill="#1A2E35"/>
<path d="M157.681 24.311C157.75 24.2955 158.784 26.6903 159.991 29.6595C161.198 32.6296 162.121 35.0491 162.053 35.0646C161.984 35.0804 160.95 32.6861 159.743 29.7157C158.536 26.7465 157.613 24.3264 157.681 24.311Z" fill="#1A2E35"/>
</g>
<mask id="mask8_91_11189" style="mask-type:luminance" maskUnits="userSpaceOnUse" x="0" y="0" width="288" height="144">
<path d="M0 0.500076H288V143.871H0V0.500076Z" fill="white"/>
</mask>
<g mask="url(#mask8_91_11189)">
<path d="M134.15 62.807C134.205 62.8098 134.233 62.9727 134.211 63.1706C134.19 63.3687 134.127 63.5261 134.072 63.5224C134.018 63.5184 133.99 63.3558 134.012 63.1585C134.033 62.9618 134.095 62.8041 134.15 62.807Z" fill="#1A2E35"/>
<path d="M134.247 59.8907C134.303 59.8898 134.347 60.2164 134.345 60.6201C134.344 61.0244 134.298 61.3508 134.243 61.3496C134.188 61.3482 134.144 61.0216 134.145 60.6198C134.146 60.2184 134.192 59.8915 134.247 59.8907Z" fill="#1A2E35"/>
<path d="M133.982 56.9807C134.037 56.9755 134.122 57.2978 134.171 57.7001C134.221 58.1024 134.216 58.4308 134.161 58.4333C134.106 58.4359 134.022 58.1139 133.972 57.7139C133.923 57.3139 133.927 56.9856 133.982 56.9807Z" fill="#1A2E35"/>
<path d="M133.331 54.1046C133.384 54.0954 133.513 54.4094 133.616 54.8059C133.72 55.2028 133.761 55.5297 133.706 55.5363C133.651 55.5431 133.523 55.2289 133.42 54.8346C133.317 54.4406 133.277 54.1137 133.331 54.1046Z" fill="#1A2E35"/>
<path d="M132.269 51.2974C132.321 51.284 132.495 51.5856 132.656 51.9716C132.818 52.3575 132.906 52.679 132.853 52.6901C132.8 52.701 132.626 52.3994 132.465 52.016C132.305 51.6329 132.217 51.3112 132.269 51.2974Z" fill="#1A2E35"/>
<path d="M130.776 48.604C130.825 48.5859 131.046 48.8698 131.268 49.2385C131.491 49.6073 131.629 49.9187 131.578 49.9345C131.527 49.9499 131.307 49.6658 131.086 49.2999C130.865 48.9337 130.727 48.6223 130.776 48.604Z" fill="#1A2E35"/>
<path d="M128.836 46.0729C128.882 46.0499 129.158 46.3066 129.449 46.6484C129.726 46.9965 129.911 47.295 129.863 47.3153C129.815 47.3354 129.553 47.0722 129.278 46.7267C128.99 46.388 128.79 46.0961 128.836 46.0729Z" fill="#1A2E35"/>
<path d="M126.444 43.7684C126.484 43.7406 126.799 43.97 127.146 44.2808C127.493 44.5917 127.739 44.8638 127.695 44.889C127.651 44.914 127.337 44.6846 126.992 44.3763C126.648 44.0684 126.403 43.796 126.444 43.7684Z" fill="#1A2E35"/>
<path d="M123.639 41.7398C123.674 41.708 124.029 41.9018 124.431 42.1728C124.833 42.4441 125.128 42.6875 125.089 42.7171C125.051 42.7463 124.696 42.5525 124.297 42.2838C123.898 42.0151 123.603 41.7717 123.639 41.7398Z" fill="#1A2E35"/>
<path d="M120.471 40.0349C120.499 39.9997 120.888 40.1528 121.34 40.377C121.791 40.6015 122.13 40.8103 122.097 40.8435C122.065 40.8771 121.676 40.7237 121.229 40.5015C120.782 40.2792 120.442 40.0705 120.471 40.0349Z" fill="#1A2E35"/>
<path d="M116.992 38.7104C117.012 38.6722 117.429 38.7783 117.921 38.9481C118.414 39.1175 118.792 39.2844 118.767 39.3211C118.742 39.3578 118.325 39.2514 117.838 39.0834C117.35 38.9157 116.971 38.7485 116.992 38.7104Z" fill="#1A2E35"/>
<path d="M113.27 37.8313C113.281 37.7909 113.715 37.8437 114.239 37.9492C114.763 38.0547 115.173 38.172 115.156 38.2113C115.139 38.2503 114.705 38.1975 114.187 38.0934C113.669 37.989 113.258 37.8718 113.27 37.8313Z" fill="#1A2E35"/>
<path d="M109.399 37.4617C109.4 37.421 109.84 37.4041 110.382 37.4288C110.922 37.4709 111.353 37.5383 111.346 37.579C111.338 37.62 110.899 37.6194 110.366 37.5776C109.831 37.5532 109.398 37.5036 109.399 37.4617Z" fill="#1A2E35"/>
<path d="M105.505 37.662C105.496 37.6213 105.925 37.5499 106.464 37.502C107.003 37.4544 107.442 37.4495 107.445 37.4905C107.449 37.5318 107.02 37.6032 106.487 37.6505C105.954 37.6975 105.515 37.7027 105.505 37.662Z" fill="#1A2E35"/>
<path d="M101.733 38.4118C101.714 38.3733 102.117 38.2426 102.634 38.1198C103.152 37.9974 103.582 37.9306 103.596 37.9705C103.609 38.0106 103.206 38.1411 102.695 38.2624C102.184 38.3834 101.753 38.4502 101.733 38.4118Z" fill="#1A2E35"/>
<path d="M98.2166 39.676C98.1878 39.6408 98.551 39.4558 99.028 39.2631C99.5053 39.0702 99.9112 38.944 99.935 38.9813C99.9584 39.0188 99.5951 39.2038 99.1232 39.3945C98.6516 39.5852 98.2458 39.711 98.2166 39.676Z" fill="#1A2E35"/>
<path d="M95.0971 41.4268C95.059 41.3969 95.3662 41.1618 95.7829 40.9023C96.1999 40.6425 96.5647 40.459 96.5973 40.4923C96.63 40.5255 96.3228 40.7604 95.9111 41.017C95.4995 41.2733 95.1351 41.4566 95.0971 41.4268Z" fill="#1A2E35"/>
<path d="M92.5442 43.6274C92.4989 43.6048 92.7074 43.3129 93.0404 42.9923C93.3725 42.6711 93.6978 42.4466 93.7389 42.4739C93.7807 42.5014 93.5261 42.7666 93.1986 43.0835C92.8703 43.3997 92.5907 43.6506 92.5442 43.6274Z" fill="#1A2E35"/>
<path d="M91.1193 45.521C91.069 45.5041 91.1223 45.3453 91.2391 45.1658C91.3554 44.9863 91.4894 44.8566 91.5386 44.8759C91.5874 44.8951 91.5336 45.0542 91.4188 45.2308C91.304 45.4078 91.1696 45.5377 91.1193 45.521Z" fill="#1A2E35"/>
<path d="M66.7203 62.4428C66.7164 62.4015 66.9246 62.349 67.1849 62.3255C67.4453 62.302 67.6641 62.3157 67.6734 62.3565C67.683 62.3969 67.4752 62.4497 67.2087 62.4737C66.9426 62.4978 66.7237 62.4841 66.7203 62.4428Z" fill="#1A2E35"/>
<path d="M62.9169 62.1207C62.9342 62.0806 63.3546 62.1465 63.8692 62.2268C64.3838 62.3082 64.8042 62.373 64.7985 62.4149C64.7939 62.455 64.3546 62.4559 63.8281 62.373C63.3016 62.2907 62.9004 62.1588 62.9169 62.1207Z" fill="#1A2E35"/>
<path d="M59.4796 60.8515C59.5123 60.8174 59.8867 60.976 60.3394 61.1773C60.7918 61.3794 61.1566 61.5486 61.1324 61.5864C61.1089 61.6229 60.6973 61.5113 60.2369 61.3054C59.7761 61.1004 59.4481 60.8845 59.4796 60.8515Z" fill="#1A2E35"/>
<path d="M56.6216 58.9359C56.6638 58.9084 56.9791 59.1277 57.3508 59.4079C57.7217 59.6886 58.0128 59.926 57.9756 59.9573C57.9395 59.9877 57.5846 59.7975 57.2087 59.5131C56.832 59.2289 56.5805 58.9626 56.6216 58.9359Z" fill="#1A2E35"/>
<path d="M54.3632 56.613C54.4108 56.5924 54.6846 56.843 54.9742 57.1728C55.2637 57.5028 55.4622 57.7901 55.4177 57.8145C55.3731 57.8391 55.0997 57.5885 54.8067 57.2548C54.5141 56.921 54.3152 56.6337 54.3632 56.613Z" fill="#1A2E35"/>
<path d="M52.7043 54.023C52.7561 54.0087 52.9662 54.2914 53.1735 54.6547C53.3809 55.018 53.5084 55.3268 53.4588 55.3449C53.4089 55.3629 53.1993 55.0802 52.9896 54.7132C52.7803 54.3464 52.6524 54.0373 52.7043 54.023Z" fill="#1A2E35"/>
<path d="M51.6009 51.2712C51.655 51.2623 51.8075 51.5648 51.9422 51.947C52.0766 52.3296 52.1427 52.6493 52.0897 52.661C52.0371 52.6731 51.8843 52.3706 51.7487 51.9852C51.6131 51.5998 51.5471 51.2801 51.6009 51.2712Z" fill="#1A2E35"/>
<path d="M50.9327 48.4413C50.9876 48.4362 51.0963 48.7493 51.1758 49.1404C51.2549 49.5318 51.2752 49.855 51.2207 49.8624C51.1666 49.8696 51.0579 49.5565 50.978 49.1631C50.8982 48.7697 50.8778 48.4465 50.9327 48.4413Z" fill="#1A2E35"/>
<path d="M50.5636 45.5806C50.6189 45.5777 50.6984 45.8957 50.7411 46.2906C50.7841 46.6857 50.7741 47.0089 50.7192 47.0132C50.6643 47.0169 50.5848 46.6992 50.5418 46.3029C50.4987 45.9066 50.5083 45.5832 50.5636 45.5806Z" fill="#1A2E35"/>
<path d="M50.4044 43.4275C50.4597 43.4255 50.5146 43.5844 50.5273 43.782C50.5399 43.9795 50.5054 44.1415 50.4501 44.1435C50.3952 44.1455 50.3403 43.987 50.3276 43.7891C50.3149 43.5913 50.3491 43.4293 50.4044 43.4275Z" fill="#1A2E35"/>
<path d="M65.8767 42.1138L33.9471 43.2375L32.9326 27.1668L64.8622 26.0431L65.8767 42.1138Z" fill="#5E46C9" fill-opacity="0.23"/>
<path d="M32.9427 27.1738L33.9561 43.2302L65.8665 42.107L64.8531 26.0506L32.9427 27.1738ZM33.9377 43.2454L33.9373 43.2379L32.9224 27.16L32.9323 27.1597L64.8715 26.0357L64.8719 26.0429L65.8868 42.1208L65.8772 42.121L33.9377 43.2454Z" fill="#1A2E35"/>
<path d="M64.9765 26.2325C64.9834 26.238 64.8855 26.3151 64.6927 26.4568C64.478 26.6116 64.1946 26.8152 63.8406 27.0698C63.0684 27.6115 61.9905 28.3679 60.6668 29.2967C57.9458 31.1768 54.2222 33.7506 50.0969 36.6014L50.0101 36.6616L49.9137 36.6094C49.8403 36.5696 49.7605 36.5266 49.6806 36.4836C45.0841 33.9829 40.9242 31.7202 37.883 30.0657C36.4007 29.2465 35.1923 28.5789 34.3275 28.101C33.9293 27.8753 33.6106 27.6946 33.369 27.5579C33.1521 27.4317 33.0407 27.3623 33.0469 27.3563C33.0526 27.3503 33.1755 27.4076 33.4036 27.5223C33.6528 27.6508 33.9823 27.8205 34.3936 28.0324C35.2718 28.4969 36.4983 29.1458 38.0032 29.9415C41.0575 31.5829 45.2346 33.8275 49.8511 36.3081C49.9306 36.3511 50.0105 36.3941 50.0838 36.4339L49.9006 36.442C54.0486 33.6098 57.793 31.0527 60.5286 29.1845C61.8784 28.277 62.9774 27.5375 63.7646 27.0082C64.134 26.7659 64.4293 26.572 64.6535 26.4249C64.8586 26.2933 64.9696 26.2271 64.9765 26.2325Z" fill="#1A2E35"/>
<path d="M34.0614 43.4273C33.9976 43.3909 36.2598 41.1035 39.1129 38.3187C41.9675 35.533 44.3322 33.305 44.396 33.3415C44.4593 33.3779 42.1979 35.6646 39.3437 38.4503C36.4902 41.2352 34.1251 43.4634 34.0614 43.4273Z" fill="#1A2E35"/>
<path d="M54.9967 32.767C55.0574 32.728 57.568 34.8312 60.6039 37.4644C63.6402 40.0981 66.0521 42.2644 65.991 42.3034C65.9304 42.3424 63.4205 40.2397 60.3835 37.6057C57.3483 34.9726 54.9361 32.806 54.9967 32.767Z" fill="#1A2E35"/>
</g>
</g>
<defs>
<clipPath id="clip0_91_11189">
<rect width="288" height="160" fill="white" transform="translate(0 0.5)"/>
</clipPath>
</defs>
</svg>
