<svg width="376" height="131" viewBox="0 0 376 131" fill="none" xmlns="http://www.w3.org/2000/svg">
<g clip-path="url(#clip0_343_102662)">
<mask id="mask0_343_102662" style="mask-type:luminance" maskUnits="userSpaceOnUse" x="102" y="-33" width="181" height="193">
<path d="M102 -32.5H283V159.5H102V-32.5Z" fill="white"/>
</mask>
<g mask="url(#mask0_343_102662)">
<path d="M180.477 28.2125C174.82 6.44388 149.327 -0.568733 134.718 15.7002C134.508 15.9337 134.299 16.1714 134.089 16.4129C113.144 40.5646 123.039 100.081 166.75 115.166C210.462 130.251 255.927 102.705 258.482 78.0798C261.036 53.4551 240.87 45.7175 209.574 52.6034C191.892 56.4937 183.999 41.7642 180.477 28.2125Z" fill="#E9E4FF"/>
<path d="M216.839 31.936C210.991 32.9459 209.37 38.4421 213.885 42.3416C215.378 43.6303 217.51 44.7013 220.546 45.2355C232.113 47.271 238.251 41.8421 233.615 34.8033C230.753 30.4591 222.635 30.9349 216.839 31.936Z" fill="#E9E4FF"/>
<path d="M123.588 75.9205C119.952 70.9573 114.627 72.0794 113.562 78.152C113.21 80.1588 113.344 82.6563 114.355 85.7402C118.209 97.4875 125.64 100.605 129.246 92.9172C131.472 88.1717 127.191 80.8392 123.588 75.9205Z" fill="#E9E4FF"/>
<path d="M262.604 80.9418C262.066 83.9335 264.394 86.0528 267.033 84.9001C267.905 84.5187 268.785 83.7842 269.568 82.4928C272.55 77.573 271.04 73.352 266.888 73.7852C264.326 74.0528 263.138 77.9769 262.604 80.9418Z" fill="#E9E4FF"/>
<path d="M247.819 49.3702C250.63 49.9926 252.667 47.5585 251.626 44.7399C251.281 43.8087 250.603 42.8629 249.399 42.0104C244.813 38.7645 240.809 40.2943 241.146 44.7046C241.355 47.4267 245.034 48.7535 247.819 49.3702Z" fill="#E9E4FF"/>
<path d="M179.5 17.3549C181.726 19.2795 184.59 18.1133 184.888 15.1024C184.987 14.107 184.795 12.937 184.096 11.5926C181.432 6.47159 177.214 5.87524 175.601 9.95563C174.605 12.4743 177.295 15.4476 179.5 17.3549Z" fill="#E9E4FF"/>
<path d="M269.573 95.9085C274.036 91.1488 277.435 85.7709 274.054 84.9322C270.67 84.0924 264.986 93.4659 263.995 101.997L263.004 104.813C263.829 98.6095 261.825 91.0528 258.89 90.7414C255.975 90.4319 257.74 95.334 260.055 99.5258C261.818 102.717 262.282 105.234 262.399 106.535L257.717 119.838C258.995 110.01 255.821 98.0858 251.178 97.5931C246.552 97.102 249.352 104.88 253.026 111.532C255.803 116.558 256.55 120.534 256.741 122.611L255.808 125.263C256.216 125.507 256.625 125.748 257.036 125.987L262.606 110.16C263.68 109.309 265.312 108.281 267.635 107.447C271.974 105.89 276.335 103.414 273.941 101.621C271.864 100.065 266.981 103.06 263.617 107.287L265.543 101.814C266.412 100.228 267.647 97.9625 269.573 95.9085Z" fill="#1C31B5"/>
<path d="M128.886 33.8163C129.465 28.0683 129.015 22.5125 126.318 23.8827C123.619 25.2543 124.564 34.799 128.235 41.0951L129 43.5531C126.401 38.9155 121.215 34.9864 119.086 36.4552C116.971 37.9144 120.647 40.1973 124.333 41.6883C127.138 42.8235 128.729 44.2485 129.468 45.056L133.085 56.6666C128.949 49.3349 120.757 43.1426 117.389 45.4661C114.033 47.7817 119.866 51.4039 125.713 53.7698C130.132 55.558 132.654 57.8006 133.838 59.0862L134.559 61.4014C134.957 61.3319 135.355 61.2597 135.752 61.1848L131.45 47.3715C131.739 46.1854 132.312 44.5618 133.449 42.6737C135.571 39.1474 137.241 34.9906 134.723 35.1554C132.537 35.2982 130.78 40.1017 130.669 44.8636L129.181 40.0867C128.958 38.5253 128.637 36.2974 128.886 33.8163Z" fill="#1C31B5"/>
<path d="M239.446 111.719C239.502 112.045 239.568 112.4 239.645 112.778V112.779C240.449 116.742 242.421 123.231 246.86 124.506C246.86 124.506 244.444 111.142 253.056 107.661C261.668 104.18 260.716 100.866 260.224 94.9664C259.731 89.067 257.828 87.9419 263.804 82.4157C269.779 76.89 268.636 68.6589 268.636 68.6589C268.636 68.6589 262.982 78.0569 256.941 78.2747C250.901 78.4932 249.844 83.9629 250.101 88.0306C250.358 92.0975 245.229 92.5579 242.453 94.9168C239.678 97.2765 239.154 109.666 239.154 109.666C239.154 109.666 239.231 110.475 239.446 111.719Z" fill="#5E46C9"/>
<path d="M239.446 111.719C239.502 112.045 239.568 112.4 239.645 112.778C240.264 110.789 241.135 109.119 241.95 107.837C243.882 104.801 246.603 102.307 249.05 101.328C252.946 99.7706 254.848 95.7171 255.217 88.1846C255.43 83.8119 259.742 81.2292 259.787 81.2042C259.913 81.1301 259.959 80.9607 259.889 80.8275C259.819 80.6931 259.66 80.6439 259.534 80.7184C259.346 80.8286 254.923 83.4717 254.694 88.1554C254.338 95.4375 252.54 99.3405 248.865 100.81C246.284 101.842 243.536 104.352 241.517 107.526C240.803 108.648 240.047 110.06 239.446 111.719Z" fill="#9989EE"/>
<path d="M144.122 124.434H150.173C146.903 123.86 138.796 120.169 138.073 112.765C137.158 103.388 134.01 103.506 128.706 102.525C123.402 101.545 121.941 103.145 118.573 95.8655C115.206 88.5857 107.692 87.6687 107.692 87.6687C107.692 87.6687 114.54 95.5944 113.23 101.618C111.919 107.642 116.46 110.047 120.097 110.805C123.733 111.562 122.862 116.746 124.243 120.075C124.874 121.595 127.455 123.17 130.076 124.434H144.122Z" fill="#9989EE"/>
<path d="M131.014 115.203C131.278 118.011 132.8 121.351 135.086 124.136C135.166 124.234 135.249 124.333 135.335 124.434H136.023C135.826 124.214 135.64 123.996 135.466 123.785C133.28 121.12 131.766 117.812 131.515 115.15C131.116 110.913 128.029 108.025 121.504 105.787C117.717 104.489 116.521 99.5842 116.51 99.5339C116.476 99.391 116.339 99.3039 116.205 99.3396C116.069 99.3753 115.987 99.5204 116.02 99.6633C116.07 99.8768 117.292 104.905 121.349 106.296C127.656 108.459 130.637 111.206 131.014 115.203Z" fill="#1C31B5"/>
<path d="M147.385 107.031C147.257 107.487 147.112 107.983 146.948 108.51L146.948 108.511C145.227 114.034 141.698 123.337 135.179 124.434C135.179 124.434 140.338 105.393 128.557 99.0232C116.776 92.653 118.615 88.0799 120.172 79.7444C121.729 71.409 124.607 70.1145 116.883 61.2568C109.16 52.399 111.983 40.8433 111.983 40.8433C111.983 40.8433 118.688 55.1723 127.273 56.4683C135.858 57.7643 136.575 65.74 135.618 71.5007C134.661 77.2611 141.913 78.7533 145.53 82.5722C149.148 86.3903 148.098 104.15 148.098 104.15C148.098 104.15 147.872 105.293 147.385 107.031Z" fill="#5E46C9"/>
<path d="M147.385 107.031C147.257 107.487 147.112 107.983 146.948 108.51C146.353 105.571 145.352 103.047 144.375 101.085C142.059 96.4387 138.539 92.4371 135.19 90.6415C129.858 87.7849 127.732 81.6924 128.297 70.8858C128.626 64.6136 122.849 60.226 122.789 60.183C122.62 60.0566 122.579 59.8078 122.698 59.6289C122.817 59.4484 123.052 59.4046 123.221 59.531C123.473 59.7191 129.399 64.2108 129.047 70.9296C128.5 81.3759 130.499 87.2369 135.528 89.9326C139.062 91.8253 142.617 95.8554 145.038 100.713C145.894 102.429 146.767 104.567 147.385 107.031Z" fill="#9989EE"/>
<path d="M152.058 119.956C152.079 121.404 152.103 122.91 152.133 124.434H165.295C165.32 122.766 165.339 121.167 165.354 119.668C165.393 115.604 165.398 112.26 165.395 110.181C165.393 108.706 165.387 107.871 165.387 107.871L151.966 107.72C151.966 107.72 151.966 108.95 151.976 110.961C151.985 113.197 152.008 116.398 152.058 119.956Z" fill="#18315B"/>
<path d="M151.976 110.962C151.985 113.197 152.008 116.399 152.058 119.956C156.193 120.291 160.726 120.294 165.354 119.668C165.393 115.604 165.398 112.26 165.395 110.181L151.976 110.962Z" fill="#000B29"/>
<path d="M135.471 116.746C135.485 119.021 135.511 121.628 135.554 124.434H148.717C148.749 122.791 148.776 121.168 148.797 119.618C148.842 116.29 148.866 113.295 148.878 111.141C148.888 109.023 148.888 107.719 148.888 107.719L135.46 107.871C135.46 107.871 135.45 109.38 135.453 111.921C135.453 113.265 135.459 114.896 135.471 116.746Z" fill="#18315B"/>
<path d="M135.453 111.922C135.453 113.266 135.459 114.896 135.471 116.746C138.143 117.581 142.929 118.882 148.797 119.618C148.842 116.291 148.866 113.295 148.877 111.142L135.453 111.922Z" fill="#000B29"/>
<path d="M157.518 32.811C157.518 32.811 159.633 30.6503 159.627 28.5164C159.619 26.3825 158.252 27.013 157.518 25.0247C156.785 23.0359 154.604 21.8236 153.409 22.0663C152.213 22.3086 149.688 17.3619 146.264 18.2348C142.84 19.1076 143.138 23.7636 141.663 24.4425C140.188 25.1214 140.6 27.8859 141.377 28.5164C142.154 29.1469 142.483 31.6805 142.921 31.6233C143.358 31.5665 157.518 32.811 157.518 32.811Z" fill="#18315B"/>
<path d="M143.283 32.7603C143.283 32.7603 141.953 30.8794 140.964 32.4346C139.976 33.9898 141.374 38.5836 143.794 37.4624L143.283 32.7603Z" fill="#F97853"/>
<path d="M143.266 36.0425C143.176 36.0425 143.094 35.9799 143.069 35.8839C142.694 34.4658 141.309 33.8909 141.295 33.8852C141.189 33.8425 141.136 33.7174 141.176 33.6056C141.216 33.4935 141.334 33.437 141.44 33.4793C141.504 33.5054 143.031 34.1336 143.463 35.7668C143.493 35.8824 143.43 36.0022 143.321 36.0344C143.303 36.0398 143.284 36.0425 143.266 36.0425Z" fill="#EA5143"/>
<path d="M141.868 35.3281C141.83 35.3281 141.791 35.317 141.757 35.2936C141.662 35.2287 141.634 35.0943 141.696 34.9937C141.706 34.9768 141.951 34.5805 142.463 34.337C142.566 34.2879 142.688 34.337 142.734 34.4465C142.78 34.5559 142.734 34.6842 142.631 34.7333C142.234 34.9211 142.041 35.2256 142.04 35.2287C142.001 35.2932 141.935 35.3281 141.868 35.3281Z" fill="#EA5143"/>
<path d="M156.987 32.7603C156.987 32.7603 158.317 30.8794 159.306 32.4346C160.295 33.9898 158.897 38.5836 156.476 37.4624L156.987 32.7603Z" fill="#F97853"/>
<path d="M157.004 36.0425C157.094 36.0425 157.176 35.9799 157.201 35.8839C157.577 34.4658 158.962 33.8909 158.975 33.8852C159.081 33.8425 159.134 33.7174 159.094 33.6056C159.054 33.4935 158.936 33.437 158.831 33.4793C158.766 33.5054 157.239 34.1336 156.807 35.7668C156.777 35.8824 156.84 36.0022 156.949 36.0344C156.967 36.0398 156.986 36.0425 157.004 36.0425Z" fill="#EA5143"/>
<path d="M158.403 35.3281C158.441 35.3281 158.479 35.317 158.513 35.2936C158.608 35.2287 158.636 35.0943 158.575 34.9937C158.564 34.9768 158.319 34.5805 157.807 34.337C157.704 34.2879 157.582 34.337 157.536 34.4465C157.49 34.5559 157.536 34.6842 157.639 34.7333C158.036 34.9211 158.229 35.2256 158.23 35.2287C158.269 35.2932 158.335 35.3281 158.403 35.3281Z" fill="#EA5143"/>
<path d="M153.409 41.3585V45.9265C153.409 45.9265 152.124 48.2532 150.387 48.4114C148.652 48.5719 147.111 46.4085 147.111 46.4085V41.6795L153.409 41.3585Z" fill="#FFA681"/>
<path d="M153.409 41.3585V43.3853C152.243 44.7573 150.173 45.0998 147.111 44.6202V41.6796L153.409 41.3585Z" fill="#F97853"/>
<path d="M157.949 29.6267C157.869 31.4019 157.709 33.6218 157.39 35.397C157.311 35.8398 157.22 36.2564 157.12 36.6297C156.214 39.9954 153.947 45.7685 147.601 43.3635C144.798 42.3025 143.499 38.9909 142.92 35.6228C142.527 33.3354 142.468 31.0241 142.496 29.3729C142.527 27.6863 143.395 26.1457 144.778 25.3147C148.524 23.0618 152.476 23.9016 155.078 24.963C156.885 25.6987 158.041 27.58 157.949 29.6267Z" fill="#FFA681"/>
<path d="M150.003 38.0955C154.255 37.3213 153.495 39.9621 153.468 40.0566V40.0581L153.467 40.0596C153.179 40.3507 152.885 40.5953 152.593 40.7624C150.946 41.7066 150.767 41.5641 150.117 41.5945C149.456 41.6283 148.544 41.4201 147.618 40.8714C147.33 40.6998 146.9 40.368 146.428 39.9114C146.428 39.9114 145.76 37.4888 150.003 38.0955ZM142.921 35.6221C142.921 35.6221 143.536 39.514 144.118 40.9329C144.701 42.3513 146.29 42.6186 146.886 43.8178C147.737 45.5274 149.035 46.8822 151.169 46.0566C152.944 45.3696 152.864 44.4069 153.858 43.6619C155.563 42.3851 156.407 40.9809 156.476 39.8166C156.544 38.6527 157.391 35.3967 157.391 35.3967L156.476 35.328C156.476 35.328 155.955 36.4731 155.188 37.7349C154.419 35.9424 150.711 37.2457 150.711 37.2457L150.003 37.4888L149.277 37.2457C149.277 37.2457 145.525 35.9973 144.784 37.8774C144.331 37.1412 143.962 36.3129 143.794 35.4359L142.921 35.6221Z" fill="#18315B"/>
<path d="M147.448 33.3564C147.448 33.8441 147.211 34.2393 146.919 34.2393C146.626 34.2393 146.39 33.8441 146.39 33.3564C146.39 32.8688 146.626 32.4736 146.919 32.4736C147.211 32.4736 147.448 32.8688 147.448 33.3564Z" fill="#18315B"/>
<path d="M153.739 33.3564C153.739 33.8441 153.502 34.2393 153.21 34.2393C152.917 34.2393 152.68 33.8441 152.68 33.3564C152.68 32.8688 152.917 32.4736 153.21 32.4736C153.502 32.4736 153.739 32.8688 153.739 33.3564Z" fill="#18315B"/>
<path d="M155.293 30.4488C155.293 30.4488 153.106 29.5321 151.422 30.3036L151.59 31.2966C151.59 31.2966 154.062 31.0751 155.307 31.6104C155.418 31.2279 155.435 30.8416 155.293 30.4488Z" fill="#18315B"/>
<path d="M144.896 30.4535C144.896 30.4535 147.098 29.53 148.795 30.3072L148.625 31.3079C148.625 31.3079 146.135 31.0848 144.881 31.6235C144.769 31.2384 144.752 30.8494 144.896 30.4535Z" fill="#18315B"/>
<path d="M150.206 37.0566C150.551 37.0566 150.894 36.9142 150.947 36.8911C151.051 36.8458 151.101 36.7195 151.058 36.6085C151.016 36.4972 150.897 36.4442 150.792 36.4895C150.607 36.5686 150.164 36.6938 149.972 36.5716C149.934 36.5478 149.884 36.5014 149.871 36.3693C149.797 35.6116 149.993 33.0715 149.994 33.0458C150.004 32.9267 149.92 32.8219 149.807 32.8119C149.694 32.8015 149.596 32.891 149.587 33.0104C149.579 33.1164 149.386 35.6166 149.464 36.4142C149.493 36.7145 149.642 36.8681 149.761 36.9441C149.892 37.0271 150.05 37.0566 150.206 37.0566Z" fill="#F97853"/>
<path d="M147.598 38.5299C147.753 39.3589 148.27 40.8838 150.009 40.8838C151.752 40.8838 152.241 39.4903 152.409 38.5299H147.598Z" fill="white"/>
<path d="M157.949 29.6264C157.869 31.4016 157.709 33.6215 157.39 35.3968L156.476 35.328C156.476 35.328 156.697 33.8293 156.8 32.8528C156.902 31.8759 157.076 30.0507 156.29 29.823C155.506 29.5972 155.966 27.5148 154.876 26.612C153.786 25.7069 151.363 24.9105 149.755 25.9611C148.147 27.0091 146.318 26.4296 145.578 26.612C144.835 26.7921 143.829 27.8773 144.1 28.8907C144.374 29.9017 143.556 30.5184 143.358 31.5664C143.16 32.6147 143.793 35.4359 143.793 35.4359L142.92 35.6226C142.527 33.3351 142.468 31.0238 142.496 29.3726C142.527 27.686 143.395 26.1454 144.778 25.3145C148.524 23.0615 152.476 23.9013 155.078 24.9627C156.885 25.6985 158.041 27.5797 157.949 29.6264Z" fill="#18315B"/>
<path d="M168.169 114.735C164.029 115.847 159.89 116.566 155.748 116.897C155.56 116.912 155.374 116.926 155.186 116.94C154.616 116.981 154.047 117.014 153.478 117.041C150.66 117.169 147.842 117.119 145.024 116.888C144.455 116.842 143.888 116.789 143.319 116.727C143.138 116.708 142.956 116.688 142.774 116.666C139.409 116.279 136.045 115.634 132.677 114.735C132.644 111.445 132.682 101.041 132.872 89.7593C132.895 88.4034 132.919 87.0348 132.947 85.6643C133.246 70.7955 133.822 55.7023 134.857 54.1905C135.85 52.7436 138.841 50.9046 141.702 49.2462C141.872 49.1471 142.043 49.0484 142.212 48.9509C142.856 48.5803 143.484 48.2209 144.076 47.8803C145.343 47.1488 146.436 46.4983 147.111 45.996V46.4092C147.111 46.4092 148.651 48.5715 150.386 48.4117C151.969 48.2673 153.173 46.3289 153.378 45.9814C154.124 46.539 155.464 47.3073 157.018 48.1783C157.45 48.4213 157.897 48.6702 158.354 48.9267C158.522 49.0204 158.69 49.1152 158.86 49.2112C162.023 50.9911 165.434 52.9975 166.457 54.4885C166.534 54.5991 166.607 54.7838 166.676 55.0376C167.282 57.213 167.658 64.4334 167.887 73.1763C167.888 73.2074 167.889 73.2392 167.89 73.2711C167.9 73.6244 167.908 73.9807 167.916 74.339C167.918 74.3855 167.919 74.4327 167.92 74.4803C167.995 77.547 168.051 80.7756 168.095 84.02C168.099 84.2777 168.103 84.535 168.106 84.7923C168.107 84.9221 168.108 85.0495 168.11 85.1793C168.12 85.8183 168.126 86.4569 168.131 87.0932C168.138 87.5621 168.143 88.0305 168.147 88.5002C168.261 100.226 168.214 111.287 168.169 114.735Z" fill="#9989EE"/>
<path d="M167.916 74.3389C166.92 72.6132 165.851 70.8518 164.843 69.2935C164.841 69.2897 164.838 69.2858 164.836 69.282C164.413 68.6276 164.001 68.0102 163.61 67.4461C163.603 67.4349 163.597 67.4257 163.589 67.4169C163.467 67.2399 163.346 67.0674 163.227 66.9C163.208 66.8712 163.194 66.8413 163.184 66.8094L163.184 66.8082C163.152 66.695 163.187 66.5694 163.281 66.4934C163.403 66.3958 163.575 66.4212 163.666 66.5498C164.876 68.2502 166.424 70.6951 167.887 73.1765C167.888 73.2076 167.889 73.2395 167.89 73.2713C167.9 73.6246 167.908 73.9806 167.916 74.3389Z" fill="#A597EA"/>
<path d="M166.5 54.2486C166.5 54.2486 172.743 66.3811 176.548 72.5293C176.548 72.5293 178.712 70.4204 181.526 67.5995C184.578 64.5406 188.752 59.428 188.752 59.428L191.061 62.3337C191.061 62.3337 181.684 80.2339 177.478 82.4834C173.272 84.7332 165.521 68.8103 165.521 68.8103L166.5 54.2486Z" fill="#9989EE"/>
<path d="M140.068 102.064H140.058C139.902 102.058 139.78 101.919 139.786 101.754C140.113 91.9563 135.324 88.7818 135.275 88.7511C135.142 88.6654 135.098 88.4819 135.178 88.3402C135.258 88.1989 135.431 88.152 135.565 88.2365C135.618 88.2703 136.884 89.0863 138.111 91.1768C139.23 93.0853 140.527 96.4733 140.35 101.775C140.345 101.937 140.219 102.064 140.068 102.064Z" fill="#A597EA"/>
<path d="M160.5 92.8335C160.355 92.8335 160.231 92.7145 160.219 92.5574C160.067 90.4942 160.708 88.9893 161.519 87.0839C161.757 86.5263 162.002 85.9503 162.253 85.304C163.827 81.254 163.036 76.6229 163.028 76.5769C162.999 76.414 163.1 76.2578 163.254 76.2274C163.407 76.1967 163.555 76.3038 163.583 76.4666C163.618 76.6629 164.413 81.3196 162.775 85.5321C162.521 86.1876 162.273 86.7686 162.034 87.3304C161.226 89.2289 160.642 90.6009 160.782 92.5109C160.794 92.6761 160.678 92.8201 160.523 92.8327C160.515 92.8335 160.508 92.8335 160.5 92.8335Z" fill="#A597EA"/>
<path d="M144.075 47.8802C144.196 48.8448 144.373 50.0962 144.566 51.5178C144.626 51.9394 144.685 52.3776 144.745 52.8272C144.941 54.2953 145.144 55.8927 145.317 57.5078C145.363 57.9413 145.407 58.3764 145.449 58.8099C145.601 60.4089 145.716 61.9975 145.757 63.4744C145.771 63.921 145.776 64.3576 145.774 64.7811C145.771 65.9086 145.712 66.9442 145.583 67.8305C145.501 68.3907 145.428 68.9379 145.363 69.4732C145.31 69.9171 145.262 70.3534 145.219 70.7827C145.055 72.4485 144.972 73.9998 144.949 75.4617C144.942 75.9056 144.941 76.3407 144.945 76.7669C144.958 78.427 145.047 79.9737 145.176 81.446C145.214 81.8872 145.257 82.3203 145.3 82.7485C145.469 84.3575 145.675 85.8892 145.868 87.4041C145.925 87.838 145.979 88.27 146.033 88.702C146.116 89.3944 146.196 90.0871 146.264 90.7841C146.337 91.5229 146.384 92.3873 146.406 93.3461C146.417 93.7651 146.422 94.2032 146.424 94.656C146.429 96.0887 146.395 97.6761 146.332 99.3362C146.315 99.7701 146.297 100.209 146.277 100.653C146.207 102.195 146.115 103.781 146.012 105.347C145.982 105.788 145.952 106.225 145.92 106.662C145.807 108.291 145.68 109.879 145.553 111.356C145.514 111.804 145.476 112.242 145.438 112.667C145.291 114.292 145.148 115.736 145.023 116.889C147.842 117.119 150.661 117.169 153.478 117.04C153.544 115.814 153.723 113.835 153.9 111.505C153.933 111.079 153.965 110.64 153.996 110.192C154.102 108.71 154.198 107.128 154.261 105.53C154.279 105.092 154.294 104.653 154.305 104.214C154.347 102.62 154.349 101.036 154.284 99.5504C154.265 99.0992 154.24 98.658 154.207 98.2291C154.175 97.7898 154.135 97.3616 154.087 96.9484C153.951 95.7818 153.899 94.6613 153.906 93.5527C153.907 93.1134 153.918 92.6768 153.937 92.2391C154.002 90.7203 154.158 89.1982 154.339 87.5819C154.387 87.1522 154.438 86.716 154.489 86.2709C154.652 84.8332 154.822 83.3084 154.956 81.6395C154.992 81.2117 155.024 80.774 155.054 80.3258C155.147 78.8943 155.21 77.3564 155.22 75.6802C155.223 75.2482 155.221 74.807 155.216 74.3562C155.2 72.9054 155.143 71.3533 155.032 69.681C155.022 69.5331 155.013 69.383 155.002 69.2321C154.981 68.9395 154.963 68.6438 154.951 68.3485C154.878 66.8236 154.897 65.2554 154.979 63.6914C155 63.2521 155.028 62.8124 155.059 62.3731C155.173 60.8075 155.339 59.2565 155.531 57.7697C155.587 57.3273 155.646 56.8892 155.706 56.4587C155.937 54.829 156.185 53.2957 156.413 51.9252C156.488 51.474 156.561 51.0405 156.63 50.6273C156.785 49.7019 156.919 48.877 157.018 48.1785C155.464 47.3068 154.124 46.5388 153.378 45.9817C153.173 46.3292 151.969 48.2672 150.386 48.4112C148.651 48.5714 147.111 46.409 147.111 46.409V45.9963C146.436 46.4981 145.343 47.1483 144.075 47.8802Z" fill="white"/>
<path d="M144.566 51.5174C144.625 51.9394 144.684 52.3772 144.745 52.8268C146.301 52.8645 148.13 52.6172 150.333 52.0773C152.692 51.5013 154.773 51.6019 156.413 51.9248C156.489 51.4736 156.561 51.0401 156.63 50.6269C154.852 50.279 152.61 50.1788 150.056 50.8032C147.882 51.3338 146.071 51.5785 144.566 51.5174Z" fill="#E3E3E3"/>
<path d="M145.317 57.5074C145.363 57.941 145.407 58.376 145.449 58.8096C146.846 58.7704 148.454 58.5231 150.333 58.0615C152.285 57.5846 154.049 57.5727 155.531 57.7693C155.587 57.3269 155.646 56.8892 155.707 56.4583C154.099 56.2475 152.186 56.2648 150.056 56.7859C148.232 57.2325 146.662 57.4767 145.317 57.5074Z" fill="#E3E3E3"/>
<path d="M145.757 63.4744C145.771 63.921 145.776 64.3576 145.773 64.7808C147.094 64.7151 148.598 64.4713 150.333 64.0462C152.047 63.6268 153.616 63.5673 154.978 63.691C155 63.2517 155.028 62.8124 155.059 62.3731C153.594 62.2448 151.906 62.3178 150.056 62.7701C148.428 63.1687 147.002 63.406 145.757 63.4744Z" fill="#E3E3E3"/>
<path d="M145.219 70.7822C146.671 70.7649 148.349 70.515 150.333 70.0304C152.069 69.6057 153.658 69.55 155.032 69.6809C155.022 69.5327 155.013 69.3825 155.002 69.2316C154.981 68.939 154.963 68.6437 154.951 68.3481C153.511 68.2332 151.861 68.312 150.056 68.7543C148.252 69.1963 146.699 69.4382 145.363 69.4732C145.31 69.9167 145.262 70.3533 145.219 70.7822Z" fill="#E3E3E3"/>
<path d="M144.945 76.7666C146.458 76.7797 148.223 76.5312 150.333 76.0147C152.153 75.5693 153.806 75.527 155.22 75.6799C155.223 75.2479 155.221 74.8067 155.216 74.3562C153.715 74.2092 151.973 74.2702 150.056 74.7387C148.063 75.226 146.376 75.4718 144.949 75.4618C144.943 75.9057 144.941 76.3407 144.945 76.7666Z" fill="#E3E3E3"/>
<path d="M145.176 81.446C145.214 81.8868 145.257 82.3204 145.3 82.7485C146.732 82.7236 148.386 82.4747 150.333 81.999C152.04 81.5816 153.603 81.5174 154.956 81.6395C154.992 81.2118 155.024 80.774 155.054 80.3259C153.589 80.1976 151.903 80.2702 150.056 80.7229C148.168 81.1841 146.553 81.4303 145.176 81.446Z" fill="#E3E3E3"/>
<path d="M145.868 87.4037C145.924 87.8377 145.979 88.2697 146.033 88.7017C147.291 88.6187 148.709 88.3803 150.333 87.9832C151.787 87.6265 153.135 87.5289 154.339 87.5815C154.387 87.1522 154.438 86.7156 154.489 86.2706C153.161 86.2064 151.67 86.3113 150.056 86.7072C148.474 87.0923 147.086 87.3285 145.868 87.4037Z" fill="#E3E3E3"/>
<path d="M146.406 93.3458C146.417 93.7648 146.422 94.2025 146.423 94.6553C147.583 94.552 148.876 94.3235 150.333 93.9656C151.615 93.6526 152.815 93.5394 153.906 93.5524C153.907 93.1131 153.918 92.6765 153.937 92.2384C152.753 92.2253 151.451 92.349 150.056 92.6911C148.703 93.0214 147.491 93.241 146.406 93.3458Z" fill="#E3E3E3"/>
<path d="M146.277 100.653C147.473 100.555 148.813 100.321 150.333 99.9501C151.763 99.6007 153.092 99.5004 154.284 99.55C154.265 99.0988 154.24 98.658 154.208 98.229C152.952 98.191 151.557 98.3074 150.055 98.6741C148.671 99.0128 147.436 99.2359 146.332 99.3357C146.315 99.7696 146.297 100.209 146.277 100.653Z" fill="#E3E3E3"/>
<path d="M145.92 106.662C147.205 106.585 148.661 106.343 150.333 105.934C151.755 105.586 153.076 105.485 154.261 105.53C154.279 105.092 154.294 104.653 154.305 104.214C153.025 104.168 151.597 104.282 150.056 104.658C148.537 105.031 147.196 105.262 146.012 105.346C145.982 105.788 145.952 106.225 145.92 106.662Z" fill="#E3E3E3"/>
<path d="M145.438 112.667C146.838 112.628 148.448 112.38 150.332 111.918C151.612 111.606 152.811 111.491 153.9 111.506C153.933 111.079 153.965 110.64 153.996 110.192C152.796 110.173 151.474 110.295 150.056 110.642C148.337 111.063 146.845 111.303 145.553 111.356C145.514 111.804 145.476 112.242 145.438 112.667Z" fill="#E3E3E3"/>
<path d="M155.186 116.939C155.373 116.926 155.56 116.912 155.748 116.897C156.859 109.969 156.218 99.7985 155.979 96.6819C155.733 93.4459 156.207 89.2849 157.281 85.2691C158.115 82.1498 157.604 74.9172 157.194 69.1065C157.078 67.4756 156.968 65.9347 156.904 64.6686C156.694 60.5775 158.091 53.0058 158.86 49.2115C158.69 49.1155 158.521 49.0206 158.354 48.9261C157.583 52.6828 156.136 60.4262 156.355 64.7009C156.421 65.9723 156.531 67.516 156.646 69.1499C157.053 74.9156 157.561 82.0903 156.754 85.1093C155.663 89.1905 155.181 93.426 155.434 96.7284C155.671 99.8495 156.316 110.084 155.186 116.939Z" fill="#A597EA"/>
<path d="M143.805 88.748C144.458 93.0085 144.252 95.7756 144.014 98.9782C143.937 100.014 143.857 101.083 143.801 102.264C143.627 105.972 143.036 113.437 142.774 116.666C142.956 116.688 143.137 116.708 143.32 116.727C143.582 113.498 144.174 106.014 144.35 102.294C144.405 101.121 144.484 100.055 144.561 99.0247C144.801 95.7841 145.01 92.9851 144.346 88.6551C144.205 87.7255 144.054 86.7827 143.904 85.8442C143.165 81.2013 142.399 76.4001 142.762 74.1C142.849 73.5382 142.962 72.9007 143.082 72.2257C143.573 69.4497 144.187 65.9957 143.993 62.9982C143.801 60.0275 142.653 51.9827 142.213 48.9507C142.043 49.0482 141.873 49.1473 141.701 49.246C142.161 52.4167 143.259 60.1523 143.446 63.0377C143.634 65.9607 143.029 69.3756 142.543 72.1178C142.423 72.7959 142.309 73.436 142.22 74.004C141.844 76.4001 142.582 81.0339 143.364 85.9414C143.513 86.8787 143.663 87.8199 143.805 88.748Z" fill="#A597EA"/>
<path d="M133.009 59.1315C133.009 59.1315 127.421 78.8995 126.037 85.9443C124.653 92.9892 124.546 107.635 124.546 107.635C124.546 107.635 122.103 113.014 122.045 115.408C121.983 117.96 123.247 119.991 123.103 121.661C122.958 123.331 124.875 122.425 124.334 119.042C123.792 115.659 125.329 112.595 125.992 112.693C126.655 112.791 125.443 116.387 126.032 117.683C126.621 118.978 127.383 116.461 128.141 114.934C128.927 113.348 128.881 109.888 128.523 107.418C128.165 104.948 132.386 89.9468 132.406 85.5999L137.751 66.4421C137.751 66.4421 135.985 58.4449 133.009 59.1315Z" fill="#FFA681"/>
<path d="M138.435 65.9611C138.246 67.2313 137.584 69.4121 136.728 72.1562V72.1577C136.655 72.3889 136.581 72.625 136.507 72.865C136.503 72.875 136.499 72.8865 136.496 72.898C136.282 73.5808 136.058 74.2946 135.828 75.0342C135.826 75.0385 135.825 75.0427 135.824 75.0473C134.876 78.0997 133.827 81.5914 132.946 85.1795C132.643 86.4075 132.361 87.6486 132.109 88.8851C131.789 90.4641 131.517 92.0381 131.318 93.5791C130.603 99.1295 129.237 106.16 129.237 106.16C127.234 107.033 124.101 105.881 124.101 105.881C124.101 105.881 124.02 95.7556 124.467 91.8216C125.02 86.9574 125.723 83.4945 126.595 79.5197C128.996 68.5796 133.22 57.8756 134.38 55.037C134.471 54.8101 134.544 54.6338 134.595 54.5121H135.592C137.555 55.8342 138.947 62.5389 138.435 65.9611Z" fill="#9989EE"/>
<path d="M123.938 103.853L124.095 106.183C124.095 106.183 127.074 107.21 129.306 106.486L129.897 104.409C127.747 104.53 125.761 104.473 123.938 103.853Z" fill="#5E46C9"/>
<path d="M136.728 72.1558V72.1573C136.728 72.1908 136.722 72.2242 136.711 72.2579C136.644 72.4542 136.575 72.6565 136.507 72.8647C136.503 72.8747 136.499 72.8862 136.496 72.8981C136.276 73.5582 136.053 74.277 135.828 75.0339C135.827 75.0381 135.825 75.0427 135.824 75.0469C134.657 78.981 133.47 83.9308 132.924 87.0923C132.93 86.4567 132.937 85.8178 132.946 85.1792C132.643 86.4072 132.361 87.6483 132.11 88.8848C132.222 87.7255 132.535 85.9879 132.961 84.0199C133.823 80.0359 135.145 75.1022 136.196 72.0583C136.248 71.9074 136.405 71.8298 136.548 71.8851C136.659 71.9289 136.728 72.0379 136.728 72.1558Z" fill="#A597EA"/>
<path d="M236.69 124.434H249.89C249.847 123.462 249.803 122.531 249.761 121.652C249.531 116.858 249.335 113.593 249.335 113.593L238.6 114.099L237.71 114.141L236.131 114.217C236.131 114.217 236.283 117.136 236.52 121.412C236.573 122.358 236.63 123.371 236.69 124.434Z" fill="#18315B"/>
<path d="M237.71 114.141L236.131 114.216C236.131 114.216 236.283 117.136 236.52 121.412C240.645 121.777 245.148 121.925 249.761 121.652C249.53 116.857 249.335 113.593 249.335 113.593L238.6 114.099L237.71 114.141Z" fill="#000B29"/>
<path d="M239.147 124.434C238.906 119.995 238.708 116.204 238.599 114.099L237.709 114.142C237.817 116.237 238.014 120.011 238.255 124.434H239.147Z" fill="#000B29"/>
<path d="M232.817 124.434C232.885 123.231 232.949 122.091 233.007 121.04C233.234 116.967 233.377 114.217 233.377 114.217L231.663 114.135L230.775 114.092L220.171 113.593C220.171 113.593 220.055 115.539 219.896 118.631C219.811 120.279 219.715 122.255 219.617 124.434H232.817Z" fill="#18315B"/>
<path d="M219.896 118.631C222.774 119.349 227.414 120.357 233.007 121.04C233.235 116.966 233.377 114.216 233.377 114.216L231.664 114.135L230.775 114.093L220.171 113.593C220.171 113.593 220.055 115.538 219.896 118.631Z" fill="#000B29"/>
<path d="M231.118 124.434C231.358 120.007 231.555 116.23 231.663 114.135L230.775 114.093C230.666 116.197 230.468 119.991 230.226 124.434H231.118Z" fill="#000B29"/>
<path d="M251.252 115.775C248.563 116.56 245.874 117.152 243.185 117.55C242.25 117.689 241.316 117.806 240.382 117.897C239.121 118.021 237.862 118.104 236.602 118.145C234.519 118.213 232.436 118.165 230.353 118.001C226.325 117.689 222.298 116.942 218.268 115.775C218.231 111.791 218.287 97.5017 218.569 83.7195C218.583 83.1013 218.596 82.483 218.61 81.8671C218.612 81.7365 218.616 81.6064 218.619 81.4754C218.621 81.3333 218.625 81.1909 218.629 81.0496C218.638 80.6122 218.649 80.1767 218.659 79.7428C218.679 78.8573 218.701 77.9795 218.725 77.1105C218.74 76.5906 218.755 76.0737 218.769 75.5618C218.772 75.4555 218.775 75.3502 218.778 75.2443C218.788 74.9067 218.798 74.5707 218.808 74.237V74.2359C218.812 74.1326 218.815 74.0289 218.818 73.9256C218.828 73.6176 218.838 73.3116 218.847 73.009C218.856 72.7506 218.864 72.496 218.872 72.2402C219.184 62.9432 219.64 55.6099 220.294 54.5766C221.401 52.8236 225.174 50.497 228.209 48.6031C229.29 47.9296 230.58 47.2288 231.32 46.7092C232.397 47.6297 233.179 48.461 234.777 48.4038C236.564 48.3389 237.005 47.1988 237.686 46.2211C238.102 46.5076 239.159 47.4273 239.708 47.7687C240.178 48.0632 240.687 48.3746 241.218 48.6987C242.04 49.1975 242.913 49.7267 243.778 50.2666C245.059 51.0672 246.323 51.8928 247.371 52.6816C248.418 53.4703 249.249 54.2241 249.66 54.8777C250.253 55.8223 250.638 61.9379 250.885 69.9865C250.895 70.268 250.902 70.5533 250.913 70.8405C250.913 70.8755 250.913 70.9104 250.913 70.9465C250.923 71.2388 250.931 71.5387 250.938 71.8386C250.962 72.7444 250.985 73.6699 251.009 74.6107C251.014 74.8088 251.018 75.0092 251.021 75.2085C251.024 75.3587 251.029 75.51 251.03 75.6578C251.038 76.0449 251.046 76.4331 251.054 76.8248C251.056 76.9031 251.057 76.9818 251.059 77.0602C251.079 78.0928 251.098 79.1403 251.116 80.1959C251.121 80.5047 251.126 80.8142 251.13 81.1241C251.356 95.6135 251.304 111.494 251.252 115.775Z" fill="#9989EE"/>
<path d="M251.13 81.1242L246.872 85.7061L242.905 81.4398L238.939 85.7061L234.957 81.4222L230.974 85.7061L226.966 81.3941L222.957 85.7061L218.629 81.0501C218.638 80.6123 218.649 80.1768 218.659 79.7429C218.679 78.8578 218.701 77.98 218.725 77.1106L222.957 72.5579L226.966 76.8706L230.974 72.5579L234.957 76.8418L238.939 72.5579L242.905 76.8241L246.872 72.5579L251.059 77.0603C251.079 78.0929 251.098 79.1404 251.116 80.196C251.121 80.5052 251.126 80.8143 251.13 81.1242Z" fill="#A597EA"/>
<path d="M243.781 104.739H243.779C238.078 104.712 233.212 101.96 230.133 99.6561C226.804 97.164 224.786 94.6392 224.766 94.6142C224.668 94.491 224.683 94.3074 224.799 94.2037C224.915 94.1008 225.088 94.1166 225.186 94.2394C225.205 94.264 227.186 96.7408 230.462 99.19C233.473 101.441 238.229 104.131 243.782 104.157C243.933 104.157 244.056 104.288 244.055 104.449C244.054 104.609 243.932 104.739 243.781 104.739Z" fill="#A597EA"/>
<path d="M240.224 101.162C235.37 100.149 231.073 96.2058 230.878 96.0245C230.764 95.9189 230.752 95.735 230.852 95.614C230.952 95.4931 231.125 95.4812 231.239 95.5864C231.289 95.6332 236.346 100.272 241.499 100.77C241.652 100.784 241.761 100.927 241.748 101.087C241.734 101.247 241.6 101.364 241.45 101.35C241.038 101.31 240.629 101.246 240.224 101.162Z" fill="#A597EA"/>
<path d="M230.502 56.4067C230.373 56.4067 230.258 56.3096 230.233 56.1698C230.205 56.012 230.302 55.8599 230.451 55.83C237.402 54.4307 239.498 49.6871 239.517 49.6395C239.58 49.4932 239.743 49.4279 239.881 49.4944C240.019 49.5604 240.08 49.7328 240.017 49.8791C239.93 50.0853 237.782 54.9468 230.554 56.4014C230.536 56.4052 230.519 56.4067 230.502 56.4067Z" fill="#A597EA"/>
<path d="M222.021 69.1755V69.1774C222.014 69.2093 222.001 69.2412 221.983 69.2704C221.879 69.4474 221.771 69.6305 221.662 69.8172C221.657 69.8275 221.651 69.8368 221.646 69.8483C221.298 70.4442 220.936 71.0955 220.563 71.7836C220.562 71.7886 220.56 71.7913 220.556 71.7952C219.974 72.8784 219.37 74.0523 218.778 75.2446C218.788 74.9071 218.798 74.5711 218.808 74.2374V74.2362C218.812 74.1326 218.815 74.0293 218.818 73.9256C219.772 72.0478 220.723 70.2914 221.52 68.9597C221.602 68.823 221.771 68.7842 221.899 68.8695C221.999 68.9382 222.045 69.0603 222.021 69.1755Z" fill="#A597EA"/>
<path d="M257.048 58.3901C257.048 58.3901 265.937 55.3596 268.567 49.1722C269.328 47.3801 263.06 29.1866 263.06 29.1866L260.035 29.3421C260.035 29.3421 260.897 35.6543 261.42 39.2289C261.849 42.1677 262.544 45.679 262.778 46.8356C262.829 47.0863 262.857 47.2257 262.857 47.2257C262.709 47.253 262.56 47.2833 262.409 47.3152C258.256 48.2103 252.953 51.0795 252.953 51.0795L257.048 58.3901Z" fill="#FFA681"/>
<path d="M265.09 48.9693C265.216 49.0668 265.397 49.0376 265.488 48.9029C265.583 48.7661 265.554 48.5772 265.425 48.4812C264.779 47.9828 263.803 47.398 262.778 46.8354C262.829 47.0861 262.857 47.2255 262.857 47.2255C262.709 47.2528 262.56 47.2831 262.408 47.315C263.452 47.8837 264.45 48.4762 265.09 48.9693Z" fill="#F97853"/>
<path d="M243.447 50.0668C243.447 50.0668 240.758 56.7599 247.603 60.4862C252.34 63.0652 263.131 56.3321 263.131 56.3321L259.284 47.6672C259.284 47.6672 249.411 51.9872 243.447 50.0668Z" fill="#9989EE"/>
<path d="M261.511 18.9579C261.244 19.1572 261.298 20.3863 261.416 21.5441C261.379 21.5499 261.34 21.5568 261.301 21.5641C260.983 20.0188 260.349 17.3904 259.808 17.8923C259.453 18.2206 259.928 20.4866 260.252 21.8421C260.185 21.864 260.117 21.8866 260.051 21.9097C259.642 20.3003 258.763 17.2011 258.178 17.8039C257.787 18.206 258.537 20.9347 258.954 22.3271C258.895 22.3513 258.838 22.3751 258.783 22.3985C258.385 21.048 257.534 18.4932 256.951 19.0934C256.423 19.6368 257.936 23.499 257.936 23.499L258.332 25.0151C258.332 25.0151 257.861 25.2309 257.126 24.3484C256.39 23.4664 255.511 23.3109 256.121 24.5873C256.812 26.03 257.834 27.0645 258.283 28.0852C258.733 29.1058 260.147 29.4434 260.147 29.4434L262.988 29.2978C262.988 29.2978 263.539 24.2048 262.479 21.7772C262.297 20.3337 261.977 18.6111 261.511 18.9579Z" fill="#FFA681"/>
<path d="M226.365 30.7034C226.365 35.8359 229.344 39.3726 234.18 39.3726C239.019 39.3726 242.391 35.5702 242.391 30.4376C242.391 29.0222 242.174 27.7005 241.755 26.5312C241.73 26.4613 241.706 26.3918 241.679 26.3242C241.628 26.1914 241.575 26.0585 241.517 25.9299C241.433 25.7321 241.338 25.5382 241.24 25.3508C239.979 22.9466 237.721 21.4179 234.687 21.4179C228.886 21.4179 226.365 25.5708 226.365 30.7034Z" fill="#18315B"/>
<path d="M227.451 32.9132C227.451 32.9132 226.107 31.012 225.107 32.5841C224.108 34.1562 225.521 38.7996 227.968 37.666L227.451 32.9132Z" fill="#F97853"/>
<path d="M227.434 36.231C227.344 36.231 227.26 36.1672 227.235 36.0708C226.856 34.6374 225.455 34.056 225.441 34.0502C225.335 34.0068 225.281 33.8805 225.321 33.7672C225.362 33.6543 225.481 33.5971 225.588 33.6397C225.653 33.6662 227.196 34.3014 227.633 35.9522C227.664 36.0689 227.6 36.1899 227.489 36.2225C227.471 36.2283 227.453 36.231 227.434 36.231Z" fill="#EA5143"/>
<path d="M226.021 35.5088C225.982 35.5088 225.943 35.4977 225.908 35.4738C225.813 35.4082 225.785 35.2726 225.847 35.1705C225.857 35.1536 226.105 34.7527 226.623 34.5069C226.727 34.4574 226.85 34.5069 226.896 34.6175C226.943 34.7281 226.896 34.8579 226.792 34.9074C226.391 35.0975 226.196 35.4051 226.194 35.4082C226.155 35.4735 226.088 35.5088 226.021 35.5088Z" fill="#EA5143"/>
<path d="M241.304 32.9132C241.304 32.9132 242.648 31.012 243.648 32.5841C244.647 34.1562 243.234 38.7996 240.787 37.666L241.304 32.9132Z" fill="#F97853"/>
<path d="M241.321 36.231C241.411 36.231 241.495 36.1672 241.52 36.0708C241.899 34.6374 243.3 34.056 243.314 34.0502C243.42 34.0068 243.474 33.8805 243.433 33.7672C243.393 33.6543 243.274 33.5971 243.167 33.6397C243.102 33.6662 241.559 34.3014 241.122 35.9522C241.091 36.0689 241.155 36.1899 241.265 36.2225C241.284 36.2283 241.302 36.231 241.321 36.231Z" fill="#EA5143"/>
<path d="M242.734 35.5088C242.772 35.5088 242.812 35.4977 242.846 35.4738C242.942 35.4082 242.969 35.2726 242.908 35.1705C242.897 35.1536 242.65 34.7527 242.132 34.5069C242.028 34.4574 241.905 34.5069 241.858 34.6175C241.812 34.7281 241.858 34.8579 241.963 34.9074C242.364 35.0975 242.559 35.4051 242.56 35.4082C242.6 35.4735 242.666 35.5088 242.734 35.5088Z" fill="#EA5143"/>
<path d="M237.686 41.6043V46.2219C237.686 46.2219 236.388 48.5735 234.632 48.7336C232.879 48.8957 231.32 46.7088 231.32 46.7088V41.9287L237.686 41.6043Z" fill="#FFA681"/>
<path d="M237.686 41.6043V43.653C236.508 45.0396 234.416 45.386 231.32 44.9014V41.9288L237.686 41.6043Z" fill="#F97853"/>
<path d="M242.276 29.7457C242.195 31.5401 242.034 33.7842 241.711 35.5783C241.631 36.026 241.539 36.4473 241.438 36.8247C240.522 40.2266 238.231 46.0619 231.816 43.6315C228.983 42.5586 227.669 39.2113 227.084 35.8068C226.687 33.4947 226.627 31.1584 226.657 29.4888C226.687 27.7846 227.564 26.2271 228.962 25.3869C232.749 23.1098 236.744 23.9588 239.374 25.0317C241.2 25.7751 242.369 27.6771 242.276 29.7457Z" fill="#FFA681"/>
<path d="M231.627 33.5158C231.627 34.0088 231.387 34.4082 231.092 34.4082C230.797 34.4082 230.557 34.0088 230.557 33.5158C230.557 33.0227 230.797 32.6234 231.092 32.6234C231.387 32.6234 231.627 33.0227 231.627 33.5158Z" fill="#18315B"/>
<path d="M237.932 33.4972C237.932 33.9903 237.692 34.3896 237.397 34.3896C237.101 34.3896 236.862 33.9903 236.862 33.4972C236.862 33.0042 237.101 32.6048 237.397 32.6048C237.692 32.6048 237.932 33.0042 237.932 33.4972Z" fill="#18315B"/>
<path d="M239.14 30.43C239.14 30.43 237.453 29.7223 236.153 30.3179L236.283 31.0847C236.283 31.0847 238.19 30.9135 239.151 31.3267C239.238 31.0314 239.25 30.7334 239.14 30.43Z" fill="#18315B"/>
<path d="M229.307 30.43C229.307 30.43 230.995 29.7223 232.294 30.3179L232.165 31.0847C232.165 31.0847 230.257 30.9135 229.296 31.3267C229.21 31.0314 229.197 30.7334 229.307 30.43Z" fill="#18315B"/>
<path d="M234.449 37.2559C234.798 37.2559 235.144 37.1119 235.198 37.0888C235.303 37.0427 235.354 36.9149 235.311 36.8027C235.268 36.6906 235.147 36.6369 235.041 36.6825C234.855 36.7628 234.406 36.8891 234.212 36.7659C234.174 36.7417 234.123 36.6948 234.11 36.5612C234.035 35.7955 234.233 33.2277 234.235 33.202C234.245 33.081 234.16 32.9754 234.046 32.9654C233.932 32.9551 233.833 33.0453 233.823 33.1659C233.815 33.273 233.62 35.8001 233.699 36.6065C233.728 36.9103 233.879 37.0654 234 37.1422C234.132 37.2263 234.291 37.2559 234.449 37.2559Z" fill="#F97853"/>
<path d="M231.672 38.37C232.016 39.6353 232.993 40.8982 234.34 40.9155C235.684 40.8982 236.661 39.6353 237.005 38.37H231.672Z" fill="white"/>
<path d="M234.224 42.2905C234.76 42.2905 235.213 42.0029 235.232 41.9906C235.33 41.928 235.362 41.7932 235.302 41.6896C235.243 41.5859 235.116 41.5529 235.018 41.6155C235.015 41.6178 234.641 41.8516 234.224 41.8516C233.842 41.8516 233.476 41.6189 233.472 41.6166C233.374 41.5532 233.247 41.5847 233.187 41.688C233.127 41.7909 233.158 41.9261 233.255 41.9899C233.273 42.0021 233.719 42.2905 234.224 42.2905Z" fill="#F97853"/>
<path d="M242.057 32.9521H241.12C241.223 31.9541 241.372 30.1962 240.599 29.9443C238.157 29.1486 241.322 27.3181 240.219 26.4053C239.117 25.4906 236.373 25.8827 234.465 25.817C232.546 25.7514 229.46 25.7802 228.712 25.9641C227.961 26.1461 228.372 27.4686 228.648 28.4928C228.925 29.515 227.727 30.6474 227.527 31.7068C227.469 32.0106 227.481 32.4625 227.527 32.9521H226.746C226.653 31.6627 226.639 30.4623 226.656 29.4889C226.687 27.7843 227.564 26.2272 228.962 25.387C232.748 23.1098 236.744 23.9589 239.374 25.0318C241.2 25.7752 242.368 27.6771 242.275 29.7457C242.231 30.7288 242.163 31.847 242.057 32.9521Z" fill="#18315B"/>
<path d="M230.998 31.5205C229.908 31.5205 229.022 32.4609 229.022 33.6168C229.022 34.7726 229.908 35.713 230.998 35.713C232.087 35.713 232.974 34.7726 232.974 33.6168C232.974 32.4609 232.087 31.5205 230.998 31.5205ZM230.998 36.1001C229.707 36.1001 228.656 34.9861 228.656 33.6168C228.656 32.2474 229.707 31.1334 230.998 31.1334C232.288 31.1334 233.339 32.2474 233.339 33.6168C233.339 34.9861 232.288 36.1001 230.998 36.1001Z" fill="white"/>
<path d="M237.397 31.5205C236.307 31.5205 235.421 32.4609 235.421 33.6168C235.421 34.7726 236.307 35.713 237.397 35.713C238.486 35.713 239.373 34.7726 239.373 33.6168C239.373 32.4609 238.486 31.5205 237.397 31.5205ZM237.397 36.1001C236.106 36.1001 235.055 34.9861 235.055 33.6168C235.055 32.2474 236.106 31.1334 237.397 31.1334C238.687 31.1334 239.738 32.2474 239.738 33.6168C239.738 34.9861 238.687 36.1001 237.397 36.1001Z" fill="white"/>
<path d="M229.052 32.8169C229.006 32.8169 228.959 32.7985 228.924 32.7608C228.913 32.7497 227.85 31.6553 226.454 32.0005C226.357 32.0247 226.258 31.9602 226.235 31.8561C226.213 31.7521 226.273 31.648 226.372 31.6234C227.967 31.2287 229.132 32.4344 229.181 32.4863C229.252 32.5615 229.253 32.684 229.181 32.7601C229.146 32.7981 229.099 32.8169 229.052 32.8169Z" fill="white"/>
<path d="M239.385 32.8169C239.326 32.8169 239.267 32.7862 239.232 32.729C239.177 32.6399 239.201 32.5201 239.285 32.4613C239.355 32.4129 241.011 31.2794 242.421 31.5255C242.521 31.5432 242.588 31.6426 242.572 31.7482C242.555 31.8534 242.462 31.9249 242.362 31.9076C241.093 31.686 239.501 32.7747 239.485 32.7854C239.454 32.8069 239.42 32.8169 239.385 32.8169Z" fill="white"/>
<path d="M235.184 33.0586C235.18 33.0524 234.746 32.4308 234.177 32.4308C233.612 32.4308 233.22 33.0513 233.216 33.0578L232.911 32.8462C232.931 32.8132 233.412 32.0433 234.177 32.0433C234.935 32.0433 235.458 32.7998 235.48 32.832L235.184 33.0586Z" fill="white"/>
<path d="M221.25 68.8104C221.25 68.8104 218.784 73.8758 215.88 77.8886C215.023 79.0724 214.129 80.1638 213.248 81.007C211.819 82.3745 210.427 83.0899 209.293 82.4828C205.087 80.2337 195.71 62.3335 195.71 62.3335L198.02 59.4282C198.02 59.4282 202.193 64.5404 205.245 67.5997C208.059 70.4205 210.224 72.5299 210.224 72.5299C210.613 71.9009 211.028 71.2116 211.46 70.482C211.919 69.7075 212.395 68.8876 212.88 68.0447C216.394 61.9242 220.294 54.5767 220.294 54.5767L221.25 68.8104Z" fill="#FFA681"/>
<path d="M215.88 77.8884C215.023 79.0722 214.129 80.164 213.248 81.0068L211.46 70.4818C211.919 69.7073 212.395 68.8878 212.88 68.0445L215.88 77.8884Z" fill="#F97853"/>
<path d="M220.294 54.5765L211.865 68.6386L214.694 81.0068L221.669 68.9592C221.669 68.9592 222.515 60.7174 220.294 54.5765Z" fill="#9989EE"/>
<path d="M209.695 124.434C209.094 120.895 208.5 116.904 207.961 113.028C207.843 112.17 207.727 111.321 207.612 110.482C207.18 107.273 206.794 104.238 206.484 101.721C206.365 100.764 206.259 99.881 206.163 99.0931C205.862 96.5794 205.685 95.018 205.685 95.018L192.375 95.5518L179.023 95.018C179.023 95.018 178.68 98.1073 178.129 102.586C178.028 103.402 177.92 104.262 177.808 105.159C177.511 107.51 177.172 110.105 176.808 112.763C176.802 112.802 176.797 112.841 176.791 112.88C176.677 113.708 176.561 114.543 176.442 115.377C176.44 115.388 176.439 115.398 176.436 115.41V115.412C176.151 117.427 175.851 119.44 175.547 121.377C175.422 122.176 175.295 122.961 175.167 123.725C175.128 123.964 175.088 124.2 175.048 124.434H209.695Z" fill="#9989EE"/>
<path d="M182.092 99.2589C182.092 99.9939 181.53 100.59 180.837 100.59C180.144 100.59 179.583 99.9939 179.583 99.2589C179.583 98.5239 180.144 97.928 180.837 97.928C181.53 97.928 182.092 98.5239 182.092 99.2589Z" fill="#A597EA"/>
<path d="M185.205 104.414C185.205 105.149 184.643 105.745 183.95 105.745C183.258 105.745 182.696 105.149 182.696 104.414C182.696 103.679 183.258 103.083 183.95 103.083C184.643 103.083 185.205 103.679 185.205 104.414Z" fill="#A597EA"/>
<path d="M191.329 101.753C191.329 102.488 190.768 103.083 190.075 103.083C189.382 103.083 188.82 102.488 188.82 101.753C188.82 101.018 189.382 100.422 190.075 100.422C190.768 100.422 191.329 101.018 191.329 101.753Z" fill="#A597EA"/>
<path d="M181.663 109.889C181.663 110.624 181.101 111.22 180.408 111.22C179.715 111.22 179.154 110.624 179.154 109.889C179.154 109.154 179.715 108.559 180.408 108.559C181.101 108.559 181.663 109.154 181.663 109.889Z" fill="#A597EA"/>
<path d="M189.316 109.32C189.316 110.055 188.755 110.651 188.062 110.651C187.369 110.651 186.807 110.055 186.807 109.32C186.807 108.585 187.369 107.989 188.062 107.989C188.755 107.989 189.316 108.585 189.316 109.32Z" fill="#A597EA"/>
<path d="M178.945 103.834C178.945 104.527 178.447 105.097 177.807 105.159C177.92 104.261 178.028 103.402 178.129 102.586C178.606 102.775 178.945 103.262 178.945 103.834Z" fill="#A597EA"/>
<path d="M201.788 117.138C201.788 117.873 201.226 118.469 200.534 118.469C199.841 118.469 199.279 117.873 199.279 117.138C199.279 116.404 199.841 115.808 200.534 115.808C201.226 115.808 201.788 116.404 201.788 117.138Z" fill="#A597EA"/>
<path d="M201.195 109.889C201.195 110.624 200.634 111.22 199.941 111.22C199.248 111.22 198.686 110.624 198.686 109.889C198.686 109.154 199.248 108.559 199.941 108.559C200.634 108.559 201.195 109.154 201.195 109.889Z" fill="#A597EA"/>
<path d="M207.961 113.028C207.81 113.096 207.642 113.133 207.468 113.133C206.776 113.133 206.214 112.537 206.214 111.803C206.214 111.068 206.776 110.472 207.468 110.472C207.517 110.472 207.565 110.475 207.612 110.482C207.727 111.321 207.843 112.171 207.961 113.028Z" fill="#A597EA"/>
<path d="M202.45 122.451C202.45 123.186 201.888 123.782 201.195 123.782C200.503 123.782 199.941 123.186 199.941 122.451C199.941 121.716 200.503 121.12 201.195 121.12C201.888 121.12 202.45 121.716 202.45 122.451Z" fill="#A597EA"/>
<path d="M207.816 120.327C207.816 121.062 207.254 121.658 206.561 121.658C205.868 121.658 205.307 121.062 205.307 120.327C205.307 119.592 205.868 118.996 206.561 118.996C207.254 118.996 207.816 119.592 207.816 120.327Z" fill="#A597EA"/>
<path d="M196.65 124.434C196.425 124.084 196.046 123.853 195.616 123.853C195.186 123.853 194.808 124.084 194.583 124.434H196.65Z" fill="#A597EA"/>
<path d="M180.837 118.296C180.837 119.03 180.275 119.626 179.582 119.626C178.89 119.626 178.328 119.03 178.328 118.296C178.328 117.561 178.89 116.965 179.582 116.965C180.275 116.965 180.837 117.561 180.837 118.296Z" fill="#A597EA"/>
<path d="M177.527 114.092C177.527 114.768 177.053 115.326 176.436 115.41C176.439 115.398 176.441 115.388 176.442 115.377C176.561 114.543 176.677 113.709 176.791 112.88C177.225 113.091 177.527 113.554 177.527 114.092Z" fill="#A597EA"/>
<path d="M176.061 122.45C176.061 123.052 175.684 123.56 175.167 123.726C175.295 122.961 175.421 122.176 175.547 121.377C175.858 121.619 176.061 122.01 176.061 122.45Z" fill="#A597EA"/>
<path d="M183.95 123.013C183.95 123.748 183.388 124.344 182.695 124.344C182.003 124.344 181.441 123.748 181.441 123.013C181.441 122.278 182.003 121.682 182.695 121.682C183.388 121.682 183.95 122.278 183.95 123.013Z" fill="#A597EA"/>
<path d="M190.571 121.971C190.571 122.706 190.009 123.302 189.316 123.302C188.623 123.302 188.062 122.706 188.062 121.971C188.062 121.236 188.623 120.64 189.316 120.64C190.009 120.64 190.571 121.236 190.571 121.971Z" fill="#A597EA"/>
<path d="M185.847 115.428C185.847 116.163 185.286 116.759 184.593 116.759C183.9 116.759 183.338 116.163 183.338 115.428C183.338 114.693 183.9 114.097 184.593 114.097C185.286 114.097 185.847 114.693 185.847 115.428Z" fill="#A597EA"/>
<path d="M192.584 114.097C192.584 114.832 192.022 115.428 191.33 115.428C190.637 115.428 190.075 114.832 190.075 114.097C190.075 113.363 190.637 112.767 191.33 112.767C192.022 112.767 192.584 113.363 192.584 114.097Z" fill="#A597EA"/>
<path d="M195.616 107.075C195.616 107.81 195.055 108.406 194.362 108.406C193.669 108.406 193.107 107.81 193.107 107.075C193.107 106.34 193.669 105.745 194.362 105.745C195.055 105.745 195.616 106.34 195.616 107.075Z" fill="#A597EA"/>
<path d="M206.484 101.721C206.396 101.742 206.307 101.752 206.214 101.752C205.52 101.752 204.96 101.156 204.96 100.422C204.96 99.7061 205.493 99.1205 206.163 99.0929C206.259 99.8808 206.365 100.764 206.484 101.721Z" fill="#A597EA"/>
<path d="M199.941 101.753C199.941 102.488 199.379 103.083 198.686 103.083C197.994 103.083 197.432 102.488 197.432 101.753C197.432 101.018 197.994 100.422 198.686 100.422C199.379 100.422 199.941 101.018 199.941 101.753Z" fill="#A597EA"/>
<path d="M204.536 106.496C204.536 107.23 203.974 107.826 203.281 107.826C202.588 107.826 202.026 107.23 202.026 106.496C202.026 105.761 202.588 105.165 203.281 105.165C203.974 105.165 204.536 105.761 204.536 106.496Z" fill="#A597EA"/>
<path d="M196.871 118.296C196.871 119.03 196.309 119.626 195.616 119.626C194.923 119.626 194.362 119.03 194.362 118.296C194.362 117.561 194.923 116.965 195.616 116.965C196.309 116.965 196.871 117.561 196.871 118.296Z" fill="#A597EA"/>
<path d="M206.495 95.3675C199.473 100.23 186.58 99.8492 178.478 95.3675C179.252 90.2538 180.271 85.1343 180.052 78.3275C180.028 77.5818 179.998 76.8399 179.962 76.1057C179.931 75.4663 179.896 74.8316 179.858 74.2037C179.158 62.8807 177.337 53.6229 178.232 52.4267C178.622 51.9029 179.274 51.3373 180.078 50.7586C180.393 50.5305 180.731 50.2997 181.087 50.0689C181.928 49.5248 182.862 48.9765 183.801 48.4427C186.028 47.1816 188.288 46.0112 189.422 45.2121C190.545 45.7313 191.44 46.0154 192.405 46.0101C192.43 46.0101 192.459 46.0101 192.488 46.007C192.513 46.0101 192.542 46.0101 192.568 46.0101C193.532 46.0154 194.427 45.7313 195.552 45.2121C196.604 45.9536 198.583 46.9881 200.603 48.1167C202.087 48.9461 203.593 49.8266 204.766 50.6807C205.533 51.2394 206.16 51.7873 206.543 52.3011C206.987 52.8944 206.801 55.4945 206.421 59.3471C206.046 63.1376 205.484 68.1434 205.144 73.6454C205.05 75.1733 204.972 76.7389 204.921 78.3275C204.703 85.1343 205.72 90.2538 206.495 95.3675Z" fill="#5E46C9"/>
<path d="M202.201 89.7119H202.199C196.545 89.6858 191.718 86.9563 188.666 84.6711C185.364 82.2001 183.363 79.696 183.343 79.6711C183.246 79.549 183.261 79.367 183.376 79.2644C183.491 79.1615 183.663 79.1773 183.759 79.2994C183.779 79.3236 185.743 81.7804 188.992 84.2088C191.978 86.4418 196.694 89.1094 202.202 89.1348C202.352 89.1355 202.473 89.2653 202.473 89.4247C202.472 89.5837 202.35 89.7119 202.201 89.7119Z" fill="#9989EE"/>
<path d="M198.457 86.2204C193.642 85.2166 189.381 81.3052 189.188 81.1254C189.074 81.0206 189.063 80.8382 189.162 80.7184C189.261 80.5982 189.432 80.5867 189.546 80.6911C189.596 80.7376 194.611 85.3375 199.721 85.8321C199.873 85.8452 199.981 85.9873 199.968 86.1459C199.954 86.3044 199.822 86.4216 199.672 86.407C199.264 86.3678 198.859 86.3041 198.457 86.2204Z" fill="#9989EE"/>
<path d="M191.329 59.7983C191.201 59.7983 191.087 59.702 191.062 59.5633C191.034 59.4067 191.131 59.2557 191.279 59.2262C198.172 57.8384 200.25 53.1344 200.27 53.0868C200.332 52.9416 200.493 52.8771 200.63 52.9428C200.767 53.0085 200.828 53.1793 200.766 53.3245C200.679 53.5292 198.549 58.3503 191.38 59.793C191.363 59.7968 191.346 59.7983 191.329 59.7983Z" fill="#9989EE"/>
<path d="M200.603 48.1165C199.235 51.4273 195.87 54.8557 191.496 54.0539C187.26 53.2774 185.251 50.9005 183.801 48.4425C186.028 47.1807 188.289 46.0118 189.421 45.2119C190.545 45.7307 191.44 46.0149 192.404 46.0102C192.43 46.0102 192.459 46.0102 192.487 46.0072C192.513 46.0102 192.543 46.0102 192.569 46.0102C193.532 46.0149 194.428 45.7307 195.553 45.2119C196.604 45.953 198.584 46.9879 200.603 48.1165Z" fill="#FFA681"/>
<path d="M196.946 45.4546C196.825 45.4531 196.729 45.556 196.728 45.6827C196.727 45.8685 196.655 50.245 192.952 50.5841C189.517 50.9009 188.095 47.4126 187.655 45.9657C187.63 45.8804 187.556 45.8236 187.472 45.8236H187.431C187.299 45.8236 187.205 45.9603 187.247 46.0932C187.716 47.5862 189.213 51.1915 192.713 51.0595C192.803 51.0556 192.896 51.0499 192.989 51.0414C197.088 50.6662 197.16 45.7349 197.161 45.6854C197.162 45.5587 197.065 45.4554 196.946 45.4546Z" fill="white"/>
<path d="M199.564 22.1933C199.564 22.1933 202.874 27.6316 202.511 33.2959C202.148 38.9603 202.999 45.4995 198.221 45.2118C193.442 44.9246 184.919 47.244 182.21 42.8326C179.502 38.4204 199.564 22.1933 199.564 22.1933Z" fill="#18315B"/>
<path d="M200.79 32.1926C200.79 32.1926 201.649 40.4033 197.977 42.6643C194.304 44.9249 191.645 42.4009 191.645 42.4009C191.645 42.4009 199.387 30.9561 200.79 32.1926Z" fill="#000B29"/>
<path d="M185.534 32.1545C185.534 32.1545 184.215 30.2894 183.234 31.8315C182.254 33.3741 183.64 37.9299 186.041 36.8178L185.534 32.1545Z" fill="#F97853"/>
<path d="M185.517 35.4097C185.428 35.4097 185.347 35.3475 185.321 35.2526C184.95 33.846 183.576 33.2758 183.562 33.2704C183.458 33.2278 183.405 33.1037 183.445 32.9928C183.484 32.8818 183.601 32.8257 183.706 32.8676C183.77 32.8933 185.284 33.5165 185.712 35.1363C185.742 35.2507 185.68 35.3697 185.572 35.4016C185.554 35.407 185.535 35.4097 185.517 35.4097Z" fill="#EA5143"/>
<path d="M184.13 34.7012C184.093 34.7012 184.055 34.69 184.021 34.667C183.927 34.6025 183.899 34.4692 183.96 34.3694C183.97 34.3529 184.213 33.9597 184.721 33.7181C184.823 33.6694 184.944 33.7181 184.99 33.8268C185.035 33.9355 184.99 34.0626 184.887 34.111C184.494 34.298 184.303 34.5994 184.301 34.6025C184.262 34.6666 184.197 34.7012 184.13 34.7012Z" fill="#EA5143"/>
<path d="M199.125 32.1545C199.125 32.1545 200.444 30.2894 201.425 31.8315C202.405 33.3741 201.019 37.9299 198.618 36.8178L199.125 32.1545Z" fill="#F97853"/>
<path d="M199.142 35.4097C199.231 35.4097 199.312 35.3475 199.337 35.2526C199.709 33.846 201.083 33.2758 201.097 33.2704C201.201 33.2278 201.254 33.1037 201.215 32.9928C201.175 32.8818 201.058 32.8257 200.953 32.8676C200.889 32.8933 199.375 33.5165 198.947 35.1363C198.917 35.2507 198.98 35.3697 199.088 35.4016C199.106 35.407 199.124 35.4097 199.142 35.4097Z" fill="#EA5143"/>
<path d="M200.529 34.7012C200.566 34.7012 200.604 34.69 200.638 34.667C200.732 34.6025 200.76 34.4692 200.699 34.3694C200.689 34.3529 200.446 33.9597 199.938 33.7181C199.836 33.6694 199.715 33.7181 199.67 33.8268C199.624 33.9355 199.67 34.0626 199.772 34.111C200.165 34.298 200.356 34.5994 200.358 34.6025C200.397 34.6666 200.462 34.7012 200.529 34.7012Z" fill="#EA5143"/>
<path d="M195.576 40.6816V45.212C195.576 45.212 194.302 47.5194 192.58 47.6761C190.859 47.8355 189.33 45.6897 189.33 45.6897V40.9999L195.576 40.6816Z" fill="#FFA681"/>
<path d="M195.576 40.6819V42.6921C194.42 44.0527 192.368 44.5346 189.331 44.0588L189.33 41.0002L195.576 40.6819Z" fill="#F97853"/>
<path d="M200.079 29.0468C200 30.8075 199.841 33.009 199.525 34.7696C199.446 35.2085 199.356 35.6221 199.257 35.9923C198.358 39.3304 196.11 45.055 189.816 42.6708C187.037 41.6182 185.748 38.3339 185.174 34.9935C184.784 32.7252 184.726 30.4327 184.754 28.7949C184.784 27.1226 185.645 25.5947 187.017 24.7702C190.731 22.5361 194.651 23.369 197.232 24.4216C199.024 25.1512 200.17 27.0174 200.079 29.0468Z" fill="#FFA681"/>
<path d="M189.558 32.4204C189.558 32.9038 189.323 33.2959 189.033 33.2959C188.743 33.2959 188.508 32.9038 188.508 32.4204C188.508 31.9369 188.743 31.5449 189.033 31.5449C189.323 31.5449 189.558 31.9369 189.558 32.4204Z" fill="#18315B"/>
<path d="M196.039 32.4204C196.039 32.9038 195.804 33.2959 195.514 33.2959C195.224 33.2959 194.989 32.9038 194.989 32.4204C194.989 31.9369 195.224 31.5449 195.514 31.5449C195.804 31.5449 196.039 31.9369 196.039 32.4204Z" fill="#18315B"/>
<path d="M187.994 29.8136C188.43 29.683 189.31 29.4599 190.239 29.4569C190.483 29.4561 190.67 29.6865 190.627 29.9418L190.626 29.9484C190.591 30.1519 190.42 30.2963 190.225 30.2863C189.592 30.2552 187.934 30.3497 187.15 30.686C187.135 30.5417 187.215 30.3834 187.329 30.2433C187.502 30.0305 187.739 29.89 187.994 29.8136Z" fill="#18315B"/>
<path d="M196.473 29.8312C196.037 29.7006 195.157 29.4771 194.228 29.4744C193.984 29.4737 193.796 29.7041 193.84 29.959L193.841 29.9659C193.875 30.1695 194.047 30.3135 194.242 30.3039C194.874 30.2728 196.533 30.3672 197.316 30.7036C197.332 30.5592 197.251 30.401 197.138 30.2609C196.965 30.0477 196.728 29.9076 196.473 29.8312Z" fill="#18315B"/>
<path d="M192.4 36.4155C192.245 36.4155 192.089 36.3863 191.959 36.3038C191.84 36.2285 191.693 36.0761 191.664 35.7785C191.587 34.9874 191.777 32.5079 191.786 32.4027C191.795 32.2841 191.893 32.1958 192.004 32.2057C192.116 32.2153 192.199 32.3194 192.19 32.4381C192.188 32.4634 191.994 34.9828 192.067 35.7343C192.08 35.8649 192.13 35.9113 192.167 35.9344C192.358 36.0557 192.798 35.9317 192.981 35.853C193.085 35.8077 193.203 35.861 193.245 35.9709C193.288 36.0811 193.238 36.2066 193.135 36.2516C193.082 36.2742 192.742 36.4155 192.4 36.4155Z" fill="#F97853"/>
<path d="M189.823 37.7744C189.977 38.5931 190.487 40.0991 192.204 40.0991C193.926 40.0991 194.409 38.7229 194.575 37.7744H189.823Z" fill="white"/>
<path d="M192.179 41.3555C191.684 41.3555 191.246 41.0725 191.228 41.0602C191.132 40.998 191.103 40.8651 191.162 40.7641C191.221 40.6631 191.345 40.632 191.441 40.6938C191.444 40.6961 191.802 40.925 192.179 40.925C192.589 40.925 192.955 40.6954 192.959 40.6927C193.055 40.632 193.179 40.6647 193.237 40.7664C193.295 40.8678 193.264 40.9999 193.168 41.0613C193.15 41.0736 192.705 41.3555 192.179 41.3555Z" fill="#F97853"/>
<path d="M200.896 28.696C200.83 28.8922 200.649 29.0178 200.407 29.0927C200.425 29.5677 200.378 30.1383 200.334 30.6859C200.084 33.7963 199.344 34.3427 199.176 33.5736C199.066 33.0628 199.073 30.1333 199.126 29.1779C198.547 29.1376 198.051 29.0351 198.051 29.0351L197.371 26.0149L197.133 28.9974C196.113 29.3741 193.732 28.7709 193.732 28.7709L192.934 25.7941L192.44 28.6584C190.91 29.449 188.997 28.9226 188.997 28.9226L188.558 25.8329L187.543 28.9226C187.543 28.9226 184.278 30.1648 184.243 28.9226C184.221 28.1995 184.72 26.1635 185.142 24.5864C185.602 22.8665 186.667 21.4134 188.108 20.5936C192.157 18.2881 196.439 19.5146 197.908 20.4454C201.024 22.4176 200.896 28.696 200.896 28.696Z" fill="#18315B"/>
<path d="M186.041 22.4231C186.041 22.4231 183.354 25.8138 182.469 31.8703C181.585 37.9263 180.361 42.4007 183.801 44.4002C187.525 46.5648 187.202 42.1258 187.148 40.9192C187.095 39.7131 183.928 36.4153 186.041 27.1279C186.723 24.1296 186.041 22.4231 186.041 22.4231Z" fill="#18315B"/>
<path d="M185.413 34.9378V34.9451C185.414 34.9897 185.417 35.2308 185.433 35.6075C185.442 35.8414 185.455 36.1255 185.476 36.4489C185.602 38.4891 185.976 42.0126 187.075 43.2349C187.509 43.7184 188.346 43.9607 189.331 44.0586V42.4558C188.293 41.9332 187.483 41.0745 186.856 40.0185C186.469 39.1284 185.801 37.7345 185.488 35.5426L185.413 34.9378Z" fill="#000B29"/>
<path d="M200.127 36.9196C200.127 37.1984 199.914 37.4238 199.652 37.4238C199.389 37.4238 199.176 37.1984 199.176 36.9196C199.176 36.6412 199.389 36.4154 199.652 36.4154C199.914 36.4154 200.127 36.6412 200.127 36.9196Z" fill="white"/>
<path d="M209.814 74.9058C208.468 78.9946 202.438 78.697 195.57 76.4618C195.56 76.4587 195.551 76.4549 195.54 76.4518C195.519 76.4453 195.498 76.4376 195.476 76.431L194.532 76.1116C194.401 76.0659 194.27 76.0202 194.14 75.9729C193.4 75.7103 192.654 75.4257 191.906 75.1243C189.452 74.1359 186.979 72.9639 184.647 71.714L184.663 71.671L185.365 69.736L185.605 69.0774C185.605 69.0774 198.337 70.5489 204.739 69.1293C204.848 69.1055 204.953 69.0813 205.057 69.0556C205.032 68.9046 205.024 68.751 204.984 68.6074C201.592 56.3578 205.302 54.0093 206.543 52.3005C206.543 52.3005 212.356 67.1866 209.814 74.9058Z" fill="#5E46C9"/>
<path d="M207.74 71.1147C207.702 71.1339 207.661 71.1431 207.621 71.1431C207.521 71.1431 207.424 71.0839 207.377 70.9818C206.892 69.9281 205.245 69.301 204.739 69.1294C204.848 69.1056 204.954 69.0814 205.058 69.0556C205.032 68.9047 205.008 68.755 204.984 68.6075C205.628 68.8329 207.308 69.5203 207.865 70.7295C207.93 70.8716 207.874 71.0444 207.74 71.1147Z" fill="#9989EE"/>
<path d="M189.907 70.6011C187.309 70.6011 185.198 70.4429 185.015 70.4287C184.865 70.4171 184.753 70.2789 184.764 70.1203C184.775 69.9617 184.904 69.8434 185.054 69.8542C185.15 69.8611 194.701 70.578 198.466 68.9579C198.605 68.898 198.763 68.9687 198.82 69.1165C198.876 69.2636 198.809 69.4314 198.67 69.4913C196.586 70.388 192.918 70.6011 189.907 70.6011Z" fill="#9989EE"/>
<path d="M194.532 76.1116H194.532C196.711 75.4742 198.692 74.8533 199.836 74.4643C201.424 73.924 202.738 72.2213 203.335 70.774C203.394 70.6281 203.555 70.5617 203.692 70.6262C203.83 70.6895 203.892 70.8593 203.832 71.0052C203.186 72.5704 201.751 74.4174 200.001 75.0138C199.171 75.296 197.904 75.6988 196.439 76.1423C195.814 76.3317 195.15 76.3209 194.532 76.1116Z" fill="#9989EE"/>
<path d="M200.405 74.131C180.728 81.1613 174.675 76.5606 174.675 76.5606C173.35 63.8533 178.232 52.4262 178.232 52.4262C179.674 54.9487 181.304 59.3517 181.304 59.3517L181.735 69.0918L181.703 69.3625L181.687 69.4904L181.606 70.1563L181.604 70.1701C181.646 70.1793 181.688 70.1889 181.731 70.1989C187.683 71.531 198.568 70.0422 198.568 70.0422L200.405 74.131Z" fill="#5E46C9"/>
<path d="M181.731 70.1989C180.668 71.1432 179.659 72.2318 178.76 73.4825C178.67 73.6092 178.499 73.6338 178.379 73.537C178.26 73.441 178.237 73.2609 178.327 73.1342C178.327 73.1342 178.327 73.1331 178.327 73.1331C179.338 71.7249 180.484 70.5196 181.687 69.4904L181.606 70.1567L181.604 70.1701C181.646 70.1793 181.688 70.1893 181.731 70.1989Z" fill="#9989EE"/>
<path d="M198.568 70.0424C198.568 70.0424 200.747 64.7931 204.059 65.2605L205.058 69.0559C203.244 69.8723 202.979 73.1701 200.405 74.1309L198.568 70.0424Z" fill="#FFA681"/>
<path d="M185.606 69.0777C185.606 69.0777 184.23 65.6524 180.609 64.6579C176.989 63.6637 174.682 65.4735 174.439 66.1566C174.196 66.8398 175.805 66.187 175.805 66.187C175.805 66.187 174.757 66.5014 174.156 67.5459C173.555 68.5896 175.619 67.4634 175.619 67.4634C175.619 67.4634 174.139 68.1511 173.951 68.7889C173.763 69.4268 175.714 68.3493 176.081 68.3696C176.081 68.3696 174.338 69.1046 174.35 69.7628C174.362 70.4209 176.352 69.3477 177.839 69.4325C179.325 69.5178 181.604 70.1706 181.604 70.1706C182.82 70.4159 183.982 70.5976 185.034 70.6494L185.606 69.0777Z" fill="#FFA681"/>
<path d="M220.568 11.4721C219.648 11.4721 218.9 12.2658 218.9 13.2415C218.9 14.2169 219.648 15.0106 220.568 15.0106C221.487 15.0106 222.235 14.2169 222.235 13.2415C222.235 12.2658 221.487 11.4721 220.568 11.4721ZM220.568 15.8193C219.228 15.8193 218.137 14.6631 218.137 13.2415C218.137 11.82 219.228 10.6634 220.568 10.6634C221.908 10.6634 222.998 11.82 222.998 13.2415C222.998 14.6631 221.908 15.8193 220.568 15.8193Z" fill="#9989EE"/>
<path d="M241.772 7.0917C240.852 7.0917 240.104 7.88543 240.104 8.86079C240.104 9.83653 240.852 10.6303 241.772 10.6303C242.691 10.6303 243.44 9.83653 243.44 8.86079C243.44 7.88543 242.691 7.0917 241.772 7.0917ZM241.772 11.439C240.432 11.439 239.341 10.2827 239.341 8.86079C239.341 7.4396 240.432 6.283 241.772 6.283C243.112 6.283 244.202 7.4396 244.202 8.86079C244.202 10.2827 243.112 11.439 241.772 11.439Z" fill="#5E46C9"/>
<path d="M244.775 19.8169C244.564 19.8169 244.394 19.6356 244.394 19.4125V17.6289C244.394 17.4058 244.564 17.2245 244.775 17.2245C244.985 17.2245 245.156 17.4058 245.156 17.6289V19.4125C245.156 19.6356 244.985 19.8169 244.775 19.8169Z" fill="#9989EE"/>
<path d="M244.775 22.938C244.564 22.938 244.394 22.7567 244.394 22.5336V20.75C244.394 20.5269 244.564 20.346 244.775 20.346C244.985 20.346 245.156 20.5269 245.156 20.75V22.5336C245.156 22.7567 244.985 22.938 244.775 22.938Z" fill="#9989EE"/>
<path d="M247.134 20.4858H245.624C245.414 20.4858 245.243 20.305 245.243 20.0815C245.243 19.858 245.414 19.6771 245.624 19.6771H247.134C247.345 19.6771 247.516 19.858 247.516 20.0815C247.516 20.305 247.345 20.4858 247.134 20.4858Z" fill="#9989EE"/>
<path d="M243.925 20.4858H242.415C242.204 20.4858 242.033 20.305 242.033 20.0815C242.033 19.858 242.204 19.6771 242.415 19.6771H243.925C244.135 19.6771 244.306 19.858 244.306 20.0815C244.306 20.305 244.135 20.4858 243.925 20.4858Z" fill="#9989EE"/>
<path d="M231.937 9.01318C231.727 9.01318 231.556 8.83194 231.556 8.60883V6.82515C231.556 6.60205 231.727 6.42118 231.937 6.42118C232.148 6.42118 232.319 6.60205 232.319 6.82515V8.60883C232.319 8.83194 232.148 9.01318 231.937 9.01318Z" fill="#1C31B5"/>
<path d="M231.937 12.1343C231.727 12.1343 231.556 11.953 231.556 11.7299V9.94663C231.556 9.72314 231.727 9.54228 231.937 9.54228C232.148 9.54228 232.319 9.72314 232.319 9.94663V11.7299C232.319 11.953 232.148 12.1343 231.937 12.1343Z" fill="#1C31B5"/>
<path d="M234.297 9.68213H232.787C232.577 9.68213 232.406 9.50088 232.406 9.27778C232.406 9.05429 232.577 8.87343 232.787 8.87343H234.297C234.508 8.87343 234.679 9.05429 234.679 9.27778C234.679 9.50088 234.508 9.68213 234.297 9.68213Z" fill="#1C31B5"/>
<path d="M231.088 9.68213H229.578C229.367 9.68213 229.196 9.50088 229.196 9.27778C229.196 9.05429 229.367 8.87343 229.578 8.87343H231.088C231.298 8.87343 231.469 9.05429 231.469 9.27778C231.469 9.50088 231.298 9.68213 231.088 9.68213Z" fill="#1C31B5"/>
<path d="M134.462 6.69966C134.462 7.6754 135.21 8.46874 136.13 8.46874C137.05 8.46874 137.798 7.6754 137.798 6.69966C137.798 5.72391 137.05 4.93057 136.13 4.93057C135.21 4.93057 134.462 5.72391 134.462 6.69966ZM133.7 6.69966C133.7 5.27809 134.79 4.12148 136.13 4.12148C137.47 4.12148 138.56 5.27809 138.56 6.69966C138.56 8.12122 137.47 9.27783 136.13 9.27783C134.79 9.27783 133.7 8.12122 133.7 6.69966Z" fill="#9989EE"/>
<path d="M124.702 16.5263C124.702 17.5021 125.45 18.2954 126.37 18.2954C127.29 18.2954 128.038 17.5021 128.038 16.5263C128.038 15.5506 127.29 14.7572 126.37 14.7572C125.45 14.7572 124.702 15.5506 124.702 16.5263ZM123.94 16.5263C123.94 15.1047 125.03 13.9481 126.37 13.9481C127.71 13.9481 128.8 15.1047 128.8 16.5263C128.8 17.9479 127.71 19.1045 126.37 19.1045C125.03 19.1045 123.94 17.9479 123.94 16.5263Z" fill="#5E46C9"/>
<path d="M118.887 20.144C119.097 20.144 119.268 19.9632 119.268 19.7397V17.9564C119.268 17.7329 119.097 17.552 118.887 17.552C118.676 17.552 118.505 17.7329 118.505 17.9564V19.7397C118.505 19.9632 118.676 20.144 118.887 20.144Z" fill="#9989EE"/>
<path d="M118.887 23.2651C119.097 23.2651 119.268 23.0843 119.268 22.8608V21.0775C119.268 20.854 119.097 20.6731 118.887 20.6731C118.676 20.6731 118.505 20.854 118.505 21.0775V22.8608C118.505 23.0843 118.676 23.2651 118.887 23.2651Z" fill="#9989EE"/>
<path d="M116.527 20.813H118.037C118.247 20.813 118.418 20.6317 118.418 20.4086C118.418 20.1851 118.247 20.0043 118.037 20.0043H116.527C116.316 20.0043 116.146 20.1851 116.146 20.4086C116.146 20.6317 116.316 20.813 116.527 20.813Z" fill="#9989EE"/>
<path d="M119.736 20.813H121.246C121.457 20.813 121.628 20.6317 121.628 20.4086C121.628 20.1851 121.457 20.0043 121.246 20.0043H119.736C119.525 20.0043 119.355 20.1851 119.355 20.4086C119.355 20.6317 119.525 20.813 119.736 20.813Z" fill="#9989EE"/>
<path d="M127.671 6.43506C127.882 6.43506 128.052 6.25381 128.052 6.03071V4.24741C128.052 4.02392 127.882 3.84306 127.671 3.84306C127.461 3.84306 127.29 4.02392 127.29 4.24741V6.03071C127.29 6.25381 127.461 6.43506 127.671 6.43506Z" fill="#1C31B5"/>
<path d="M127.671 9.55615C127.882 9.55615 128.052 9.3749 128.052 9.1518V7.3685C128.052 7.14502 127.882 6.96415 127.671 6.96415C127.461 6.96415 127.29 7.14502 127.29 7.3685V9.1518C127.29 9.3749 127.461 9.55615 127.671 9.55615Z" fill="#1C31B5"/>
<path d="M125.311 7.104H126.822C127.032 7.104 127.203 6.92276 127.203 6.69965C127.203 6.47616 127.032 6.2953 126.822 6.2953H125.311C125.101 6.2953 124.93 6.47616 124.93 6.69965C124.93 6.92276 125.101 7.104 125.311 7.104Z" fill="#1C31B5"/>
<path d="M128.521 7.104H130.031C130.241 7.104 130.412 6.92276 130.412 6.69965C130.412 6.47616 130.241 6.2953 130.031 6.2953H128.521C128.31 6.2953 128.14 6.47616 128.14 6.69965C128.14 6.92276 128.31 7.104 128.521 7.104Z" fill="#1C31B5"/>
<path d="M200.352 6.88462C200.308 6.88962 200.262 6.88309 200.218 6.8635C199.756 6.65653 199.484 6.55976 199.482 6.55899C199.34 6.50869 199.263 6.34626 199.311 6.19573C199.358 6.0452 199.511 5.96418 199.653 6.0141C199.665 6.01832 199.944 6.11778 200.429 6.33435C200.567 6.39618 200.631 6.56475 200.573 6.71067C200.533 6.81051 200.447 6.87426 200.352 6.88462Z" fill="#E9E4FF"/>
<path d="M214.147 22.2866C214.331 22.8077 214.504 23.3449 214.66 23.8836C214.698 24.0169 214.82 24.099 214.947 24.0848C214.964 24.0829 214.981 24.0791 214.998 24.0737C215.141 24.0272 215.222 23.8663 215.177 23.715C215.018 23.1652 214.842 22.6168 214.654 22.085C214.602 21.9367 214.447 21.8615 214.306 21.9172C214.166 21.9728 214.095 22.138 214.147 22.2866Z" fill="#E9E4FF"/>
<path d="M215.082 25.5102C215.206 26.0497 215.318 26.6053 215.415 27.161C215.441 27.3096 215.57 27.4098 215.709 27.3944C215.716 27.3933 215.723 27.3925 215.731 27.391C215.877 27.3622 215.975 27.2124 215.947 27.0565C215.848 26.4901 215.734 25.9241 215.608 25.3742C215.572 25.2202 215.425 25.1258 215.281 25.1634C215.135 25.2007 215.046 25.3562 215.082 25.5102Z" fill="#E9E4FF"/>
<path d="M216.223 34.182C216.358 34.167 216.463 34.0476 216.465 33.9009C216.473 33.3249 216.47 32.7466 216.454 32.1825C216.449 32.0239 216.324 31.8995 216.175 31.9041C216.023 31.9098 215.908 32.0415 215.913 32.1997C215.928 32.7554 215.932 33.3249 215.924 33.892C215.922 34.0506 216.041 34.1812 216.19 34.1835C216.201 34.1839 216.212 34.1831 216.223 34.182Z" fill="#E9E4FF"/>
<path d="M215.896 28.5074C215.747 28.5277 215.643 28.6721 215.662 28.8292C215.694 29.0888 215.723 29.351 215.748 29.6087C215.778 29.9063 215.804 30.2096 215.827 30.5107C215.838 30.6685 215.968 30.7868 216.118 30.7745C216.12 30.7741 216.123 30.7737 216.125 30.7737C216.27 30.7572 216.378 30.6209 216.366 30.4658C216.343 30.1593 216.317 29.851 216.287 29.5484C216.261 29.2861 216.231 29.0192 216.199 28.7551C216.18 28.6003 216.048 28.4905 215.902 28.5066C215.9 28.507 215.897 28.507 215.896 28.5074Z" fill="#E9E4FF"/>
<path d="M213.543 20.7261C213.593 20.8425 213.706 20.9074 213.819 20.8943C213.847 20.8917 213.874 20.884 213.901 20.8709C214.037 20.806 214.099 20.6367 214.037 20.4919C213.817 19.9685 213.578 19.4474 213.328 18.9421C213.258 18.8019 213.095 18.7478 212.962 18.8219C212.83 18.8956 212.779 19.0692 212.849 19.2093C213.094 19.7039 213.327 20.2143 213.543 20.7261Z" fill="#E9E4FF"/>
<path d="M201.656 7.57756C202.121 7.82946 202.59 8.10364 203.051 8.39318C203.103 8.42543 203.161 8.43772 203.217 8.43158C203.299 8.42236 203.376 8.37321 203.422 8.29218C203.498 8.15548 203.455 7.97961 203.326 7.89858C202.856 7.60367 202.377 7.32335 201.903 7.06607C201.769 6.99388 201.606 7.04994 201.538 7.19126C201.47 7.33218 201.523 7.50537 201.656 7.57756Z" fill="#E9E4FF"/>
<path d="M205.69 10.2811C205.747 10.3275 205.817 10.3456 205.883 10.3383C205.954 10.3302 206.023 10.2926 206.07 10.2269C206.16 10.101 206.137 9.92087 206.019 9.82487C205.59 9.47773 205.146 9.13943 204.699 8.81956C204.575 8.73124 204.407 8.7658 204.324 8.89713C204.24 9.02845 204.273 9.20701 204.397 9.29572C204.835 9.60906 205.27 9.94084 205.69 10.2811Z" fill="#E9E4FF"/>
<path d="M210.239 14.9827C210.298 15.0622 210.39 15.0987 210.479 15.0887C210.528 15.0833 210.578 15.063 210.619 15.0273C210.736 14.9282 210.755 14.7477 210.661 14.6237C210.325 14.1783 209.97 13.737 209.607 13.3131C209.506 13.1956 209.335 13.1868 209.224 13.2939C209.114 13.4003 209.106 13.5819 209.206 13.6994C209.562 14.1145 209.909 14.5465 210.239 14.9827Z" fill="#E9E4FF"/>
<path d="M208.1 12.486C208.16 12.5478 208.241 12.5743 208.318 12.5659C208.379 12.5589 208.437 12.5305 208.483 12.4802C208.588 12.3666 208.585 12.1849 208.478 12.0743C208.093 11.6769 207.69 11.2856 207.28 10.9104C207.167 10.8067 206.995 10.8206 206.898 10.9408C206.8 11.061 206.813 11.2422 206.927 11.3455C207.328 11.713 207.723 12.0966 208.1 12.486Z" fill="#E9E4FF"/>
<path d="M212.064 17.7428C212.12 17.8407 212.223 17.8903 212.324 17.8787C212.362 17.8745 212.401 17.8615 212.436 17.8384C212.564 17.7559 212.604 17.5788 212.526 17.4437C212.245 16.9556 211.946 16.4706 211.636 16.0021C211.551 15.8723 211.382 15.8408 211.259 15.9319C211.136 16.0232 211.107 16.2022 211.193 16.332C211.496 16.7905 211.789 17.2651 212.064 17.7428Z" fill="#E9E4FF"/>
<path d="M200.346 4.92041L201.531 0.265946L187.016 0.398427L200.346 4.92041Z" fill="#5E46C9"/>
<path d="M187.016 0.397736L199.642 6.04369L199.675 6.05905L200.218 7.01367L200.346 4.9201L187.016 0.397736Z" fill="#9989EE"/>
<path d="M200.218 7.01367L199.041 6.81668L199.675 6.05905L200.218 7.01367Z" fill="#9989EE"/>
<path d="M198.087 5.34878L199.676 6.05918L196.403 9.97021L187.016 0.398632L198.087 5.34878Z" fill="#5E46C9"/>
<path d="M267.092 127.364V127.645C267.092 129.263 265.855 130.575 264.328 130.575H120.995C119.469 130.575 118.233 129.263 118.233 127.645V127.364C118.233 125.746 119.469 124.433 120.995 124.433H264.328C265.855 124.433 267.092 125.746 267.092 127.364Z" fill="#1C31B5"/>
<path d="M267.092 127.364V127.504H118.233V127.364C118.233 125.746 119.469 124.434 120.995 124.434H264.328C265.855 124.434 267.092 125.746 267.092 127.364Z" fill="#9989EE"/>
<path d="M214.598 115.214H169.57C168.495 115.214 167.622 114.289 167.622 113.148V88.158C167.622 87.0168 168.495 86.0917 169.57 86.0917H214.598C215.674 86.0917 216.546 87.0168 216.546 88.158V113.148C216.546 114.289 215.674 115.214 214.598 115.214Z" fill="#18315B"/>
<path d="M195.872 124.343H188.295V115.181H195.872V124.343Z" fill="#000B29"/>
<path d="M195.76 101.01C195.76 103.213 194.076 104.999 192 104.999C189.923 104.999 188.239 103.213 188.239 101.01C188.239 98.807 189.923 97.0207 192 97.0207C194.076 97.0207 195.76 98.807 195.76 101.01Z" fill="#1D567E"/>
<path d="M201.735 124.343H182.191V123.645C182.191 122.235 183.268 121.093 184.597 121.093H199.329C200.658 121.093 201.735 122.235 201.735 123.645V124.343Z" fill="#18315B"/>
</g>
</g>
<defs>
<clipPath id="clip0_343_102662">
<rect width="375" height="131" fill="white" transform="translate(0.5)"/>
</clipPath>
</defs>
</svg>
